<svg id="Layer_1" data-name="Layer 1" xmlns="http://www.w3.org/2000/svg" viewBox="0 0 270.3 96.3"><defs><style>.cls-1{fill:#566c82;}.cls-2{fill:#fed035;}</style></defs><path class="cls-1" d="M883.4,257.1v79.1a.8.8,0,0,1-.7.7H864.1a.7.7,0,0,1-.7-.7V241.9a.7.7,0,0,1,.7-.7h3.4A15.9,15.9,0,0,1,883.4,257.1Z" transform="translate(-613.1 -240.6)"/><path class="cls-1" d="M813.9,292.4v23.8a.7.7,0,0,1-.7.7h-29a.7.7,0,0,1-.7-.7V260.5a19.3,19.3,0,0,0-19.3-19.3h0a.7.7,0,0,0-.7.7v74.3a.8.8,0,0,1-.7.7H739a.7.7,0,0,0-.7.7v18.6a.7.7,0,0,0,.7.7H858.4a.8.8,0,0,0,.8-.7V310.6a18.9,18.9,0,0,0-19-18.9H814.6A.7.7,0,0,0,813.9,292.4Zm24.5,24.5h-3.8a.7.7,0,0,1-.7-.7v-3.8a.7.7,0,0,1,.7-.7h3.8a.8.8,0,0,1,.8.7v3.8A.8.8,0,0,1,838.4,316.9Z" transform="translate(-613.1 -240.6)"/><path class="cls-1" d="M734,306.8v28.4a.7.7,0,0,1-.7.7H613.8a.7.7,0,0,1-.7-.7V316.6a.7.7,0,0,1,.7-.7h99.5a.7.7,0,0,0,.7-.7v-3.8a.7.7,0,0,0-.7-.7H639.1a.8.8,0,0,1-.7-.8V276.4a11,11,0,0,1,10.9-11h40.2c17.6-.3,19.3,8.7,19.3,19.3h0a.7.7,0,0,1-.7.7h-49a.8.8,0,0,0-.7.8v3.7a.8.8,0,0,0,.7.8h58.8A16.1,16.1,0,0,1,734,306.8Z" transform="translate(-613.1 -240.6)"/><path class="cls-2" d="M744.7,245a12.8,12.8,0,0,0-1.6,5.9h.6c1.5-.4,2.2-1.5,2.2-3.3A3.4,3.4,0,0,0,744.7,245Zm-1.6,6.7v3.1a32,32,0,0,0,2.2-3.1Zm0,3.4v5.8a23.4,23.4,0,0,0,2.1-2.9Zm0,6.1V267a23.4,23.4,0,0,0,2.1-2.9Zm0,6.2v5.7a16.3,16.3,0,0,0,2.1-2.9Zm0,6.1v5.8a21.1,21.1,0,0,0,2.1-3Zm0,6.1v3.1h2.2A24.8,24.8,0,0,0,743.1,279.6Zm2.3-27.4-2,2.8,2,2.7a19.2,19.2,0,0,0,2.1-2.7A15.1,15.1,0,0,0,745.4,252.2Zm0,6.1-2,2.8,2,2.7a19.2,19.2,0,0,0,2.1-2.7h0A24.9,24.9,0,0,0,745.4,258.3Zm-2,8.8v.2l2,2.7a23.4,23.4,0,0,0,2.1-2.9l-2.1-2.7Zm0,6.2,2.1,2.8,2-2.8-2.1-2.8Zm0,6.1a31.8,31.8,0,0,0,2.1,2.8l2-2.8-2.1-2.7Zm2.5-33.3h0a6.1,6.1,0,0,1,.2,1.5,3.6,3.6,0,0,1-1.6,3.3h3.3a5.9,5.9,0,0,1,.6-2.4v-.2a21.2,21.2,0,0,0-2.4-2.4Zm-.8-1.6a2.1,2.1,0,0,0,1.8,1.2q2.1,0,2.4-3.3,0-1.2-.3-1.2T745.1,244.5Zm.4,7.2a36.5,36.5,0,0,0,2.3,3.1v-3.1Zm0,31h2.3v-3.1C747.7,279.7,746.9,280.7,745.5,282.7Zm2.2-27.6a11,11,0,0,1-1.7,2.5l-.3.5,2.1,2.8v-5.8Zm-2,9h0a31.8,31.8,0,0,0,2.1,2.8v-5.8A23.4,23.4,0,0,0,745.7,264.1Zm0,6.1h0a20.3,20.3,0,0,0,2.1,2.8v-5.7A17.5,17.5,0,0,0,745.7,270.2Zm0,6.1a18.3,18.3,0,0,1,2,3h.1v-5.8A17.5,17.5,0,0,0,745.7,276.3Zm3.8-33.5a3.1,3.1,0,0,1-2,3.1c0,.1-.2.2-.6.2h-.4l2.1,2.1q1.2-1.8,1.8-1.8a24.5,24.5,0,0,0-.8-3.6Zm-.8,6.1a9.8,9.8,0,0,0-.6,2.2h2.4v-.6l-1.8-1.6Zm-.6,2.8v5.9h3.6v-.5l-1.7-2.4v-.2l1.7-2.4v-.4Zm0,6.4v5.7h3.6v-5.7Zm0,6.2v5.8h3.6v-.4l-1.8-2.6,1.8-2.6v-.2Zm0,6.2v5.9h3.6v-5.9Zm0,6.4v5.8h3.6v-.4l-1.8-2.5,1.8-2.7v-.2Zm.8-28.5,1.9,1.9c0-.2.1-.3.5-.5-.5-1.9-.7-2.9-.7-3A4.3,4.3,0,0,0,748.9,248.4Zm.6-7.4a2.7,2.7,0,0,0,2.1,2.7h.4a2.6,2.6,0,0,0,2-2.6v-.2l-1.9-.3h-.4A11.5,11.5,0,0,0,749.5,241Zm2.7,3.1h-.7a2.2,2.2,0,0,1-1.5-1h0c.4,1.8.7,2.7.7,3l1.2-.3,1.1.3.8-3.3C753.2,243.7,752.7,244.1,752.2,244.1Zm-1.9,10.4v.2c0,.1.6.8,1.6,2.1a24.3,24.3,0,0,0,1.7-2.3l-1.7-2.1A13.7,13.7,0,0,0,750.3,254.5Zm0,12.6,1.7,2.3,1.6-2.3-1.7-2.1A13.7,13.7,0,0,0,750.3,267.1Zm0,12.7,1.6,2.1a13.7,13.7,0,0,0,1.6-2.1,10.8,10.8,0,0,0-1.6-2.2A12.3,12.3,0,0,0,750.3,279.8Zm.5-33.1a10.9,10.9,0,0,0,.8,2.9h.6c.4-1.7.6-2.7.7-2.9l-1-.3Zm1.3,5v.4l1.8,2.6-1.8,2.5v.4h3.6v-5.9Zm0,6.4v5.7h3.6v-5.7Zm0,6.2v.2l1.8,2.6-1.8,2.6v.4h3.6v-5.8Zm0,6.2v5.9h3.6v-5.9Zm0,6.4v.2l1.8,2.7-1.8,2.5v.4h3.6v-5.8Zm1-30c-.4,1.8-.6,2.8-.6,2.9s.3.1.5.4l1.9-1.9C754.2,247.3,753.6,246.9,753.1,246.9Zm.1,3.8c.1.3.2.4.3.4h2.2a8.5,8.5,0,0,0-.6-2.3H755C753.8,249.8,753.2,250.5,753.2,250.7Zm.9-7.8-.8,3.4q.6,0,1.8,1.8a18.4,18.4,0,0,1,2.1-1.9h0a2.8,2.8,0,0,1-2.8-2.2,2.4,2.4,0,0,1-.2-1Zm.5-1.8a8.9,8.9,0,0,0-.2,1.1v.2c.3,2.2,1,3.3,2.4,3.3a2.1,2.1,0,0,0,1.8-1.2h0A9.4,9.4,0,0,0,754.6,241.1Zm.7,7.4c.2,0,.5.9.7,2.6h3.2a3.5,3.5,0,0,1-1.7-3.4c0-.2.1-.7.2-1.5A24,24,0,0,0,755.3,248.5Zm.7,3.2v3.1c.1-.1.9-1.1,2.3-3.1Zm0,3.4v5.8l2.2-2.9Zm0,6.1V267a30.4,30.4,0,0,0,2.2-2.9Zm0,6.2v5.7a19.4,19.4,0,0,0,2.2-2.9Zm0,6.1v5.8a26.5,26.5,0,0,0,2.2-3Zm0,6.1v3.1h2.3A36.5,36.5,0,0,0,756,279.6Zm2.4-27.4-2,2.8a17,17,0,0,0,2,2.7l2-2.7h0Zm0,6.1a11.3,11.3,0,0,0-2,2.9l2,2.6,2-2.7h0A32.2,32.2,0,0,0,758.4,258.3Zm-2,8.8v.2l2,2.7,2.1-2.9-2.1-2.7A15.7,15.7,0,0,0,756.4,267.1Zm0,6.2a20,20,0,0,0,1.9,2.7h.1l2.1-2.8-2.1-2.8A14.6,14.6,0,0,0,756.4,273.3Zm0,6.1a20.2,20.2,0,0,0,2,2.8l2.1-2.8-2.1-2.7A15.7,15.7,0,0,0,756.4,279.4Zm1.4-32v.7c.4,1.8,1.1,2.8,2.1,2.8h.8A11.4,11.4,0,0,0,759,245h-.1A3.4,3.4,0,0,0,757.8,247.4Zm.6,4.3,2.3,3.1v-3.1Zm0,31h2.3v-3.1C760.6,279.7,759.8,280.7,758.4,282.7Zm.2-24.6,2.1,2.8v-5.7A23.4,23.4,0,0,0,758.6,258.1Zm2,3.1a17.3,17.3,0,0,1-2,2.9h0a31.8,31.8,0,0,0,2.1,2.8v-5.8Zm-2,9h0l2.1,2.8v-5.7A17.5,17.5,0,0,0,758.6,270.2Zm0,6.1v.3a13.1,13.1,0,0,1,2,2.5v.2h.1v-5.8A17.5,17.5,0,0,0,758.6,276.3Zm-15.7,6.4v3a27.3,27.3,0,0,0,2.3-3m-2.3,3.4v5.7a13.6,13.6,0,0,0,2.2-2.9Zm0,6.1V298a16.8,16.8,0,0,0,2.2-3Zm0,6.1v5.8a16.8,16.8,0,0,0,2.2-3Zm0,6.1v5.8a18.1,18.1,0,0,0,2.2-2.9Zm0,6.2v3h2.3A17.9,17.9,0,0,0,742.9,310.6Zm2.4-27.5-2,2.8a17.3,17.3,0,0,0,2,2.8,14.6,14.6,0,0,0,2-2.8A17.3,17.3,0,0,0,745.3,283.1Zm0,6.1-2,2.9,2,2.7a15.7,15.7,0,0,0,2-2.7h0A17.3,17.3,0,0,0,745.3,289.2Zm-2,8.9h0a32.2,32.2,0,0,0,2,2.7,17.5,17.5,0,0,0,2.1-2.8l-2.1-2.7A27,27,0,0,0,743.3,298.1Zm0,6.1a31.8,31.8,0,0,0,2.1,2.8l2-2.8-2.1-2.7A27,27,0,0,0,743.3,304.2Zm0,6.1a20.3,20.3,0,0,0,2.1,2.8l2-2.8-2.1-2.7A27,27,0,0,0,743.3,310.3Zm2.1-27.6c0,.1.8,1.1,2.3,3v-3m-2.3,30.9h2.3v-3C747.5,310.6,746.8,311.7,745.4,313.6Zm2.2-27.5a10.4,10.4,0,0,1-1.8,2.4l-.2.5a20.3,20.3,0,0,0,2.1,2.8v-5.7Zm-2,8.9h0a24.6,24.6,0,0,0,2.1,2.9v-5.8A17.5,17.5,0,0,0,745.6,295Zm0,6.1v.2l2.1,2.8v-5.8A26.8,26.8,0,0,0,745.6,301.1Zm0,6.2a20.7,20.7,0,0,1,2,2.9h.1v-5.8A23.4,23.4,0,0,0,745.6,307.3Zm2.4-24.6v5.8h3.6v-.4l-1.8-2.5h0l1.8-2.5v-.3M748,289v5.8h3.6V289Zm0,6.3V301h3.6v-.3l-1.9-2.6,1.9-2.6v-.2Zm0,6.2v5.9h3.6v-5.9Zm0,6.3v5.8h3.6v-.3l-1.9-2.6,1.9-2.6v-.3Zm2.2-22.3h0a12.4,12.4,0,0,0,1.6,2.1,25.3,25.3,0,0,0,1.6-2.2l-1.6-2.1A13.7,13.7,0,0,0,750.2,285.5Zm0,12.6,1.7,2.2,1.5-2.2-1.6-2.1A13.7,13.7,0,0,0,750.2,298.1Zm0,12.6a12.4,12.4,0,0,0,1.6,2.1,20.9,20.9,0,0,0,1.5-2.1,15.2,15.2,0,0,0-1.5-2.1A13.7,13.7,0,0,0,750.2,310.7Zm1.8-28v.3l1.8,2.6-1.8,2.6v.3h3.5v-5.8M752,289v5.8h3.5V289Zm0,6.3v.2l1.8,2.6-1.8,2.6v.3h3.5v-5.7Zm0,6.2v5.9h3.5v-5.9Zm0,6.3v.3l1.8,2.6-1.8,2.6v.3h3.5v-5.8Zm3.9-25.1v3l2.3-3m-2.3,3.4v5.7c1.4-1.8,2.2-2.8,2.2-2.9Zm0,6.1V298a26.5,26.5,0,0,0,2.2-3Zm0,6.1v5.8a26.5,26.5,0,0,0,2.2-3Zm0,6.1v5.8a30.4,30.4,0,0,0,2.2-2.9Zm0,6.2v3h2.3Zm2.3-27.5-2,2.8a17.3,17.3,0,0,0,2,2.8,14.6,14.6,0,0,0,2-2.8h0A17,17,0,0,0,758.2,283.1Zm0,6.1a18.3,18.3,0,0,0-2,3l2,2.6a15.7,15.7,0,0,0,2-2.7h0A11.9,11.9,0,0,0,758.2,289.2Zm-2,8.9h0a32.2,32.2,0,0,0,2,2.7,17.5,17.5,0,0,0,2.1-2.8l-2.1-2.7A27,27,0,0,0,756.2,298.1Zm0,6.1a14.7,14.7,0,0,0,2,2.7h0a17.5,17.5,0,0,0,2.1-2.8l-2.1-2.7A27,27,0,0,0,756.2,304.2Zm0,6.1a20.3,20.3,0,0,0,2.1,2.8l2-2.8-2.1-2.7A27,27,0,0,0,756.2,310.3Zm2.1-27.6,2.3,3v-3m-2.3,30.9h2.3v-3A30.4,30.4,0,0,0,758.3,313.6Zm.2-24.6a31.8,31.8,0,0,0,2.1,2.8v-5.6A17.5,17.5,0,0,0,758.5,289Zm2,3.2c0,.1-.7,1-2,2.8h0a24.6,24.6,0,0,0,2.1,2.9v-5.8Zm-2,8.9v.2l2.1,2.8v-5.8A26.8,26.8,0,0,0,758.5,301.1Zm0,6.2v.2a17.2,17.2,0,0,1,2,2.6h.1v-5.8A23.4,23.4,0,0,0,758.5,307.3Z" transform="translate(-613.1 -240.6)"/></svg>