<svg xmlns="http://www.w3.org/2000/svg" width="21.627" height="24.974" viewBox="0 0 21.627 24.974">
  <g id="document-_1_" transform="translate(-39 512)">
    <path id="Path_11149" data-name="Path 11149" d="M39-499.967v12.038l.12.249a1.165,1.165,0,0,0,.666.585c.155.054,1.731.063,8.767.068,8.147,0,8.572,0,8.532-.088-.02-.044-.075-.224-.125-.4-.085-.3-.09-.961-.09-12.4L56.865-512H39Zm12.065-8c1.676.98,3.048,1.79,3.048,1.8,0,.039-.711,1.19-.746,1.215a1.568,1.568,0,0,1-.4-.2c-.2-.117-.375-.215-.385-.215s-.025,1.054-.025,2.341v2.341H43.3v-2.341c0-1.288-.015-2.341-.03-2.341a3.238,3.238,0,0,0-.405.219,2.338,2.338,0,0,1-.39.21c-.01-.01-.185-.288-.39-.624-.255-.415-.36-.619-.32-.644s1.421-.834,3.088-1.815,3.058-1.766,3.093-1.756S49.389-508.951,51.065-507.971Zm3.5,10.36v.732l-6.641-.01-6.646-.015-.015-.722-.015-.717H54.563Zm0,3.756v.732H41.252v-1.463H54.563Zm0,3.8v.732l-6.641-.01-6.646-.015-.015-.722-.015-.717H54.563Z" fill="#bac1cc"/>
    <path id="Path_11150" data-name="Path 11150" d="M156.5-430.994l-1.5.907v4.131h2.292v-2.1h1.463v2.1H161.1v-4.122l-1.527-.917c-.839-.5-1.536-.912-1.546-.907S157.327-431.491,156.5-430.994Z" transform="translate(-110.17 -76.192)" fill="#bac1cc"/>
    <path id="Path_11151" data-name="Path 11151" d="M426.01-122.351l.015,2.653.146.239a1.319,1.319,0,0,0,.385.385.871.871,0,0,0,.59.146.871.871,0,0,0,.59-.146,1.318,1.318,0,0,0,.385-.385l.146-.239.015-2.653.01-2.649H426Z" transform="translate(-367.666 -368.123)" fill="#354a5f"/>
  </g>
</svg>
