<svg xmlns="http://www.w3.org/2000/svg" width="22.799" height="23.999" viewBox="0 0 22.799 23.999">
  <g id="Group_5933" data-name="Group 5933" transform="translate(-1366.08 -701.979)">
    <g id="Setting" transform="translate(1366.08 701.979)">
      <path id="Path" d="M22.475,14.844a2.762,2.762,0,0,0-.993-.948,1.856,1.856,0,0,1-.76-.768,2.186,2.186,0,0,1,.785-3,2.433,2.433,0,0,0,.907-3.4l-.822-1.416A2.535,2.535,0,0,0,18.147,4.4a2.368,2.368,0,0,1-3.09-.828,1.855,1.855,0,0,1-.282-1.056,2.134,2.134,0,0,0-.331-1.272A2.583,2.583,0,0,0,12.26,0H10.531A2.633,2.633,0,0,0,8.361,1.248,2.142,2.142,0,0,0,8.017,2.52a1.855,1.855,0,0,1-.282,1.056A2.356,2.356,0,0,1,4.657,4.4,2.549,2.549,0,0,0,1.2,5.316L.377,6.732a2.453,2.453,0,0,0,.907,3.4,2.2,2.2,0,0,1,.8,3,1.961,1.961,0,0,1-.773.768,2.542,2.542,0,0,0-.981.948A2.394,2.394,0,0,0,.353,17.3l.846,1.44a2.56,2.56,0,0,0,2.183,1.248,2.593,2.593,0,0,0,1.3-.36,1.9,1.9,0,0,1,1.079-.276,2.271,2.271,0,0,1,2.256,2.184A2.484,2.484,0,0,0,10.568,24h1.668a2.481,2.481,0,0,0,2.538-2.46,2.29,2.29,0,0,1,2.269-2.184,1.956,1.956,0,0,1,1.079.276,2.517,2.517,0,0,0,3.47-.888l.858-1.44a2.422,2.422,0,0,0,.025-2.46" transform="translate(0)" fill="#bac1cc"/>
    </g>
    <path id="Path-2" data-name="Path" d="M3.483,6.78A3.424,3.424,0,0,1,0,3.4,3.434,3.434,0,0,1,3.483,0a3.39,3.39,0,1,1,0,6.78" transform="translate(1374.012 710.595)" fill="#354a5f"/>
  </g>
</svg>
