<svg xmlns="http://www.w3.org/2000/svg" width="23.483" height="24.854" viewBox="0 0 23.483 24.854">
  <g id="house-deeds" transform="translate(-28 497)">
    <path id="Path_11152" data-name="Path 11152" d="M28.748-496.917a1.253,1.253,0,0,0-.65.614c-.093.2-.1.614-.1,11.731s.005,11.53.1,11.731a1.545,1.545,0,0,0,.268.371c.361.345-.031.325,6.946.325h6.317l-.407-.247c-.227-.134-.557-.356-.732-.49a8.909,8.909,0,0,1-1.2-1.176c0-.026-2.13-.046-4.739-.046-4.713,0-4.734,0-4.873-.108a.4.4,0,0,1-.036-.567l.1-.124,4.46-.015,4.46-.01-.186-.345a8.019,8.019,0,0,1-.645-1.707l-.113-.474H29.8l-.124-.129a.4.4,0,0,1-.031-.547l.1-.124,3.95-.016,3.95-.01v-.557a7.242,7.242,0,0,1,.232-1.748l.067-.222H29.8l-.124-.129a.4.4,0,0,1-.031-.547l.1-.124,4.249-.016,4.249-.01.155-.325a8.636,8.636,0,0,1,1.232-1.779l.4-.423H29.8l-.124-.129a.4.4,0,0,1-.031-.547l.1-.124,5.693-.016,5.688-.01.567-.284a7.381,7.381,0,0,1,2.98-.779l.6-.036v-5.4H43.031c-2.145,0-2.253-.005-2.527-.108a1.663,1.663,0,0,1-.9-.9c-.1-.273-.108-.387-.108-2.4V-497l-5.27.005A53.307,53.307,0,0,0,28.748-496.917Zm8.967,1.985a.4.4,0,0,1-.186.691c-.067.015-1.846.021-3.95.015l-3.836-.015-.1-.124a.4.4,0,0,1,.036-.567c.134-.108.17-.108,4.017-.108S37.581-495.041,37.715-494.932Zm.005,3.372a.4.4,0,0,1,.031.547l-.1.124h-7.91l-.1-.124a.4.4,0,0,1,.036-.567c.134-.108.17-.108,4.027-.108H37.6Zm5.909,3.372a.407.407,0,0,1-.227.65c-.062.016-3.161.021-6.884.016l-6.776-.016-.1-.124a.4.4,0,0,1,.031-.552l.124-.124,6.868.01,6.863.016Z" fill="#bac1cc"/>
    <path id="Path_11153" data-name="Path 11153" d="M266-493.817c0,1.975,0,2.006.119,2.233a.855.855,0,0,0,.294.335c.17.1.278.1,2.362.119,1.253.01,2.176-.005,2.166-.031-.021-.057-4.832-4.62-4.893-4.641A19.385,19.385,0,0,0,266-493.817Z" transform="translate(-225.728 -1.136)" fill="#bac1cc"/>
    <path id="Path_11154" data-name="Path 11154" d="M236.318-268.822a6.572,6.572,0,0,0-3.816,1.892,6.3,6.3,0,0,0-1.9,4.594,5.767,5.767,0,0,0,.289,1.985,6.481,6.481,0,0,0,1.614,2.656,6.526,6.526,0,0,0,6.724,1.578,6.61,6.61,0,0,0,4.321-4.9,5.936,5.936,0,0,0,.088-1.366,4.585,4.585,0,0,0-.165-1.547,6.6,6.6,0,0,0-5.265-4.842A9.278,9.278,0,0,0,236.318-268.822Zm2.491,4.2c2,1.831,2.021,1.856,2.021,2.057a.394.394,0,0,1-.443.4l-.175-.031v1.727c0,1.655-.005,1.727-.1,1.825s-.17.1-.949.1h-.851l-.015-1.238-.015-1.237-.144-.139c-.139-.144-.144-.144-.969-.16a3.637,3.637,0,0,0-.985.046c-.289.119-.3.165-.3,1.5v1.227h-.81c-.758,0-.815-.005-.928-.113l-.119-.108v-3.388l-.124.031a.413.413,0,0,1-.474-.505c.015-.067.794-.866,1.727-1.784,1.6-1.562,1.712-1.66,1.887-1.66S237.35-265.965,238.809-264.625Z" transform="translate(-192.153 -216.385)" fill="#354a5f"/>
  </g>
</svg>
