<svg xmlns="http://www.w3.org/2000/svg" width="24.159" height="24.134" viewBox="0 0 24.159 24.134">
  <g id="invoice" transform="translate(-21.128 490.664)">
    <path id="Path_11136" data-name="Path 11136" d="M93.178-490.635a2.644,2.644,0,0,0-.3.129l-.175.093.432.216a4.019,4.019,0,0,1,1.317.972,4.236,4.236,0,0,1,1.049,1.913c.093.345.1.8.1,10.06,0,8.347.01,9.73.072,9.946a1.092,1.092,0,0,0,1.563.638c.093-.051.874-.7,1.733-1.435s1.574-1.337,1.589-1.337.756.617,1.641,1.378,1.687,1.409,1.785,1.45a1.17,1.17,0,0,0,.885-.031c.1-.051.89-.694,1.743-1.43s1.584-1.332,1.62-1.337.751.586,1.594,1.306,1.61,1.363,1.707,1.425a1.091,1.091,0,0,0,1.6-.71c.041-.206.051-2.721.041-9.9l-.015-9.617-.118-.422a4.423,4.423,0,0,0-3.214-3.214l-.422-.113-8.049-.01C96.927-490.671,93.25-490.655,93.178-490.635Zm15.084,4.531a1.56,1.56,0,0,1,.334.329.8.8,0,0,1,.139.6.8.8,0,0,1-.139.6,1.56,1.56,0,0,1-.334.329l-.19.129h-7.365l-.19-.129a1.56,1.56,0,0,1-.334-.329.811.811,0,0,1-.139-.6.8.8,0,0,1,.154-.617,1.4,1.4,0,0,1,.381-.339l.231-.118,3.631.01,3.631.015Zm-.144,4.315a1.1,1.1,0,0,1,.077,1.959l-.231.129H104.39c-3.559,0-3.574,0-3.78-.113a1.046,1.046,0,0,1-.591-.993,1.049,1.049,0,0,1,.345-.782c.319-.3.185-.293,4.027-.293C107.686-481.887,107.928-481.876,108.118-481.789Zm.051,4.413a1.038,1.038,0,0,1,.591.967,1.1,1.1,0,0,1-.643,1.008c-.2.087-.411.1-3.718.1a22.156,22.156,0,0,1-3.7-.082,1.1,1.1,0,0,1-.679-1,1.069,1.069,0,0,1,.823-1.085c.072-.021,1.7-.036,3.626-.031C107.938-477.489,107.964-477.489,108.17-477.376Z" transform="translate(-67.891)" fill="#bac1cc"/>
    <path id="Path_11137" data-name="Path 11137" d="M22.623-451.763a2.233,2.233,0,0,0-1.45,1.682c-.041.221-.051,1.5-.041,4.449.015,4.125.015,4.14.129,4.346a1.048,1.048,0,0,0,.54.514,8.549,8.549,0,0,0,1.97.077h1.774v-4.577c0-3.189-.015-4.654-.057-4.845a2.269,2.269,0,0,0-1.214-1.543,1.591,1.591,0,0,0-.859-.185A2.027,2.027,0,0,0,22.623-451.763Z" transform="translate(0 -36.819)" fill="#354a5f"/>
  </g>
</svg>
