<svg width="508" height="391" viewBox="0 0 508 391" fill="none" xmlns="http://www.w3.org/2000/svg">
<g style="mix-blend-mode:multiply">
<path d="M442.786 80.8551C442.704 80.2871 442.509 79.7413 442.213 79.2498C441.917 78.7582 441.526 78.3308 441.062 77.9927C440.337 77.4619 439.461 77.1781 438.563 77.1833H91.4761C90.3837 77.2317 89.3524 77.7008 88.5981 78.4923C87.8437 79.2839 87.4247 80.3365 87.4289 81.4299V138.678C87.4311 138.962 87.4625 139.245 87.5227 139.522C87.5185 139.573 87.5185 139.624 87.5227 139.675C87.5728 139.878 87.6355 140.078 87.7104 140.273C87.7104 140.367 87.8042 140.449 87.8394 140.543C87.9086 140.688 87.987 140.829 88.0741 140.965L88.2735 141.247C88.2735 141.317 88.3791 141.399 88.4377 141.458C88.466 141.492 88.4974 141.523 88.5316 141.552C88.6606 141.692 88.7897 141.81 88.9304 141.939L89.165 142.126C89.3303 142.239 89.5027 142.341 89.6812 142.431L89.9158 142.56C90.1403 142.656 90.3716 142.735 90.608 142.795H90.737C91.0418 142.86 91.3522 142.895 91.6638 142.901H107.383V183.256H91.4761C90.3816 183.307 89.349 183.778 88.5931 184.571C87.8371 185.364 87.4159 186.418 87.4171 187.514V202.764C87.4171 203.897 87.867 204.983 88.6678 205.784C89.4686 206.585 90.5547 207.034 91.6872 207.034H107.383V245.313H98.7024V250.744H132.406V245.313H117.801V207.046H413.025V245.325H403.992V250.756H437.683V245.325H423.465V207.046H438.575C439.707 207.046 440.793 206.596 441.594 205.795C442.395 204.995 442.845 203.909 442.845 202.776V187.526C442.849 186.996 442.753 186.471 442.563 185.977C442.259 185.221 441.751 184.563 441.097 184.077C440.366 183.54 439.482 183.252 438.575 183.256H423.465V142.959H438.575C439.271 142.956 439.956 142.782 440.57 142.453C441.183 142.124 441.707 141.649 442.094 141.071C442.222 140.882 442.332 140.681 442.423 140.472L442.493 140.355C442.71 139.826 442.822 139.261 442.822 138.689V81.4416C442.822 81.2456 442.81 81.0497 442.786 80.8551ZM395.604 183.256H117.801V142.959H413.025V183.256H395.604Z" fill="#D1D3D4"/>
</g>
<path d="M119.444 78.8253H109.027V252.398H119.444V78.8253Z" fill="#5F5F5F"/>
<path d="M119.445 78.8253H114.236V252.398H119.445V78.8253Z" fill="#474747"/>
<path d="M425.086 78.8253H414.669V252.398H425.086V78.8253Z" fill="#5F5F5F"/>
<path d="M425.086 78.8253H419.877V252.398H425.086V78.8253Z" fill="#474747"/>
<path d="M444.465 83.0838V140.331C444.466 140.891 444.357 141.446 444.144 141.963C443.93 142.48 443.617 142.95 443.221 143.346C442.825 143.742 442.355 144.055 441.838 144.269C441.32 144.482 440.766 144.591 440.206 144.59H93.3539C92.2306 144.581 91.1565 144.128 90.3655 143.33C89.5745 142.533 89.1307 141.455 89.1307 140.331V83.0838C89.1292 81.9982 89.5447 80.9535 90.2913 80.1654C91.0379 79.3773 92.0587 78.906 93.1428 78.8489H440.206C441.104 78.8471 441.979 79.1305 442.705 79.6583C443.169 79.996 443.561 80.4232 443.857 80.9149C444.153 81.4065 444.348 81.9526 444.43 82.5207C444.452 82.7076 444.463 82.8956 444.465 83.0838Z" fill="#FFD150"/>
<g style="mix-blend-mode:multiply">
<path d="M351.498 130.84C263.843 134.489 176.623 131.439 89.0971 132.788V140.343C89.0971 141.472 89.5458 142.555 90.3444 143.354C91.143 144.152 92.2261 144.601 93.3555 144.601H440.208C441.337 144.601 442.42 144.152 443.219 143.354C444.018 142.555 444.466 141.472 444.466 140.343V102.956C434.237 110.675 421.462 115.86 409.965 119.872C391.015 125.974 371.371 129.66 351.498 130.84Z" fill="#D1D3D4"/>
</g>
<path d="M123.362 78.8489L90.1277 143.123C89.4537 142.349 89.0829 141.358 89.0836 140.331V113.35L106.973 78.8489H123.362Z" fill="#414042"/>
<path d="M159.248 78.8253L125.252 144.601H108.863L142.848 78.8253H159.248Z" fill="#414042"/>
<path d="M195.134 78.8253L161.137 144.601H144.749L178.734 78.8253H195.134Z" fill="#414042"/>
<path d="M231.019 78.8253L197.022 144.601H180.634L214.619 78.8253H231.019Z" fill="#414042"/>
<path d="M266.904 78.8253L232.907 144.601H216.519L250.504 78.8253H266.904Z" fill="#414042"/>
<path d="M302.789 78.8253L268.793 144.601H252.404L286.389 78.8253H302.789Z" fill="#414042"/>
<path d="M338.674 78.8253L304.678 144.601H288.278L322.274 78.8253H338.674Z" fill="#414042"/>
<path d="M374.559 78.8253L340.563 144.601H324.163L358.159 78.8253H374.559Z" fill="#414042"/>
<path d="M410.445 78.8253L376.448 144.601H360.048L394.045 78.8253H410.445Z" fill="#414042"/>
<path d="M444.429 82.4979L412.333 144.543H395.91L429.93 78.7791H440.206C441.104 78.7773 441.979 79.0607 442.705 79.5886C443.174 79.9315 443.569 80.3662 443.866 80.8663C444.162 81.3664 444.354 81.9214 444.429 82.4979Z" fill="#414042"/>
<path d="M444.465 120.118V140.331C444.466 140.89 444.357 141.445 444.144 141.962C443.93 142.479 443.617 142.949 443.221 143.345C442.825 143.741 442.355 144.055 441.838 144.268C441.32 144.481 440.766 144.591 440.206 144.589H431.83L444.465 120.118Z" fill="#414042"/>
<path d="M444.464 189.203V204.453C444.466 205.013 444.357 205.568 444.143 206.086C443.93 206.604 443.617 207.075 443.221 207.472C442.825 207.869 442.355 208.183 441.838 208.398C441.321 208.613 440.766 208.723 440.206 208.723H93.3532C92.789 208.719 92.2313 208.602 91.7125 208.38C91.1937 208.158 90.7243 207.836 90.3313 207.431C89.9384 207.026 89.6298 206.547 89.4236 206.021C89.2174 205.496 89.1176 204.935 89.1301 204.371V189.121C89.1258 188.026 89.5444 186.972 90.2985 186.179C91.0526 185.385 92.0839 184.914 93.1773 184.862H440.206C441.111 184.86 441.992 185.152 442.716 185.695C443.262 186.086 443.706 186.602 444.011 187.2C444.315 187.798 444.47 188.461 444.464 189.132V189.203Z" fill="#FFD150"/>
<path d="M107.244 184.932L94.9967 208.687H93.3543C92.7931 208.683 92.2383 208.567 91.7219 208.348C91.2055 208.128 90.7376 207.808 90.3451 207.407C89.9526 207.006 89.6433 206.531 89.435 206.01C89.2267 205.489 89.1234 204.932 89.1311 204.37V197.472L95.6302 184.885L107.244 184.932Z" fill="#414042"/>
<path d="M131.423 184.945L119.14 208.688H107.491L119.762 184.945H131.423Z" fill="#414042"/>
<path d="M155.577 184.945L143.306 208.688H131.657L143.928 184.945H155.577Z" fill="#414042"/>
<path d="M179.742 184.945L167.471 208.688H155.823L168.093 184.945H179.742Z" fill="#414042"/>
<path d="M203.908 184.945L191.637 208.688H179.988L192.259 184.945H203.908Z" fill="#414042"/>
<path d="M228.085 184.945L215.814 208.688H204.154L216.424 184.945H228.085Z" fill="#414042"/>
<path d="M252.252 184.945L239.982 208.688H228.333L240.603 184.945H252.252Z" fill="#414042"/>
<path d="M276.418 184.945L264.147 208.688H252.498L264.769 184.945H276.418Z" fill="#414042"/>
<path d="M300.584 184.945L288.313 208.688H276.652L288.923 184.945H300.584Z" fill="#414042"/>
<path d="M324.749 184.945L312.479 208.688H300.818L313.1 184.945H324.749Z" fill="#414042"/>
<path d="M348.917 184.945L336.646 208.688H324.997L337.268 184.945H348.917Z" fill="#414042"/>
<path d="M373.082 184.945L360.812 208.688H349.163L361.433 184.945H373.082Z" fill="#414042"/>
<path d="M397.248 184.945L384.977 208.688H373.328L385.599 184.945H397.248Z" fill="#414042"/>
<path d="M421.414 184.945L409.143 208.688H397.494L409.765 184.945H421.414Z" fill="#414042"/>
<path d="M444.183 187.654L433.308 208.688H421.659L433.942 184.932H440.206C441.111 184.93 441.993 185.222 442.717 185.765C443.376 186.241 443.885 186.897 444.183 187.654Z" fill="#414042"/>
<path d="M134.051 246.966H100.347V252.397H134.051V246.966Z" fill="#474747"/>
<path d="M439.338 246.966H405.635V252.397H439.338V246.966Z" fill="#474747"/>
<g style="mix-blend-mode:multiply">
<path d="M84.8489 258.615H77.6226L74.2088 245.172C73.8569 243.823 73.5167 242.473 73.329 241.734L73.0357 240.561C72.8363 239.787 72.5313 238.567 72.2146 237.347L69.9387 228.361C69.493 226.625 68.7656 223.786 68.3316 222.05L67.4869 218.718C67.0529 216.982 66.5719 215.093 66.4312 214.53L65.6686 211.41L63.8855 204.371L63.0761 201.215L58.4892 183.126C58.2266 182.244 57.6956 181.467 56.9701 180.901C56.2447 180.335 55.361 180.01 54.442 179.97H41.7255C40.806 180.008 39.9215 180.333 39.1957 180.899C38.47 181.465 37.9394 182.244 37.6783 183.126L33.0915 201.215C32.6574 202.952 31.9184 205.79 31.496 207.527L30.7804 210.319C30.6279 210.94 30.4754 211.562 30.3229 212.149L29.9945 213.474L29.666 214.765C29.4666 215.527 29.056 217.17 28.6688 218.695L27.8242 222.026C27.3784 223.762 26.6511 226.601 26.2171 228.338L25.2551 232.174L23.1435 240.467L22.7681 241.981L21.9587 245.136L18.5567 258.58H11.3421C10.9128 258.58 10.4878 258.665 10.0913 258.83C9.69489 258.994 9.33485 259.235 9.03186 259.54C8.72887 259.844 8.4889 260.205 8.3257 260.602C8.1625 260.999 8.07928 261.424 8.08083 261.853V266.839C8.0629 267.003 8.0629 267.168 8.08083 267.332H8.18641C8.21138 267.512 8.25462 267.688 8.31545 267.86C8.31658 267.879 8.31658 267.899 8.31545 267.918C8.31545 268.071 8.44449 268.223 8.51488 268.364V268.47C8.58902 268.592 8.67133 268.71 8.76123 268.821L8.86681 268.962L9.13662 269.232L9.32432 269.385L9.59413 269.584C9.67764 269.635 9.76379 269.682 9.85222 269.725L10.1103 269.854L10.474 269.971H10.6969C10.902 270.009 11.11 270.028 11.3186 270.03H84.8489C85.7098 270.027 86.5345 269.683 87.1433 269.075C87.752 268.466 88.0953 267.641 88.0984 266.78V261.853C88.0923 260.994 87.7475 260.173 87.1391 259.566C86.5307 258.96 85.7078 258.619 84.8489 258.615Z" fill="#D1D3D4"/>
</g>
<path d="M79.1111 260.176C79.2324 260.551 79.2602 260.949 79.192 261.338C79.1239 261.726 78.9619 262.091 78.7202 262.402C78.4784 262.713 78.1643 262.961 77.8051 263.123C77.4459 263.285 77.0526 263.356 76.6593 263.331H22.4501C22.056 263.359 21.6612 263.289 21.3005 263.128C20.9398 262.967 20.6243 262.72 20.3819 262.408C20.1396 262.096 19.9778 261.729 19.9109 261.34C19.8439 260.95 19.874 260.551 19.9983 260.176L23.4355 246.603L24.4326 242.696L25.418 238.778L27.6938 229.804C28.1396 228.068 28.867 225.229 29.301 223.493L30.1456 220.161C30.5797 218.425 31.0607 216.536 31.2014 215.973C31.3422 215.41 31.8232 213.521 32.2572 211.785L32.9728 208.981C33.4186 207.257 34.1459 204.418 34.5682 202.682L39.1551 184.592C39.4162 183.71 39.9468 182.931 40.6725 182.365C41.3983 181.8 42.2828 181.475 43.2023 181.437H55.8719C56.7929 181.474 57.6793 181.798 58.407 182.364C59.1347 182.93 59.6675 183.709 59.9308 184.592L64.4942 202.717C64.94 204.453 65.6673 207.292 66.1014 209.017L66.817 211.82C67.251 213.556 67.732 215.433 67.8728 216.008C68.0135 216.583 68.5062 218.46 68.9403 220.196L69.7849 223.528C70.2307 225.264 70.958 228.103 71.3921 229.839L73.6679 238.813C74.1137 240.55 74.5595 242.333 74.665 242.732C74.7706 243.13 75.2164 244.902 75.6505 246.638L79.1111 260.176Z" fill="#FCCC2D"/>
<path d="M74.8662 243.482H24.2232L24.6103 241.969L28.4933 226.683H70.5961L74.4791 241.969L74.8662 243.482Z" fill="white"/>
<path d="M68.1574 217.041H30.9348L31.4509 214.976L33.7619 205.873H65.3185L67.6295 214.976L68.1574 217.041Z" fill="white"/>
<g style="mix-blend-mode:multiply">
<path d="M79.1111 260.175L75.6622 246.602C75.2281 244.866 74.7823 243.083 74.6768 242.696C74.5712 242.309 74.1254 240.514 73.6796 238.778L71.4038 229.803C70.958 228.067 70.2307 225.228 69.7966 223.492L68.952 220.16C68.518 218.424 68.037 216.535 67.8845 215.972C67.732 215.409 67.2627 213.521 66.8287 211.784L66.1131 209.063C65.6673 207.338 64.94 204.499 64.5059 202.763L59.9191 184.627C59.6558 183.743 59.123 182.964 58.3953 182.399C57.6675 181.833 56.7812 181.509 55.8601 181.471H54.8982C62.8636 180.662 63.3563 233.24 42.78 249.511C36.2223 254.755 28.4798 257.066 20.5614 258.016L19.9983 260.234C19.874 260.609 19.8439 261.008 19.9109 261.398C19.9778 261.787 20.1396 262.154 20.3819 262.466C20.6243 262.778 20.9398 263.025 21.3005 263.186C21.6612 263.347 22.056 263.417 22.4501 263.389H76.6593C77.0594 263.418 77.4603 263.347 77.8259 263.182C78.1915 263.017 78.5103 262.763 78.7536 262.444C78.9968 262.126 79.1569 261.751 79.2193 261.355C79.2817 260.959 79.2445 260.553 79.1111 260.175Z" fill="#D1D3D4"/>
</g>
<g style="mix-blend-mode:multiply">
<path d="M56.8709 183.513C56.8709 183.202 56.7473 182.903 56.5273 182.683C56.3073 182.463 56.0089 182.34 55.6978 182.34H43.3801C43.069 182.34 42.7706 182.463 42.5506 182.683C42.3306 182.903 42.207 183.202 42.207 183.513C42.207 183.824 42.3306 184.122 42.5506 184.342C42.7706 184.562 43.069 184.686 43.3801 184.686H55.7329C56.0441 184.686 56.3425 184.562 56.5625 184.342C56.7825 184.122 56.9061 183.824 56.9061 183.513H56.8709Z" fill="#D1D3D4"/>
</g>
<path d="M86.3037 260.082H12.7968C11.0022 260.082 9.5473 261.537 9.5473 263.331V268.329C9.5473 270.123 11.0022 271.578 12.7968 271.578H86.3037C88.0983 271.578 89.5532 270.123 89.5532 268.329V263.331C89.5532 261.537 88.0983 260.082 86.3037 260.082Z" fill="#FCCC2D"/>
<g style="mix-blend-mode:multiply">
<path d="M86.3038 260.082H86.21C86.949 262.921 86.3038 265.103 84.4151 266.37C77.9044 270.698 34.4408 269.209 9.59436 268.81C9.71442 269.577 10.104 270.275 10.6932 270.781C11.2824 271.286 12.0325 271.565 12.8087 271.567H86.3038C87.1667 271.567 87.9945 271.225 88.6057 270.615C89.217 270.006 89.562 269.18 89.5651 268.317V263.331C89.562 262.468 89.217 261.642 88.6057 261.033C87.9945 260.424 87.1667 260.082 86.3038 260.082Z" fill="#D1D3D4"/>
</g>
<path d="M349.339 348.534L301.628 339.536L312.186 353.613L241.014 349.894L250.798 365.145L148.409 355.478H148.386L124.489 353.226L128.396 343.055L103.373 340.709L120.184 333.67L72.4855 314.115L148.737 310.208L130.742 299.263L172.587 305.129L164.375 290.653L198.782 293.398L233.975 280.095L233.201 291.826L353.632 294.172L309.054 318.42L335.649 324.673L315.319 331.711L349.339 348.534Z" fill="#414042"/>
<path d="M172.587 305.129L130.742 299.263L148.737 310.208L148.374 355.478L172.587 357.766V305.129Z" fill="#474647"/>
<path d="M148.737 310.208L148.409 355.478H148.386L124.489 353.226L128.396 343.055L103.373 340.709L120.184 333.67L72.4855 314.115L148.737 310.208Z" fill="#515151"/>
<path d="M103.536 340.638L120.159 333.67V342.281L103.536 340.638Z" fill="#686868"/>
<path d="M128.371 343.056V353.59L124.464 353.226L128.371 343.056Z" fill="#686868"/>
<path d="M240.989 349.895V364.23L250.773 365.145L240.989 349.895Z" fill="#686868"/>
<path d="M301.603 339.536V352.968L312.161 353.613L301.603 339.536Z" fill="#686868"/>
<path d="M315.507 331.735V342.153L349.316 348.534L315.507 331.735Z" fill="#686868"/>
<path d="M309.03 318.42V340.932L315.505 342.152V331.735L335.624 324.684L309.03 318.42Z" fill="#565656"/>
<mask id="mask0_804_13680" style="mask-type:luminance" maskUnits="userSpaceOnUse" x="19" y="77" width="335" height="289">
<path d="M169.43 91.6476L127.586 85.782L19.8593 122.137L72.4614 314.115L120.16 333.671L103.349 340.71L128.372 343.056L124.465 353.227L250.774 365.146L240.99 349.895L312.162 353.614L301.604 339.537L349.315 348.534L315.295 331.724L335.624 324.685L309.03 318.421L353.608 294.184L230.045 78.3445L214.302 88.5154L195.626 79.9165L161.219 77.1714L169.43 91.6476Z" fill="white"/>
</mask>
<g mask="url(#mask0_804_13680)">
<g style="mix-blend-mode:multiply">
<path d="M320.807 393.03C319.869 386.637 313.534 382.109 310.19 380.126L309.803 379.915C307.07 363.492 297.556 325.882 278.212 314.139C281.25 302.408 287.878 290.489 289.555 276.154C290.459 277.843 294.776 280.318 291.409 276.33C292.336 276.987 295.796 278.911 296.207 277.62C296.535 276.588 296.09 276.447 294.518 276.271C294.085 276.243 293.663 276.123 293.279 275.921C292.895 275.719 292.557 275.439 292.289 275.098C293.966 275.72 296.395 275.309 296.981 274.441C297.568 273.573 296.981 272.306 296.066 272.564C295.644 272.67 295.327 273.385 294.893 273.573C294.207 273.766 293.488 273.817 292.782 273.725C290.752 273.725 290.06 273.033 289.861 271.942C289.855 271.896 289.855 271.848 289.861 271.802V271.907C289.791 270.594 289.791 269.279 289.861 267.966C289.861 266.523 289.708 265.08 289.544 263.648C289.716 263.046 289.88 262.448 290.036 261.854C290.061 261.781 290.081 261.706 290.095 261.631V261.513C292.714 250.742 291.154 239.378 285.731 229.711H285.52C284.975 229.609 284.443 229.444 283.936 229.218L283.713 229.112C282.26 228.459 281.066 227.339 280.322 225.93C279.578 224.521 279.326 222.903 279.608 221.335L279.514 221.229C277.445 219.012 275.148 217.018 272.663 215.281C272.076 214.875 271.478 214.484 270.868 214.108C270.789 212.807 270.356 211.552 269.616 210.479C268.876 209.406 267.856 208.556 266.668 208.02L266.445 207.914C265.235 207.371 263.898 207.175 262.583 207.347C261.268 207.519 260.026 208.052 258.996 208.888C258.28 208.688 257.565 208.512 256.838 208.348C253.95 207.721 251.006 207.387 248.051 207.351C247.044 208.529 245.682 209.348 244.17 209.686C242.658 210.025 241.076 209.864 239.663 209.228L239.44 209.122C238.972 208.914 238.527 208.654 238.115 208.348L237.751 208.43C227.116 210.842 217.766 217.138 211.532 226.086L211.45 226.226L211.192 226.614C210.828 227.141 210.488 227.669 210.148 228.221L209.773 228.854C209.479 229.347 209.186 229.863 208.916 230.379C208.799 230.579 208.693 230.79 208.588 230.989C208.212 231.705 207.86 232.432 207.52 233.171L207.133 234.063C207.004 234.157 206.875 234.239 206.746 234.344C203.768 236.806 200.925 239.425 198.229 242.192C197.376 243.3 196.455 244.354 195.472 245.348C193.947 246.521 192.575 245.465 191.05 245.078C190.217 244.855 189.372 244.961 189.595 246.087C189.759 246.932 190.416 246.955 191.085 247.26C189.196 247.401 188.387 246.509 186.92 245.547C186.24 246.298 186.827 247.718 187.613 248.199C188.398 248.68 189.759 248.304 190.756 248.539C190.27 248.796 189.738 248.954 189.19 249.005C188.643 249.055 188.09 248.996 187.566 248.832C188.129 249.653 188.352 250.463 189.572 250.193C190.428 250.005 191.12 248.856 192.07 249.09C192.317 249.161 191.296 250.087 191.237 250.158C190.698 250.756 190.24 251.495 189.759 252.152C188.774 253.489 187.824 254.85 186.92 256.234C185.167 258.911 183.557 261.68 182.099 264.528C179.642 269.333 177.586 274.331 175.952 279.474C170.72 277.55 163.576 273.409 155.798 264.493C150.495 258.491 145.974 251.841 142.342 244.703V241.805C143.891 239.404 144.911 236.701 145.334 233.875C147.14 231.681 145.099 228.467 143.562 228.573C143.173 228.515 142.778 228.515 142.389 228.573V221.194H213.339V114.992H58.6998V221.217H129.638V228.573C125.321 231.071 125.884 239.271 126.482 240.785C126.654 241.321 127.006 241.781 127.479 242.087C128.006 243.272 128.736 244.356 129.638 245.289V272.271H142.401V266.546C149.968 278.406 160.267 291.029 171.729 297.047C171.518 298.22 171.306 299.393 171.13 300.566C168.321 318.478 168.25 336.713 170.919 354.646C170.978 355.01 171.037 355.374 171.107 355.737C171.201 356.371 171.306 356.993 171.412 357.603L171.729 359.304C171.834 359.878 171.94 360.477 172.057 361.028C172.174 361.579 172.339 362.33 172.479 362.987L172.761 364.313C173.019 365.404 173.277 366.46 173.535 367.492C182.087 400.339 246.268 400.444 264.486 382.25C279.995 366.753 278.716 352.464 277.39 335.63C282.353 340.428 288.077 348.183 292.465 360.524C297.38 374.355 299.163 382.672 299.785 386.25C299.679 386.52 299.562 386.766 299.457 387.059C297.873 387.822 296.758 389.323 296.981 390.438C296.971 391.455 297.226 392.458 297.72 393.347C297.166 395.839 297.3 398.434 298.107 400.855C298.147 401.214 298.238 401.566 298.377 401.899C304.865 409.501 317.03 402.885 319.059 400.726C320.05 399.741 320.741 398.495 321.05 397.132C321.36 395.769 321.275 394.347 320.807 393.03Z" fill="#D1D3D4"/>
</g>
<path d="M263.266 328.38C263.266 328.38 279.502 333.378 289.156 360.559C295.984 379.762 296.781 388.373 296.781 388.373C296.781 388.373 308.278 397.007 307.339 385.769C306.401 374.53 295.385 318.127 268.169 311.277C240.953 304.426 263.266 328.38 263.266 328.38Z" fill="#2D4C6A"/>
<path d="M181.466 281.104C181.466 281.104 168.339 282.547 152.608 264.528C139.645 249.665 135.973 237.218 135.973 237.218C135.973 237.218 123.316 231.435 126.53 241.852C129.744 252.269 153.91 299.792 181.044 300.636C208.178 301.481 181.466 281.104 181.466 281.104Z" fill="#3E5E7E"/>
<path d="M141.921 230.261C141.921 230.261 125.791 227.715 123.937 233.264C123.166 235.346 123.007 237.605 123.482 239.774C123.956 241.943 125.042 243.93 126.612 245.5C128.958 247.846 134.589 249.394 139.117 241.98C143.645 234.566 141.921 230.261 141.921 230.261Z" fill="#3E5E7E"/>
<path d="M135.621 213.052H129.908C127.964 213.052 126.389 214.628 126.389 216.572V268.728C126.389 270.672 127.964 272.247 129.908 272.247H135.621C137.565 272.247 139.14 270.672 139.14 268.728V216.572C139.14 214.628 137.565 213.052 135.621 213.052Z" fill="#FFD150"/>
<g style="mix-blend-mode:multiply">
<path d="M139.14 213.052H126.389V224.396H139.14V213.052Z" fill="#FFDF78"/>
</g>
<path d="M204.236 114.992H61.3164C58.077 114.992 55.4509 117.618 55.4509 120.858V215.352C55.4509 218.591 58.077 221.217 61.3164 221.217H204.236C207.475 221.217 210.102 218.591 210.102 215.352V120.858C210.102 117.618 207.475 114.992 204.236 114.992Z" fill="#FFD150"/>
<path d="M193.96 122.043H71.5696C68.3301 122.043 65.704 124.669 65.704 127.908V208.301C65.704 211.541 68.3301 214.167 71.5696 214.167H193.96C197.199 214.167 199.825 211.541 199.825 208.301V127.908C199.825 124.669 197.199 122.043 193.96 122.043Z" fill="#FEFBF2"/>
<path d="M87.4515 179.5V159.253H99.6711V161.428H89.9033V168.269H99.0383V170.444H89.9033V177.325H99.8292V179.5H87.4515ZM104.09 179.5V159.253H110.932C112.513 159.253 113.812 159.523 114.827 160.064C115.842 160.597 116.593 161.332 117.081 162.268C117.569 163.204 117.813 164.269 117.813 165.462C117.813 166.655 117.569 167.712 117.081 168.635C116.593 169.558 115.845 170.283 114.837 170.81C113.828 171.331 112.54 171.591 110.971 171.591H105.435V169.377H110.892C111.973 169.377 112.843 169.218 113.502 168.902C114.168 168.586 114.649 168.137 114.945 167.557C115.249 166.971 115.4 166.272 115.4 165.462C115.4 164.651 115.249 163.942 114.945 163.336C114.642 162.73 114.158 162.262 113.492 161.932C112.827 161.596 111.947 161.428 110.853 161.428H106.542V179.5H104.09ZM113.621 170.405L118.603 179.5H115.756L110.853 170.405H113.621ZM121.898 179.5V159.253H128.739C130.321 159.253 131.62 159.523 132.635 160.064C133.65 160.597 134.401 161.332 134.889 162.268C135.376 163.204 135.62 164.269 135.62 165.462C135.62 166.655 135.376 167.712 134.889 168.635C134.401 169.558 133.653 170.283 132.645 170.81C131.636 171.331 130.348 171.591 128.779 171.591H123.243V169.377H128.7C129.781 169.377 130.651 169.218 131.31 168.902C131.976 168.586 132.457 168.137 132.753 167.557C133.056 166.971 133.208 166.272 133.208 165.462C133.208 164.651 133.056 163.942 132.753 163.336C132.45 162.73 131.966 162.262 131.3 161.932C130.634 161.596 129.754 161.428 128.66 161.428H124.35V179.5H121.898ZM131.429 170.405L136.411 179.5H133.564L128.66 170.405H131.429ZM156.79 169.377C156.79 171.512 156.404 173.357 155.633 174.913C154.862 176.468 153.804 177.668 152.459 178.512C151.115 179.355 149.579 179.777 147.852 179.777C146.125 179.777 144.59 179.355 143.245 178.512C141.901 177.668 140.843 176.468 140.072 174.913C139.301 173.357 138.915 171.512 138.915 169.377C138.915 167.241 139.301 165.396 140.072 163.84C140.843 162.285 141.901 161.085 143.245 160.242C144.59 159.398 146.125 158.976 147.852 158.976C149.579 158.976 151.115 159.398 152.459 160.242C153.804 161.085 154.862 162.285 155.633 163.84C156.404 165.396 156.79 167.241 156.79 169.377ZM154.417 169.377C154.417 167.623 154.123 166.144 153.537 164.938C152.957 163.731 152.169 162.819 151.174 162.199C150.185 161.58 149.078 161.27 147.852 161.27C146.626 161.27 145.516 161.58 144.521 162.199C143.532 162.819 142.744 163.731 142.158 164.938C141.578 166.144 141.288 167.623 141.288 169.377C141.288 171.13 141.578 172.609 142.158 173.816C142.744 175.022 143.532 175.935 144.521 176.554C145.516 177.174 146.626 177.483 147.852 177.483C149.078 177.483 150.185 177.174 151.174 176.554C152.169 175.935 152.957 175.022 153.537 173.816C154.123 172.609 154.417 171.13 154.417 169.377ZM160.912 179.5V159.253H167.754C169.335 159.253 170.634 159.523 171.649 160.064C172.664 160.597 173.415 161.332 173.903 162.268C174.391 163.204 174.634 164.269 174.634 165.462C174.634 166.655 174.391 167.712 173.903 168.635C173.415 169.558 172.667 170.283 171.659 170.81C170.65 171.331 169.362 171.591 167.793 171.591H162.257V169.377H167.714C168.795 169.377 169.665 169.218 170.324 168.902C170.99 168.586 171.471 168.137 171.767 167.557C172.071 166.971 172.222 166.272 172.222 165.462C172.222 164.651 172.071 163.942 171.767 163.336C171.464 162.73 170.98 162.262 170.314 161.932C169.648 161.596 168.769 161.428 167.674 161.428H163.364V179.5H160.912ZM170.443 170.405L175.425 179.5H172.578L167.674 170.405H170.443Z" fill="#414042"/>
<path d="M127.862 228.5C129.196 228.689 130.424 229.33 131.34 230.317C132.257 231.304 132.806 232.576 132.895 233.92C133.341 238.824 130.349 242.202 127.862 242.718C125.375 243.234 124.05 242.906 123.404 241.252C122.759 239.598 122.149 229.967 127.862 228.5Z" fill="#566C82"/>
<path d="M140.541 229.02C139.593 228.868 138.621 229.044 137.787 229.52C136.953 229.996 136.306 230.743 135.955 231.636C134.488 234.886 135.45 237.502 140.295 235.66C145.14 233.818 142.442 228.891 140.541 229.02Z" fill="#566C82"/>
<path d="M292.84 272.623C292.429 272.728 292.1 273.444 291.666 273.631C290.98 273.824 290.262 273.876 289.555 273.784C287.525 273.784 286.833 273.092 286.634 272.001C286.634 272.001 286.634 271.907 286.634 271.86V271.966C286.565 270.653 286.565 269.337 286.634 268.024C286.522 264.314 286.043 260.624 285.203 257.009C283.223 248.963 278.575 241.825 272.017 236.761C268.724 234.187 265.122 232.035 261.295 230.356C259.852 229.71 258.198 229.687 256.802 229.182C255.406 228.678 255.453 227.047 255.629 225.581C255.805 224.115 257.975 222.754 257.552 221.194C256.884 218.589 255.148 222.273 254.819 223.106C254.62 223.634 253.482 227.599 252.602 226.836C251.335 225.757 254.162 219.997 254.725 219.141C255.617 217.792 258.632 215.082 255.898 214.307C252.379 213.334 249.47 216.29 249.282 224.783C248.297 223.164 247.569 218.39 246.443 216.724C244.883 214.378 243.147 214.976 243.78 217.709C244.308 219.95 246.126 221.534 245.552 224.103C245.129 226.215 243.757 226.273 242.197 225.769C240.451 225.237 238.637 224.96 236.812 224.948C232.62 224.81 228.425 225.073 224.283 225.734C216.857 226.907 209.361 229.546 203.507 234.391C200.524 236.846 197.681 239.466 194.991 242.239C194.13 243.344 193.206 244.398 192.222 245.395C190.697 246.568 189.325 245.512 187.8 245.125C186.967 244.902 186.122 245.008 186.345 246.134C186.509 246.979 187.166 247.002 187.835 247.307C185.958 247.448 185.137 246.556 183.67 245.594C182.99 246.345 183.576 247.764 184.374 248.245C185.172 248.726 186.509 248.351 187.518 248.586C187.03 248.843 186.495 249.001 185.946 249.051C185.396 249.101 184.842 249.043 184.315 248.879C184.879 249.7 185.101 250.51 186.321 250.24C187.178 250.052 187.87 248.902 188.82 249.137C189.066 249.207 188.046 250.134 187.987 250.205C187.448 250.803 186.99 251.542 186.509 252.199C185.524 253.536 184.585 254.897 183.67 256.281C181.916 258.958 180.307 261.727 178.849 264.575C176.075 270.013 173.798 275.691 172.045 281.538C170.216 287.777 168.821 294.135 167.868 300.566C163.927 325.67 165.745 350.106 170.215 367.433C178.755 400.28 242.947 400.386 261.166 382.191C279.384 363.996 274.433 347.49 273.401 326.55C272.615 310.514 283.959 295.498 286.305 276.107C287.209 277.796 291.526 280.271 288.171 276.283C289.086 276.94 292.546 278.864 292.969 277.573C293.285 276.541 292.84 276.4 291.268 276.224C290.836 276.197 290.415 276.078 290.033 275.876C289.651 275.674 289.316 275.392 289.05 275.051C290.716 275.673 293.156 275.262 293.743 274.394C294.329 273.526 293.801 272.411 292.84 272.623Z" fill="#566C82"/>
<path d="M292.841 272.623C292.43 272.728 292.102 273.444 291.668 273.631C290.981 273.824 290.263 273.876 289.556 273.784C287.527 273.784 286.835 273.092 286.635 272.001C286.635 272.001 286.635 271.907 286.635 271.86V271.966C286.566 270.653 286.566 269.337 286.635 268.024C286.524 264.314 286.044 260.624 285.204 257.009C283.224 248.963 278.576 241.825 272.018 236.761C268.725 234.187 265.123 232.035 261.296 230.356C259.853 229.71 258.199 229.687 256.803 229.182C255.407 228.678 255.454 227.047 255.63 225.581C255.806 224.115 257.976 222.754 257.554 221.194C256.885 218.589 255.149 222.273 254.821 223.106C254.621 223.634 253.483 227.599 252.603 226.836C251.336 225.757 254.164 219.997 254.727 219.141C255.618 217.792 258.633 215.082 255.9 214.307C252.38 213.334 249.471 216.29 249.283 224.783C248.298 223.164 247.571 218.39 246.445 216.724C244.884 214.378 243.148 214.976 243.782 217.709C244.31 219.95 246.128 221.534 245.553 224.103C245.131 226.215 243.758 226.273 242.198 225.769C240.452 225.237 238.638 224.96 236.813 224.948C232.622 224.81 228.426 225.073 224.285 225.734C221.906 226.121 219.555 226.661 217.246 227.352C231.053 227.27 247.254 223.892 256.416 236.62C282.67 274.159 253.847 315.91 221.41 337.014C204.799 347.924 186.886 353.156 167.647 354.717C168.307 359.04 169.184 363.327 170.275 367.562C178.815 400.409 243.007 400.515 261.226 382.32C279.444 364.125 274.494 347.619 273.461 326.679C272.675 310.643 284.019 295.627 286.365 276.236C287.269 277.925 291.586 280.4 288.231 276.412C289.146 277.069 292.606 278.993 293.029 277.702C293.345 276.67 292.9 276.529 291.328 276.353C290.896 276.326 290.475 276.207 290.093 276.005C289.711 275.803 289.376 275.522 289.11 275.18C290.776 275.802 293.216 275.391 293.803 274.523C294.389 273.655 293.803 272.411 292.841 272.623Z" fill="#3E5E7E"/>
<path d="M229.964 276.142C226.949 284.061 216.731 287.498 207.135 283.838C197.539 280.178 192.19 270.816 195.205 262.898C195.435 262.3 195.71 261.719 196.026 261.162C199.78 254.51 209.176 251.777 218.045 255.202C226.914 258.628 232.122 266.839 230.515 274.3C230.378 274.927 230.194 275.543 229.964 276.142Z" fill="#2B4967"/>
<path d="M230.268 275.344C227.734 282.007 217.891 284.436 208.295 280.776C198.699 277.116 192.975 268.763 195.509 262.1C195.704 261.595 195.944 261.108 196.224 260.645C199.556 255.108 208.624 253.29 217.481 256.668C226.338 260.047 231.91 267.437 230.713 273.784C230.612 274.316 230.463 274.838 230.268 275.344Z" fill="white"/>
<path d="M230.713 273.785L196.224 260.681C199.555 255.144 208.623 253.326 217.48 256.704C226.337 260.083 231.91 267.438 230.713 273.785Z" fill="#2B4967"/>
<path d="M210.466 268.764C210.121 269.657 209.582 270.463 208.888 271.123C208.194 271.783 207.363 272.281 206.454 272.582C205.544 272.883 204.58 272.979 203.629 272.862C202.679 272.746 201.765 272.421 200.955 271.91C200.145 271.399 199.458 270.715 198.944 269.907C198.43 269.1 198.1 268.188 197.98 267.238C197.86 266.288 197.952 265.323 198.248 264.412C198.545 263.502 199.04 262.668 199.697 261.971L210.889 266.23C210.915 267.094 210.771 267.955 210.466 268.764Z" fill="#4C4E4B"/>
<path d="M271.243 291.885C268.228 299.792 258.011 303.241 248.415 299.581C238.819 295.921 233.481 286.548 236.496 278.629C236.723 278.032 236.993 277.451 237.305 276.893C241.071 270.242 250.468 267.567 259.324 270.946C268.181 274.324 273.402 282.571 271.795 290.044C271.661 290.672 271.477 291.288 271.243 291.885Z" fill="#2B4967"/>
<path d="M271.549 291.088C269.015 297.739 259.173 300.168 249.577 296.508C239.981 292.848 234.256 284.495 236.802 277.832C236.994 277.327 237.229 276.841 237.506 276.377C240.837 270.84 249.905 269.022 258.774 272.4C267.643 275.779 273.192 283.169 271.995 289.528C271.897 290.061 271.748 290.583 271.549 291.088Z" fill="white"/>
<path d="M271.995 289.528L237.505 276.377C240.837 270.84 249.905 269.022 258.774 272.4C267.642 275.779 273.191 283.169 271.995 289.528Z" fill="#2B4967"/>
<path d="M251.746 284.495C251.133 286.103 249.906 287.403 248.335 288.107C246.764 288.811 244.978 288.862 243.37 288.249C241.761 287.636 240.462 286.409 239.758 284.838C239.054 283.267 239.003 281.481 239.616 279.873C239.922 279.067 240.384 278.329 240.976 277.703L252.168 281.973C252.194 282.833 252.051 283.69 251.746 284.495Z" fill="#4C4E4B"/>
<path d="M184.233 310.093C187.202 308.662 190.263 307.432 193.395 306.409C196.481 305.412 199.589 304.532 202.78 303.817C209.058 302.366 215.462 301.529 221.902 301.318C228.307 301.061 234.721 301.454 241.047 302.491L243.393 302.855L244.566 303.042L245.739 303.312L250.432 304.391C251.983 304.748 253.514 305.187 255.019 305.705L259.559 307.136L254.937 305.963C253.393 305.534 251.826 305.193 250.244 304.943L245.552 304.157L244.379 303.957L243.205 303.852L240.859 303.629C234.595 303.001 228.283 303.001 222.019 303.629C215.785 304.209 209.621 305.387 203.613 307.148C200.622 308.028 197.677 309.06 194.791 310.186C191.952 311.324 189.186 312.636 186.509 314.116H186.415C186.147 314.27 185.851 314.37 185.545 314.41C185.238 314.45 184.927 314.429 184.628 314.348C184.33 314.267 184.05 314.129 183.805 313.94C183.56 313.751 183.355 313.516 183.201 313.248C183.047 312.98 182.947 312.684 182.907 312.378C182.868 312.071 182.889 311.76 182.969 311.461C183.05 311.163 183.189 310.883 183.377 310.638C183.566 310.393 183.801 310.188 184.069 310.034L184.233 310.093Z" fill="#2B4967"/>
<path d="M192.365 308.989C192.365 308.989 190.018 322.35 202.923 322.35C215.827 322.35 212.929 303.475 212.929 303.475C212.929 303.475 200.048 305.399 192.365 308.989Z" fill="#ED3E77"/>
<path d="M212.893 303.475C212.893 303.475 200.047 305.399 192.375 308.989C192.375 308.989 190.639 318.819 198.241 321.611C193.924 319.265 192.539 312.696 194.522 309.141C196.059 308.05 199.801 306.901 200.833 308.449C201.854 309.481 200.61 313.423 201.643 315.488C201.127 310.795 206.711 303.135 210.312 306.736C213.456 309.493 211.485 317.142 208.928 320.286C214.652 315.394 212.893 303.475 212.893 303.475Z" fill="#D13769"/>
<path d="M204.096 309.634C202.845 311.273 202.214 313.3 202.313 315.359C202.313 317.494 203.557 317.095 203.486 315.359C203.404 313.954 203.734 312.556 204.436 311.335C205.269 309.787 204.8 308.989 204.096 309.634Z" fill="#F96794"/>
<path d="M284.3 269.267C284.148 269.608 283.983 269.959 283.819 270.3L203.872 234.227C204.013 233.886 204.177 233.523 204.329 233.183C207.113 226.997 211.296 221.544 216.549 217.252C221.801 212.96 227.979 209.948 234.595 208.453L234.959 208.371C235.371 208.677 235.816 208.937 236.285 209.146L236.519 209.251C237.932 209.887 239.514 210.048 241.026 209.709C242.538 209.371 243.9 208.552 244.907 207.374C250.929 207.439 256.87 208.762 262.351 211.257C267.637 213.637 272.398 217.043 276.358 221.276L276.452 221.381C276.171 222.95 276.422 224.567 277.166 225.977C277.91 227.386 279.104 228.506 280.558 229.159L280.792 229.264C281.295 229.49 281.823 229.655 282.364 229.757H282.576C285.941 235.746 287.851 242.443 288.15 249.307C288.45 256.17 287.131 263.008 284.3 269.267Z" fill="#FCCC2D"/>
<g style="mix-blend-mode:multiply">
<path d="M269.508 215.305L252.944 248.657L239.7 242.674L253.683 208.349C256.666 209.005 259.571 209.972 262.353 211.235C264.862 212.36 267.258 213.723 269.508 215.305Z" fill="#D1D3D4"/>
</g>
<path d="M254.08 246.357C252.449 249.97 250.291 246.955 246.689 245.325L246.455 245.219C242.841 243.6 239.158 243.964 240.788 240.362L253.81 211.504C254.591 209.771 256.028 208.419 257.806 207.746C259.583 207.073 261.556 207.134 263.289 207.914L263.523 208.02C265.254 208.803 266.603 210.241 267.274 212.019C267.945 213.796 267.883 215.767 267.101 217.499L254.08 246.357Z" fill="#FCCC2D"/>
<g style="mix-blend-mode:multiply">
<path d="M244.883 207.374L235.428 228.314C235.059 229.107 234.464 229.774 233.719 230.232C232.974 230.69 232.111 230.92 231.237 230.892C230.363 230.865 229.516 230.581 228.802 230.077C228.087 229.573 227.536 228.87 227.217 228.056C227.005 227.507 226.905 226.921 226.923 226.333C226.941 225.744 227.077 225.166 227.322 224.631L234.595 208.453L234.959 208.371C235.371 208.677 235.816 208.937 236.285 209.146L236.519 209.251C237.93 209.881 239.506 210.039 241.013 209.701C242.52 209.363 243.878 208.547 244.883 207.374Z" fill="#D1D3D4"/>
</g>
<g style="mix-blend-mode:multiply">
<path d="M282.364 229.734L274.95 246.157C274.462 247.246 273.561 248.097 272.445 248.521C271.33 248.946 270.091 248.91 269.003 248.421C267.914 247.933 267.063 247.032 266.639 245.916C266.214 244.801 266.25 243.563 266.738 242.474L276.311 221.264L276.405 221.37C276.124 222.938 276.375 224.556 277.119 225.965C277.863 227.374 279.057 228.494 280.511 229.147L280.745 229.253C281.264 229.478 281.807 229.639 282.364 229.734Z" fill="#D1D3D4"/>
</g>
<path d="M283.867 270.312C281.52 275.544 261.695 271.708 239.617 261.748C217.539 251.789 201.561 239.459 203.919 234.239C206.277 229.019 223.1 239.483 245.178 249.489C267.255 259.496 286.213 265.08 283.867 270.312Z" fill="#FCCC2D"/>
<g style="mix-blend-mode:multiply">
<path d="M283.221 267.532C281.825 270.558 276.476 270.546 273.402 270.417C261.437 269.936 236.367 259.601 216.096 248.774C223.521 253.779 231.372 258.12 239.558 261.748C261.636 271.708 281.438 275.544 283.808 270.312C283.997 269.843 284.043 269.327 283.938 268.832C283.834 268.337 283.584 267.884 283.221 267.532Z" fill="#FFDF78"/>
</g>
<path d="M284.3 269.268C284.148 269.608 283.983 269.96 283.819 270.3L203.872 234.227C204.013 233.887 204.177 233.523 204.329 233.183C205.449 230.719 206.792 228.363 208.341 226.144L286.94 261.619C286.295 264.244 285.411 266.804 284.3 269.268Z" fill="white"/>
</g>
<g style="mix-blend-mode:multiply">
<path d="M436.041 307.17L418.092 297.222C417.224 296.753 416.098 296.12 414.96 295.486L405.927 290.477L405.399 290.195L404.895 289.914L400.742 287.568L397.434 285.726L393.914 283.802L391.791 282.629L391.134 282.253L384.095 278.394L379.039 275.578L378.91 275.508L378.288 275.168L374.406 273.009L361.067 265.619L363.097 257.947C363.336 257.027 363.202 256.051 362.722 255.23C362.243 254.41 361.458 253.814 360.539 253.571L355.237 252.175C354.854 252.076 354.457 252.044 354.064 252.081H354.005C353.823 252.096 353.642 252.128 353.466 252.175H353.348C353.195 252.217 353.046 252.272 352.902 252.339L352.727 252.41C352.598 252.473 352.472 252.544 352.351 252.621L352.14 252.773L351.858 253.008C351.776 253.078 351.706 253.172 351.624 253.254C351.551 253.323 351.485 253.397 351.424 253.477C351.343 253.598 351.269 253.723 351.201 253.853C351.152 253.914 351.109 253.981 351.072 254.052C350.973 254.259 350.895 254.475 350.838 254.697L330.344 332.943C330.104 333.861 330.237 334.836 330.714 335.656C331.191 336.476 331.973 337.074 332.889 337.319L338.192 338.715C339.109 338.955 340.085 338.822 340.905 338.345C341.725 337.868 342.322 337.086 342.567 336.169L344.585 328.486L359.836 328.626H363.414H365.138L378.464 328.744H380.905H386.066H389.855H393.375H394.548H399.24H402.853L409.575 328.814L430.105 329.002C431.117 328.969 432.094 328.621 432.899 328.007C433.704 327.393 434.298 326.544 434.598 325.576L434.867 324.544V324.661L438.187 312.097C438.356 311.156 438.242 310.186 437.86 309.309C437.478 308.432 436.845 307.688 436.041 307.17Z" fill="#D1D3D4"/>
</g>
<path d="M344.399 327.137C343.963 327.163 343.528 327.081 343.131 326.899C342.734 326.716 342.389 326.439 342.125 326.09C341.862 325.742 341.689 325.334 341.621 324.903C341.553 324.471 341.592 324.03 341.736 323.618L356.987 265.971C357.068 265.544 357.254 265.144 357.527 264.806C357.8 264.468 358.151 264.202 358.551 264.031C358.951 263.861 359.386 263.792 359.819 263.829C360.252 263.867 360.669 264.01 361.034 264.247L374.466 271.696L378.337 273.843L382.22 275.99L391.136 280.94L397.4 284.459L400.708 286.301L404.861 288.647L409.014 290.994L411.794 292.542L418.047 296.003L436.007 305.951C436.871 306.479 437.549 307.263 437.947 308.195C438.344 309.126 438.441 310.158 438.224 311.148L434.705 324.627C434.405 325.594 433.811 326.444 433.006 327.058C432.201 327.672 431.224 328.019 430.212 328.052L409.683 327.864L402.527 327.794H399.347H394.655H389.904H386.115L378.959 327.735L368.765 327.641H364.33H359.884L344.399 327.137Z" fill="#FCCC2D"/>
<path d="M363.334 327.313L377.54 273.444L379.042 274.276L394.222 282.688L382.409 327.477L365.058 327.324L363.334 327.313Z" fill="white"/>
<path d="M393.354 327.582L403.794 288.002L405.835 289.128L414.88 294.137L406.023 327.7L395.688 327.606L393.354 327.582Z" fill="white"/>
<g style="mix-blend-mode:multiply">
<path d="M344.4 327.137L359.756 327.278H364.202H368.636L378.83 327.372L385.986 327.431H389.776H394.527H399.219H402.398L409.554 327.501L430.084 327.689C431.096 327.656 432.072 327.308 432.878 326.694C433.683 326.08 434.277 325.23 434.577 324.263L434.846 323.243C433.474 331.935 377.423 317.705 365.95 291.275C362.208 282.829 361.926 273.949 363.134 265.256L360.941 264.083C360.576 263.846 360.159 263.703 359.726 263.665C359.293 263.628 358.858 263.697 358.458 263.868C358.058 264.038 357.706 264.304 357.434 264.642C357.161 264.98 356.975 265.38 356.893 265.807L341.643 323.454C341.458 323.882 341.389 324.352 341.443 324.816C341.498 325.28 341.674 325.721 341.954 326.094C342.234 326.468 342.607 326.761 343.037 326.945C343.466 327.128 343.936 327.194 344.4 327.137Z" fill="#D1D3D4"/>
</g>
<g style="mix-blend-mode:multiply">
<path d="M432.172 324.99C432.331 325.033 432.497 325.043 432.661 325.022C432.825 325 432.982 324.946 433.125 324.863C433.268 324.78 433.393 324.67 433.493 324.539C433.593 324.408 433.666 324.258 433.709 324.099L437.169 310.96C437.212 310.801 437.222 310.636 437.2 310.473C437.178 310.31 437.124 310.153 437.041 310.012C436.958 309.87 436.848 309.746 436.717 309.647C436.586 309.548 436.437 309.476 436.278 309.435C436.12 309.382 435.952 309.363 435.787 309.379C435.621 309.395 435.461 309.447 435.316 309.53C435.172 309.613 435.047 309.727 434.95 309.862C434.853 309.997 434.785 310.151 434.753 310.315L431.233 323.465C431.191 323.624 431.18 323.789 431.202 323.952C431.224 324.115 431.278 324.272 431.361 324.414C431.444 324.555 431.554 324.679 431.685 324.778C431.816 324.877 431.966 324.949 432.125 324.99H432.172Z" fill="#D1D3D4"/>
</g>
<path d="M338.111 337.366C338.568 337.49 339.045 337.522 339.514 337.461C339.984 337.4 340.436 337.247 340.846 337.011C341.256 336.774 341.615 336.459 341.903 336.083C342.19 335.707 342.401 335.278 342.522 334.82L363.145 256.644C363.378 255.725 363.241 254.751 362.762 253.933C362.284 253.114 361.503 252.516 360.588 252.269L355.285 250.873C354.832 250.746 354.357 250.711 353.89 250.771C353.422 250.831 352.972 250.985 352.565 251.222C352.158 251.459 351.803 251.776 351.52 252.153C351.238 252.531 351.034 252.961 350.921 253.418L330.298 331.594C330.058 332.512 330.191 333.487 330.668 334.307C331.145 335.127 331.928 335.725 332.844 335.97L338.111 337.366Z" fill="#FCCC2D"/>
<g style="mix-blend-mode:multiply">
<path d="M342.524 334.82V334.715C339.286 334.715 337.151 333.401 336.341 331.043C333.549 322.901 347.333 277.08 354.724 250.791C353.876 250.69 353.021 250.902 352.317 251.385C351.614 251.868 351.11 252.591 350.9 253.418L330.276 331.594C330.036 332.512 330.17 333.487 330.647 334.307C331.124 335.127 331.906 335.725 332.822 335.97L338.124 337.366C338.58 337.488 339.056 337.519 339.524 337.457C339.992 337.396 340.443 337.242 340.852 337.006C341.261 336.769 341.619 336.454 341.906 336.079C342.192 335.704 342.402 335.277 342.524 334.82Z" fill="#D1D3D4"/>
</g>
<g style="mix-blend-mode:multiply">
<path d="M131.163 383.023L106.528 289.855C106.461 289.588 106.367 289.329 106.247 289.081C106.195 289.005 106.148 288.927 106.106 288.846C106.012 288.694 105.93 288.541 105.824 288.4C105.719 288.26 105.672 288.224 105.59 288.13C105.502 288.027 105.408 287.929 105.308 287.837C105.2 287.737 105.086 287.643 104.968 287.556L104.722 287.38C104.58 287.286 104.43 287.204 104.276 287.133L104.076 287.04C103.897 286.961 103.713 286.894 103.525 286.84H103.384C103.177 286.782 102.965 286.747 102.751 286.735H102.739C102.282 286.704 101.823 286.744 101.378 286.852L95.0552 288.518C93.9642 288.81 93.0327 289.521 92.4636 290.496C91.8946 291.472 91.734 292.633 92.0168 293.726L94.4334 302.876L78.573 311.651L73.8806 314.22L69.2586 316.789L58.6302 322.655L58.3839 322.784L54.8645 324.72L51.1341 326.784L47.1807 328.978L42.7229 331.453L41.0219 332.392L30.241 338.363L26.5927 340.451L5.18346 352.311C4.15284 352.939 3.34503 353.875 2.87366 354.986C2.4023 356.097 2.2911 357.328 2.55571 358.505L6.79062 374.565C7.14495 375.718 7.85119 376.732 8.81044 377.464C9.76969 378.196 10.9339 378.61 12.14 378.647L36.5993 378.425L44.682 378.342L51.3921 378.284H55.9673H60.2374H64.7538H69.0122L89.6941 377.99H91.747H96.0054L114.189 377.826L116.605 386.988C116.897 388.079 117.608 389.011 118.584 389.58C119.559 390.149 120.72 390.309 121.814 390.027L128.137 388.361C128.69 388.216 129.209 387.962 129.662 387.613C130.115 387.264 130.494 386.828 130.777 386.331C131.059 385.833 131.238 385.284 131.305 384.716C131.371 384.148 131.323 383.572 131.163 383.023Z" fill="#D1D3D4"/>
</g>
<path d="M111.901 376.607C112.416 376.639 112.931 376.543 113.401 376.328C113.87 376.113 114.28 375.786 114.593 375.376C114.906 374.965 115.113 374.484 115.196 373.974C115.279 373.465 115.235 372.943 115.068 372.454L96.9439 303.745C96.8476 303.238 96.6281 302.761 96.3045 302.358C95.9809 301.955 95.5633 301.637 95.0883 301.434C94.6133 301.23 94.0955 301.146 93.5804 301.189C93.0653 301.232 92.5687 301.401 92.1342 301.681L76.1213 310.561L71.5344 313.119L66.842 315.688L56.2254 321.553L48.7644 325.682L44.8111 327.876L39.8606 330.645L34.9452 333.413L31.6488 335.22L24.1879 339.361L2.76693 351.209C1.74417 351.846 0.942182 352.782 0.469942 353.89C-0.00229855 354.998 -0.121884 356.225 0.127437 357.403L4.36235 373.463C4.71733 374.618 5.42534 375.634 6.38692 376.366C7.3485 377.098 8.51532 377.511 9.72345 377.546L34.1827 377.323L42.7112 377.241H46.5003H52.1547H57.8208H62.3373L70.8658 377.158L83.0074 377.053H88.2981H93.5889L111.901 376.607Z" fill="#FCCC2D"/>
<path d="M89.3294 376.818L72.3898 312.626L70.5949 313.623L52.5173 323.641L66.5946 377.029L87.2765 376.841L89.3294 376.818Z" fill="white"/>
<path d="M53.5501 377.146L41.1035 329.964L38.6634 331.313L27.8943 337.284L38.4522 377.275L50.7581 377.169L53.5501 377.146Z" fill="white"/>
<g style="mix-blend-mode:multiply">
<path d="M111.902 376.606L93.5898 376.818H88.299H83.0083L70.8667 376.923L62.3382 377.005H57.8217H52.1556H46.5012H42.7121L34.1836 377.087L9.72435 377.31C8.51622 377.275 7.3494 376.863 6.38782 376.131C5.42624 375.398 4.71822 374.383 4.36325 373.228L4.04651 372.055C5.67713 382.413 72.4856 365.474 86.164 333.952C90.6101 323.887 90.9503 313.306 89.5073 302.947L92.1351 301.739C92.5696 301.459 93.0662 301.29 93.5813 301.247C94.0964 301.204 94.6142 301.288 95.0892 301.492C95.5642 301.695 95.9818 302.013 96.3054 302.416C96.629 302.819 96.8485 303.296 96.9448 303.803L115.069 372.512C115.224 372.997 115.259 373.513 115.17 374.014C115.081 374.516 114.872 374.988 114.561 375.391C114.249 375.794 113.844 376.115 113.381 376.326C112.918 376.538 112.41 376.634 111.902 376.606Z" fill="#D1D3D4"/>
</g>
<g style="mix-blend-mode:multiply">
<path d="M7.2831 374.061C6.89889 374.161 6.49066 374.105 6.1477 373.905C5.80474 373.705 5.55498 373.378 5.45305 372.994L1.32371 357.333C1.22355 356.949 1.27964 356.54 1.4797 356.197C1.67976 355.854 2.0075 355.605 2.39124 355.503C2.58073 355.453 2.77811 355.442 2.97209 355.469C3.16607 355.495 3.35284 355.56 3.52172 355.66C3.69061 355.759 3.83828 355.89 3.95631 356.046C4.07433 356.203 4.16039 356.381 4.20956 356.57L8.33889 372.243C8.43916 372.624 8.38436 373.029 8.18648 373.37C7.98861 373.711 7.66378 373.959 7.2831 374.061Z" fill="#D1D3D4"/>
</g>
<path d="M119.396 388.807C118.301 389.093 117.137 388.934 116.159 388.365C115.181 387.796 114.468 386.862 114.176 385.768L89.5994 292.589C89.317 291.494 89.4792 290.331 90.0506 289.355C90.622 288.38 91.5563 287.669 92.6495 287.38L98.9725 285.714C100.066 285.431 101.227 285.592 102.202 286.161C103.178 286.73 103.889 287.661 104.181 288.752L128.816 381.932C129.102 383.026 128.943 384.188 128.374 385.165C127.804 386.141 126.871 386.852 125.778 387.141L119.396 388.807Z" fill="#FCCC2D"/>
<g style="mix-blend-mode:multiply">
<path d="M114.176 385.768V385.639C118.024 385.639 120.569 384.079 121.543 381.264C124.863 371.562 108.439 316.978 99.6294 285.609C100.64 285.504 101.654 285.764 102.49 286.34C103.327 286.916 103.93 287.771 104.193 288.753L128.828 381.932C129.114 383.026 128.955 384.188 128.385 385.165C127.816 386.141 126.882 386.852 125.79 387.141L119.478 388.807C118.931 388.961 118.358 389.004 117.793 388.935C117.228 388.865 116.683 388.683 116.19 388.4C115.696 388.117 115.264 387.739 114.918 387.287C114.572 386.835 114.32 386.319 114.176 385.768Z" fill="#D1D3D4"/>
</g>
<g style="mix-blend-mode:multiply">
<path d="M501.28 325.365H490.264L485.056 304.871C484.387 302.232 483.707 299.545 483.542 298.912C483.378 298.278 482.698 295.592 482.029 292.952L478.51 279.251C477.829 276.611 476.727 272.282 476.058 269.631L474.768 264.54L473.594 259.73L473.442 259.108C473.336 258.698 473.254 258.369 473.196 258.158C473.008 257.419 472.433 255.178 471.858 252.891L469.219 242.696C468.773 240.96 468.327 239.177 468.046 237.887L461.007 210.307C460.608 208.96 459.798 207.771 458.689 206.909C457.58 206.046 456.229 205.552 454.825 205.497H435.527C434.125 205.553 432.775 206.047 431.668 206.91C430.561 207.773 429.753 208.961 429.357 210.307L422.318 237.887C421.649 240.538 420.547 244.925 419.878 247.506L418.799 251.776C418.482 253.008 418.165 254.275 417.884 255.378L417.579 256.551L416.886 259.319C416.546 260.633 416.042 262.616 415.573 264.505L414.282 269.596C413.602 272.247 412.511 276.634 411.842 279.215L409.179 289.691L408.006 294.384C407.783 295.263 407.572 296.108 407.384 296.824L407.161 297.739L406.786 299.182C406.786 299.252 406.786 299.334 406.727 299.428L406.575 300.05C406.27 301.223 405.812 303.041 405.402 304.848L401.026 322.104L400.205 325.342H389.201C387.886 325.345 386.626 325.869 385.696 326.799C384.766 327.729 384.242 328.989 384.239 330.304V337.918C384.245 338.445 384.336 338.968 384.509 339.466C384.514 339.497 384.514 339.529 384.509 339.56C384.598 339.792 384.7 340.019 384.814 340.24L384.908 340.393C385.018 340.586 385.143 340.771 385.283 340.944C385.334 341.014 385.389 341.08 385.447 341.144C385.575 341.297 385.712 341.442 385.858 341.578L386.128 341.789C386.258 341.907 386.4 342.013 386.55 342.106L386.937 342.317L387.336 342.516C387.516 342.583 387.7 342.638 387.887 342.68L388.227 342.774C388.54 342.836 388.859 342.867 389.178 342.868H501.268C502.581 342.865 503.84 342.343 504.769 341.415C505.699 340.488 506.224 339.231 506.23 337.918V330.304C506.221 328.995 505.696 327.742 504.769 326.818C503.843 325.893 502.589 325.371 501.28 325.365Z" fill="#D1D3D4"/>
</g>
<path d="M492.057 327.078C492.245 327.649 492.289 328.258 492.187 328.85C492.084 329.442 491.838 330 491.47 330.475C491.102 330.95 490.623 331.327 490.074 331.573C489.526 331.82 488.926 331.928 488.327 331.888H405.658C405.058 331.927 404.458 331.818 403.91 331.572C403.362 331.325 402.882 330.949 402.513 330.474C402.144 330 401.897 329.442 401.792 328.851C401.688 328.259 401.731 327.65 401.916 327.078L407.148 306.432C407.816 303.792 408.497 301.106 408.661 300.472C408.825 299.839 409.494 297.152 410.174 294.501L413.694 280.811C414.362 278.172 415.453 273.843 416.134 271.192L417.424 266.1C418.093 263.449 418.82 260.587 419.031 259.719L420.65 253.337L421.729 249.067C422.398 246.416 423.501 242.099 424.169 239.447L431.208 211.868C431.604 210.521 432.413 209.333 433.52 208.47C434.627 207.608 435.976 207.114 437.379 207.058H456.711C458.115 207.113 459.467 207.607 460.575 208.469C461.684 209.332 462.495 210.52 462.894 211.868L469.932 239.447C470.601 242.099 471.704 246.416 472.372 249.067L473.463 253.337L475.082 259.719C475.305 260.587 476.032 263.449 476.701 266.1L477.992 271.192C478.66 273.843 479.763 278.172 480.443 280.811L483.963 294.501C484.631 297.152 485.323 299.839 485.476 300.472C485.628 301.106 486.321 303.792 486.989 306.432L492.057 327.078Z" fill="#FCCC2D"/>
<path d="M485.593 301.621H408.368L408.954 299.31L414.867 276.001H479.082L485.007 299.31L485.593 301.621Z" fill="white"/>
<path d="M475.352 261.29H418.597L419.383 258.146L422.902 244.256H471.023L474.554 258.146L475.352 261.29Z" fill="white"/>
<g style="mix-blend-mode:multiply">
<path d="M492.057 327.078L486.813 306.431C486.145 303.791 485.464 301.105 485.3 300.472C485.136 299.838 484.455 297.152 483.787 294.5L480.267 280.81C479.587 278.171 478.484 273.842 477.815 271.191L476.525 266.1C475.856 263.448 475.129 260.586 474.906 259.718L473.287 253.336L472.196 249.066C471.528 246.415 470.425 242.098 469.756 239.447L462.718 211.867C462.319 210.52 461.508 209.331 460.399 208.468C459.29 207.606 457.939 207.112 456.535 207.057H455.139C467.269 205.814 468.043 285.995 436.651 310.725C426.645 318.725 414.843 322.244 402.76 323.629L401.904 327.019C401.719 327.591 401.676 328.199 401.781 328.791C401.885 329.383 402.132 329.94 402.501 330.415C402.87 330.889 403.35 331.266 403.898 331.512C404.446 331.759 405.046 331.867 405.646 331.829H488.315C488.909 331.867 489.503 331.76 490.046 331.517C490.59 331.275 491.066 330.904 491.434 330.436C491.802 329.969 492.051 329.419 492.16 328.834C492.268 328.249 492.233 327.646 492.057 327.078Z" fill="#D1D3D4"/>
</g>
<g style="mix-blend-mode:multiply">
<path d="M458.155 210.155C458.155 209.694 457.972 209.252 457.647 208.927C457.321 208.601 456.879 208.418 456.419 208.418H437.544C437.083 208.418 436.642 208.601 436.316 208.927C435.99 209.252 435.807 209.694 435.807 210.155C435.807 210.615 435.99 211.057 436.316 211.382C436.642 211.708 437.083 211.891 437.544 211.891H456.395C456.856 211.891 457.297 211.708 457.623 211.382C457.949 211.057 458.132 210.615 458.132 210.155H458.155Z" fill="#D1D3D4"/>
</g>
<path d="M503.037 326.925H390.947C388.206 326.925 385.984 329.147 385.984 331.887V339.489C385.984 342.229 388.206 344.451 390.947 344.451H503.037C505.778 344.451 507.999 342.229 507.999 339.489V331.887C507.999 329.147 505.778 326.925 503.037 326.925Z" fill="#FCCC2D"/>
<g style="mix-blend-mode:multiply">
<path d="M503.037 326.925H502.885C504.058 331.265 503.026 334.597 500.152 336.509C490.227 343.126 423.9 340.85 386.055 340.251C386.237 341.419 386.829 342.484 387.726 343.254C388.623 344.024 389.765 344.448 390.947 344.451H503.037C504.353 344.448 505.613 343.924 506.543 342.994C507.473 342.064 507.997 340.804 508 339.489V331.887C507.997 330.572 507.473 329.312 506.543 328.382C505.613 327.452 504.353 326.928 503.037 326.925Z" fill="#D1D3D4"/>
</g>
<path d="M217.144 23.8661C217.144 26.8131 216.611 29.3598 215.547 31.5064C214.483 33.653 213.023 35.3084 211.168 36.4726C209.312 37.6369 207.193 38.219 204.81 38.219C202.427 38.219 200.308 37.6369 198.452 36.4726C196.597 35.3084 195.137 33.653 194.072 31.5064C193.008 29.3598 192.476 26.8131 192.476 23.8661C192.476 20.9191 193.008 18.3723 194.072 16.2257C195.137 14.0792 196.597 12.4237 198.452 11.2595C200.308 10.0953 202.427 9.51314 204.81 9.51314C207.193 9.51314 209.312 10.0953 211.168 11.2595C213.023 12.4237 214.483 14.0792 215.547 16.2257C216.611 18.3723 217.144 20.9191 217.144 23.8661ZM213.869 23.8661C213.869 21.4466 213.464 19.4047 212.655 17.7402C211.854 16.0756 210.768 14.8159 209.394 13.9609C208.03 13.1059 206.502 12.6784 204.81 12.6784C203.118 12.6784 201.585 13.1059 200.212 13.9609C198.848 14.8159 197.761 16.0756 196.951 17.7402C196.151 19.4047 195.751 21.4466 195.751 23.8661C195.751 26.2855 196.151 28.3275 196.951 29.992C197.761 31.6565 198.848 32.9162 200.212 33.7712C201.585 34.6262 203.118 35.0537 204.81 35.0537C206.502 35.0537 208.03 34.6262 209.394 33.7712C210.768 32.9162 211.854 31.6565 212.655 29.992C213.464 28.3275 213.869 26.2855 213.869 23.8661ZM230.91 38.2736C229.018 38.2736 227.358 37.8233 225.93 36.9229C224.511 36.0224 223.401 34.7626 222.601 33.1436C221.81 31.5246 221.414 29.6327 221.414 27.4679C221.414 25.285 221.81 23.3794 222.601 21.7513C223.401 20.1232 224.511 18.8589 225.93 17.9584C227.358 17.058 229.018 16.6077 230.91 16.6077C232.802 16.6077 234.457 17.058 235.876 17.9584C237.304 18.8589 238.414 20.1232 239.205 21.7513C240.005 23.3794 240.406 25.285 240.406 27.4679C240.406 29.6327 240.005 31.5246 239.205 33.1436C238.414 34.7626 237.304 36.0224 235.876 36.9229C234.457 37.8233 232.802 38.2736 230.91 38.2736ZM230.91 35.3812C232.347 35.3812 233.529 35.0128 234.457 34.276C235.385 33.5393 236.072 32.5706 236.517 31.37C236.963 30.1693 237.186 28.8687 237.186 27.4679C237.186 26.0672 236.963 24.762 236.517 23.5523C236.072 22.3425 235.385 21.3648 234.457 20.6189C233.529 19.8731 232.347 19.5002 230.91 19.5002C229.473 19.5002 228.29 19.8731 227.363 20.6189C226.435 21.3648 225.748 22.3425 225.302 23.5523C224.857 24.762 224.634 26.0672 224.634 27.4679C224.634 28.8687 224.857 30.1693 225.302 31.37C225.748 32.5706 226.435 33.5393 227.363 34.276C228.29 35.0128 229.473 35.3812 230.91 35.3812ZM245.321 45.6956V16.8806H248.431V20.2096H248.813C249.05 19.8458 249.377 19.3819 249.796 18.818C250.223 18.245 250.833 17.7356 251.624 17.2899C252.424 16.8351 253.507 16.6077 254.871 16.6077C256.636 16.6077 258.191 17.0489 259.537 17.9312C260.883 18.8134 261.934 20.0641 262.689 21.6831C263.444 23.3021 263.821 25.2122 263.821 27.4134C263.821 29.6327 263.444 31.5564 262.689 33.1846C261.934 34.8036 260.888 36.0588 259.551 36.9501C258.214 37.8324 256.672 38.2736 254.926 38.2736C253.58 38.2736 252.502 38.0507 251.692 37.605C250.883 37.1503 250.26 36.6364 249.823 36.0633C249.386 35.4812 249.05 34.9991 248.813 34.6171H248.541V45.6956H245.321ZM248.486 27.3588C248.486 28.9414 248.718 30.3376 249.182 31.5473C249.646 32.748 250.323 33.6894 251.215 34.3715C252.106 35.0446 253.198 35.3812 254.489 35.3812C255.835 35.3812 256.959 35.0264 257.859 34.317C258.769 33.5984 259.451 32.6343 259.906 31.4245C260.369 30.2057 260.601 28.8505 260.601 27.3588C260.601 25.8853 260.374 24.5573 259.919 23.3749C259.474 22.1834 258.796 21.242 257.886 20.5507C256.986 19.8503 255.853 19.5002 254.489 19.5002C253.179 19.5002 252.079 19.8321 251.187 20.4961C250.296 21.151 249.623 22.0697 249.168 23.2521C248.713 24.4254 248.486 25.7943 248.486 27.3588ZM283.577 21.574L280.685 22.3926C280.503 21.9105 280.234 21.4421 279.88 20.9873C279.534 20.5234 279.061 20.1414 278.461 19.8412C277.86 19.5411 277.092 19.391 276.155 19.391C274.872 19.391 273.804 19.6866 272.949 20.2778C272.103 20.86 271.68 21.6013 271.68 22.5017C271.68 23.3021 271.971 23.9343 272.553 24.3982C273.135 24.862 274.045 25.2486 275.282 25.5579L278.392 26.3219C280.266 26.7767 281.662 27.4725 282.581 28.4093C283.5 29.3371 283.959 30.5332 283.959 31.9976C283.959 33.1982 283.613 34.2715 282.922 35.2174C282.24 36.1634 281.285 36.9092 280.057 37.455C278.829 38.0007 277.401 38.2736 275.773 38.2736C273.635 38.2736 271.866 37.8097 270.466 36.8819C269.065 35.9542 268.178 34.5989 267.805 32.8162L270.861 32.0521C271.152 33.18 271.703 34.0259 272.512 34.5898C273.331 35.1538 274.4 35.4357 275.718 35.4357C277.219 35.4357 278.411 35.1174 279.293 34.4807C280.184 33.8349 280.63 33.0618 280.63 32.1613C280.63 31.4336 280.375 30.8242 279.866 30.3331C279.357 29.8328 278.574 29.4599 277.519 29.2143L274.027 28.3957C272.107 27.9409 270.698 27.236 269.797 26.281C268.906 25.3168 268.46 24.1116 268.46 22.6654C268.46 21.483 268.792 20.437 269.456 19.5274C270.129 18.6179 271.043 17.9039 272.198 17.3854C273.363 16.867 274.681 16.6077 276.155 16.6077C278.229 16.6077 279.857 17.0625 281.039 17.9721C282.231 18.8817 283.077 20.0823 283.577 21.574ZM293.063 9.89516L292.79 29.9783H289.624L289.352 9.89516H293.063ZM291.207 38.0553C290.534 38.0553 289.956 37.8142 289.474 37.3322C288.992 36.8501 288.751 36.2725 288.751 35.5994C288.751 34.9264 288.992 34.3488 289.474 33.8667C289.956 33.3847 290.534 33.1436 291.207 33.1436C291.88 33.1436 292.458 33.3847 292.94 33.8667C293.422 34.3488 293.663 34.9264 293.663 35.5994C293.663 36.0451 293.549 36.4544 293.322 36.8274C293.104 37.2003 292.808 37.5004 292.435 37.7278C292.071 37.9461 291.662 38.0553 291.207 38.0553Z" fill="#414042"/>
</svg>
