<svg enable-background="new 0 0 729.64 289.9" viewBox="0 0 729.64 289.9" xmlns="http://www.w3.org/2000/svg" xmlns:xlink="http://www.w3.org/1999/xlink"><linearGradient id="a"><stop offset="0" stop-color="#a6ce39"/><stop offset=".5" stop-color="#03b585"/><stop offset="1" stop-color="#273470"/></linearGradient><linearGradient id="b" gradientUnits="userSpaceOnUse" x1="281.9377" x2="89.331" xlink:href="#a" y1="57.1091" y2="262.2079"/><linearGradient id="c" gradientUnits="userSpaceOnUse" x1="226.431" x2="33.8448" xlink:href="#a" y1="5.9747" y2="211.0326"/><linearGradient id="d" gradientUnits="userSpaceOnUse" x1="257.2237" x2="65.9438" xlink:href="#a" y1="35.8444" y2="239.5348"/><linearGradient id="e" gradientUnits="userSpaceOnUse" x1="248.1838" x2="56.8631" xlink:href="#a" y1="27.3209" y2="231.0316"/><linearGradient id="f" gradientUnits="userSpaceOnUse" x1="177.3983" x2="23.2885" xlink:href="#a" y1="-17.0569" y2="147.014"/><linearGradient id="g" gradientUnits="userSpaceOnUse" x1="215.7074" x2="61.6177" xlink:href="#a" y1="20.4768" y2="184.5476"/><linearGradient id="h" gradientUnits="userSpaceOnUse" x1="255.567" x2="101.4776" xlink:href="#a" y1="51.4998" y2="215.5704"/><linearGradient id="i" gradientUnits="userSpaceOnUse" x1="268.0831" x2="113.9937" xlink:href="#a" y1="69.5051" y2="233.5759"/><linearGradient id="j" gradientUnits="userSpaceOnUse" x1="289.5341" x2="135.465" xlink:href="#a" y1="89.6129" y2="253.6429"/><linearGradient id="k" gradientUnits="userSpaceOnUse" x1="280.5467" x2="126.4571" xlink:href="#a" y1="99.8488" y2="263.9197"/><linearGradient id="l" gradientUnits="userSpaceOnUse" x1="235.0786" x2="80.9891" xlink:href="#a" y1="76.749" y2="240.8199"/><linearGradient id="m" gradientUnits="userSpaceOnUse" x1="194.0592" x2="39.9698" xlink:href="#a" y1="33.6534" y2="197.7242"/><linearGradient id="n" gradientUnits="userSpaceOnUse" x1="236.468" x2="74.5404" xlink:href="#a" y1="108.9245" y2="108.9245"/><linearGradient id="o" gradientUnits="userSpaceOnUse" x1="238.6317" x2="76.6632" xlink:href="#a" y1="124.5396" y2="124.5396"/><linearGradient id="p" gradientUnits="userSpaceOnUse" x1="238.6113" x2="76.6836" xlink:href="#a" y1="140.2567" y2="140.2567"/><linearGradient id="q" gradientUnits="userSpaceOnUse" x1="238.6317" x2="76.6632" xlink:href="#a" y1="155.8718" y2="155.8718"/><linearGradient id="r" gradientUnits="userSpaceOnUse" x1="236.468" x2="74.5404" xlink:href="#a" y1="171.4869" y2="171.4869"/><linearGradient id="s" gradientUnits="userSpaceOnUse" x1="233.2021" x2="71.2541" xlink:href="#a" y1="173.0178" y2="173.0178"/><linearGradient id="t" gradientUnits="userSpaceOnUse" x1="227.7929" x2="65.8245" xlink:href="#a" y1="188.6329" y2="188.6329"/><linearGradient id="u" gradientUnits="userSpaceOnUse" x1="227.7725" x2="65.8449" xlink:href="#a" y1="173.0178" y2="173.0178"/><linearGradient id="v" gradientUnits="userSpaceOnUse" x1="224.527" x2="62.5586" xlink:href="#a" y1="171.4869" y2="171.4869"/><linearGradient id="w" gradientUnits="userSpaceOnUse" x1="222.3634" x2="60.4153" xlink:href="#a" y1="155.8718" y2="155.8718"/><linearGradient id="x" gradientUnits="userSpaceOnUse" x1="222.3634" x2="60.4153" xlink:href="#a" y1="140.2567" y2="140.2567"/><linearGradient id="y" gradientUnits="userSpaceOnUse" x1="222.3634" x2="60.4153" xlink:href="#a" y1="124.5396" y2="124.5396"/><linearGradient id="z" gradientUnits="userSpaceOnUse" x1="224.527" x2="62.5586" xlink:href="#a" y1="108.9245" y2="108.9245"/><linearGradient id="A" gradientUnits="userSpaceOnUse" x1="227.7929" x2="65.8245" xlink:href="#a" y1="91.6765" y2="91.6765"/><linearGradient id="B" gradientUnits="userSpaceOnUse" x1="233.2021" x2="71.2541" xlink:href="#a" y1="91.6765" y2="91.6765"/><linearGradient id="C" gradientUnits="userSpaceOnUse" x1="233.2021" x2="71.2541" xlink:href="#a" y1="107.3936" y2="107.3936"/><linearGradient id="D" gradientUnits="userSpaceOnUse" x1="249.7766" x2="48.6989" xlink:href="#a" y1="155.7698" y2="155.7698"/><linearGradient id="E" gradientUnits="userSpaceOnUse" x1="249.7766" x2="48.6989" xlink:href="#a" y1="140.2567" y2="140.2567"/><linearGradient id="F" gradientUnits="userSpaceOnUse" x1="249.7561" x2="48.7193" xlink:href="#a" y1="140.2567" y2="140.2567"/><linearGradient id="G" gradientUnits="userSpaceOnUse" x1="249.797" x2="48.6785" xlink:href="#a" y1="124.6417" y2="124.6417"/><linearGradient id="H" gradientUnits="userSpaceOnUse" x1="227.9767" x2="66.0286" xlink:href="#a" y1="75.449" y2="75.449"/><linearGradient id="I" gradientUnits="userSpaceOnUse" x1="226.6703" x2="64.7223" xlink:href="#a" y1="45.4435" y2="45.4435"/><linearGradient id="J" gradientUnits="userSpaceOnUse" x1="233.5899" x2="71.6419" xlink:href="#a" y1="48.3011" y2="48.3011"/><linearGradient id="K" gradientUnits="userSpaceOnUse" x1="249.3887" x2="87.4611" xlink:href="#a" y1="59.3235" y2="59.3235"/><linearGradient id="L" gradientUnits="userSpaceOnUse" x1="237.6519" x2="75.7039" xlink:href="#a" y1="87.6961" y2="87.6961"/><linearGradient id="M" gradientUnits="userSpaceOnUse" x1="246.5311" x2="84.583" xlink:href="#a" y1="107.6998" y2="107.6998"/><linearGradient id="N" gradientUnits="userSpaceOnUse" x1="244.2858" x2="82.3377" xlink:href="#a" y1="156.8925" y2="156.8925"/><linearGradient id="O" gradientUnits="userSpaceOnUse" x1="244.5103" x2="82.5418" xlink:href="#a" y1="171.589" y2="171.589"/><linearGradient id="P" gradientUnits="userSpaceOnUse" x1="254.4917" x2="92.5437" xlink:href="#a" y1="205.6769" y2="205.6769"/><linearGradient id="Q" gradientUnits="userSpaceOnUse" x1="239.3052" x2="77.3368" xlink:href="#a" y1="211.5963" y2="211.5963"/><linearGradient id="R" gradientUnits="userSpaceOnUse" x1="233.2021" x2="71.2541" xlink:href="#a" y1="205.2687" y2="205.2687"/><linearGradient id="S" gradientUnits="userSpaceOnUse" x1="225.9559" x2="63.9874" xlink:href="#a" y1="239.3566" y2="239.3566"/><linearGradient id="T" gradientUnits="userSpaceOnUse" x1="228.1195" x2="66.1919" xlink:href="#a" y1="206.3914" y2="206.3914"/><linearGradient id="U" gradientUnits="userSpaceOnUse" x1="222.3634" x2="60.4153" xlink:href="#a" y1="190.1638" y2="190.1638"/><linearGradient id="V" gradientUnits="userSpaceOnUse" x1="201.9106" x2="39.9422" xlink:href="#a" y1="203.4316" y2="203.4316"/><linearGradient id="W" gradientUnits="userSpaceOnUse" x1="206.3196" x2="44.3716" xlink:href="#a" y1="137.6031" y2="137.6031"/><linearGradient id="X" gradientUnits="userSpaceOnUse" x1="216.7093" x2="54.7408" xlink:href="#a" y1="124.6417" y2="124.6417"/><linearGradient id="Y" gradientUnits="userSpaceOnUse" x1="212.484" x2="50.5564" xlink:href="#a" y1="108.9245" y2="108.9245"/><linearGradient id="Z" gradientUnits="userSpaceOnUse" x1="215.1376" x2="53.1691" xlink:href="#a" y1="87.9002" y2="87.9002"/><linearGradient id="aa" gradientUnits="userSpaceOnUse" x1="222.3634" x2="60.4153" xlink:href="#a" y1="85.859" y2="85.859"/><linearGradient id="ab" gradientUnits="userSpaceOnUse" x1="188.745" x2="26.7969" xlink:href="#a" y1="176.8961" y2="176.8961"/><linearGradient id="ac" gradientUnits="userSpaceOnUse" x1="233.2021" x2="71.2541" xlink:href="#a" y1="231.6" y2="231.6"/><g fill="#231f20"><path d="m351.04 81.57v62.26h22.66v-75.32z"/><path d="m426.77 127.09c-11.02 0-18.78-8.57-18.78-21.02s7.76-20.82 18.98-20.82c7.96 0 14.9 5.51 16.74 13.27l18.98-10.82c-5.72-13.06-19.6-21.84-36.54-21.84-23.68 0-40.82 16.94-40.82 40.21s17.35 40.21 41.03 40.21c20.82 0 36.95-12.66 38.58-30.21l-21.23-2.45c-1.84 7.96-8.78 13.47-16.94 13.47z"/><path d="m315.12 80.76v35.31l-25.93-47.56-23.68 13.67v61.65h21.23v-47.97l25.93 47.97h23.67v-75.32z"/><path d="m284.09 224.25-12.66-19.39h-3.26v23.88h2.86v-19.18h.2l12.45 19.18h3.47v-23.88h-3.06z"/><path d="m305.52 226.09c0-.41-.2-1.02-.2-1.43v-8.78c0-.82-.2-1.63-.61-2.45-.41-.61-.82-1.22-1.43-1.43-.61-.41-1.22-.61-2.04-.61s-1.63-.2-2.45 0c-1.02 0-1.84 0-2.65.2-.82.2-1.63.61-2.25 1.02s-1.22 1.02-1.63 1.84-.61 1.84-.61 2.65h2.86c0-1.02.41-2.04 1.22-2.65 1.02-.41 2.04-.82 3.06-.61h1.43c.41 0 .82.2 1.22.41.41.2.61.41.82.82.2.41.41 1.02.41 1.43s-.2.82-.41 1.22c-.41.41-.82.61-1.22.61-.61.2-1.22.2-1.84.41-.82 0-1.43.2-2.25.41s-1.43.2-2.25.61c-.61.2-1.22.41-1.84.82-.61.41-1.02.82-1.43 1.43-.61 1.43-.61 3.06 0 4.69.2.61.61 1.02 1.22 1.43s1.22.61 1.84.82c.82.2 1.43.2 2.25.2 1.22 0 2.25-.2 3.27-.61s2.04-1.22 2.65-2.04c0 .82.2 1.43.61 2.04.41.41 1.02.61 1.84.61.61 0 1.43-.2 2.04-.41v-2.25c-.2 0-.61.2-.82.2-.6.01-.81-.19-.81-.6zm-3.06-3.27c0 .41-.2.82-.2 1.22-.2.41-.61.82-1.02 1.22-.41.41-1.02.82-1.63 1.02-.82.2-1.63.41-2.45.41-.41 0-.82 0-1.22-.2-.41 0-.82-.2-1.02-.41-.41-.2-.61-.41-.82-.82-.2-.41-.2-.82-.2-1.22s0-1.02.2-1.43.41-.61.82-.82c.41-.2.61-.41 1.02-.61s.82-.2 1.43-.41c.41 0 1.02-.2 1.43-.2l1.43-.2c.41 0 .82-.2 1.22-.2.41 0 .61-.2 1.02-.41-.01 0-.01 3.06-.01 3.06z"/><path d="m313.69 206.29h-2.86v5.1h-2.86v2.45h2.86v11.23c0 .61 0 1.22.2 1.84.2.41.41.82.82 1.22.41.2.82.41 1.22.61.61.2 1.22.2 1.84.2h2.25v-2.45h-1.22c-.41 0-.82 0-1.02 0s-.41 0-.61-.2-.2-.2-.41-.41c0-.2 0-.61 0-.82v-10.82h3.47v-2.45h-3.47z"/><path d="m320.42 211.39h2.86v17.35h-2.86z"/><path d="m341.24 213.64c-.82-.82-1.63-1.43-2.65-1.84-2.25-1.02-4.9-1.02-7.14 0-1.02.41-1.84 1.02-2.65 1.84-.82.82-1.22 1.84-1.63 2.86-.61 2.25-.61 4.69 0 7.14.41 1.02.82 2.04 1.63 2.86s1.63 1.63 2.65 2.04c2.25 1.02 4.9 1.02 7.14 0 1.02-.41 1.84-1.22 2.65-2.04s1.22-1.84 1.63-2.86c.61-2.25.61-4.69 0-7.14-.4-1.03-.81-2.05-1.63-2.86zm-1.22 9.18c-.2.82-.61 1.43-1.22 2.04-.41.61-1.02 1.02-1.63 1.22s-1.43.41-2.04.41c-1.43 0-2.86-.61-3.88-1.63-.61-.61-.82-1.22-1.22-2.04-.2-.82-.41-1.84-.41-2.86s.2-1.84.41-2.86c.2-.82.61-1.43 1.22-2.04.41-.61 1.02-1.02 1.63-1.22s1.43-.41 2.04-.41 1.43.2 2.04.41 1.22.82 1.63 1.22c.61.61.82 1.22 1.22 2.04.2.82.41 1.84.41 2.86.21 1.03 0 2.05-.2 2.86z"/><path d="m359.82 212.82c-.41-.61-1.22-1.02-1.84-1.22-.82-.41-1.84-.41-2.86-.41-1.22 0-2.25.2-3.27.82-1.02.61-1.84 1.43-2.25 2.45v-2.65h-2.65v17.35h2.86v-10.21c0-.82 0-1.43.2-2.25.2-.61.61-1.22 1.02-1.63s1.02-.82 1.63-1.22c.61-.2 1.43-.41 2.25-.41 1.02 0 1.84.2 2.65 1.02.61.61 1.02 1.63 1.02 2.65v11.63h2.86v-11.43c0-.82 0-1.63-.2-2.65-.61-.61-.81-1.23-1.42-1.84z"/><path d="m379 226.09c0-.41-.2-1.02-.2-1.43v-8.78c0-.82-.2-1.63-.61-2.45-.41-.61-.82-1.02-1.43-1.43s-1.43-.61-2.04-.61c-.82-.2-1.63-.2-2.25-.2-1.02 0-1.84 0-2.86.2-.82.2-1.63.61-2.25 1.02-.61.41-1.22 1.02-1.63 1.84s-.61 1.84-.61 2.65h2.86c0-1.02.41-2.04 1.22-2.65 1.02-.41 2.04-.82 3.06-.61h1.43c.41 0 .82.2 1.22.41.41.2.61.41.82.82.2.41.41 1.02.41 1.43s-.2.82-.41 1.22c-.41.41-.82.61-1.22.61-.61.2-1.22.2-1.84.41-.82 0-1.43.2-2.25.41s-1.43.2-2.25.61c-.61.2-1.22.41-1.84.82-.61.41-1.02.82-1.22 1.43-.41.82-.61 1.63-.41 2.45 0 .82.2 1.43.41 2.25.2.61.61 1.02 1.22 1.43s1.22.61 1.84.82c.82.2 1.43.2 2.25.2 1.22 0 2.25-.2 3.27-.61s2.04-1.22 2.65-2.04c0 .82.2 1.43.61 2.04.41.41 1.02.61 1.84.61.61 0 1.43-.2 2.04-.41v-2.04c-.2 0-.61.2-.82.2-.6-.01-.8-.21-1.01-.62zm-2.85-3.27c0 .41-.2.82-.2 1.22-.2.41-.61.82-1.02 1.22-.41.41-1.02.82-1.63 1.02-1.22.41-2.45.41-3.67.2-.41 0-.82-.2-1.02-.41-.41-.2-.61-.41-.82-.82-.2-.41-.2-.82-.2-1.22s0-1.02.2-1.43.41-.61.82-.82c.41-.2.61-.41 1.02-.61s.82-.2 1.22-.41c.41 0 1.02-.2 1.43-.2l1.43-.2c.41 0 .82-.2 1.22-.2.41 0 .61-.2 1.02-.41z"/><path d="m383.49 204.86h2.86v23.88h-2.86z"/><path d="m400.64 204.86h3.27v23.88h-3.27z"/><path d="m421.67 212.82c-.41-.61-1.22-1.02-1.84-1.22-.82-.41-1.84-.41-2.86-.41-1.22 0-2.25.2-3.27.82s-1.84 1.43-2.25 2.45v-2.65h-2.86v17.35h2.86v-10.21c0-.82 0-1.43.41-2.25.2-.61.41-1.22 1.02-1.63.41-.41 1.02-.82 1.63-1.22.61-.2 1.43-.41 2.25-.41 1.02 0 1.84.2 2.65 1.02.61.61 1.02 1.63 1.02 2.65v11.63h2.86v-11.43c0-.82 0-1.63-.2-2.65-.61-.61-1.02-1.23-1.42-1.84z"/><path d="m433.1 204.66c-1.22 0-2.45.2-3.47 1.02-.82.82-1.22 2.04-1.22 3.27v2.65h-2.86v2.45h2.86v14.7h2.86v-14.7h3.27v-2.45h-3.27v-2.45c0-.61.2-1.22.61-1.63.41-.2 1.02-.41 1.63-.41h.82c.2 0 .61 0 .82.2v-2.45c-.2 0-.61-.2-.82-.2z"/><path d="m450.85 213.64c-.82-.82-1.63-1.43-2.65-1.84-1.22-.41-2.45-.82-3.67-.61-1.22 0-2.45.2-3.67.61-1.02.41-1.84 1.02-2.65 1.84-.82.82-1.22 1.84-1.63 2.86-.61 2.25-.61 4.69 0 7.14.41 1.02.82 2.04 1.63 2.86.61.82 1.63 1.63 2.65 2.04 1.22.41 2.45.61 3.67.61s2.45-.2 3.67-.61c1.02-.41 1.84-1.22 2.65-2.04s1.22-1.84 1.63-2.86c.82-2.25.82-4.69 0-7.14-.4-1.03-1.01-2.05-1.63-2.86zm-1.42 9.39c-.2.82-.61 1.43-1.22 2.04-1.43 1.63-3.88 2.04-5.92 1.22-.61-.2-1.22-.61-1.84-1.22-.61-.61-.82-1.22-1.22-2.04 0-1.02-.2-2.04-.2-2.86 0-1.02.2-1.84.41-2.86.2-.82.61-1.43 1.22-2.04.41-.61 1.02-1.02 1.84-1.22 1.22-.61 2.86-.61 4.08 0 .61.2 1.22.82 1.63 1.22.61.61.82 1.22 1.22 2.04.2.82.41 1.84.41 2.86-.01.82-.21 1.84-.41 2.86z"/><path d="m459.02 215.07v-3.67h-2.65v17.35h2.86v-7.76c0-1.02.2-2.04.41-2.86.2-.82.61-1.63 1.02-2.25.61-.61 1.22-1.02 2.04-1.43 1.02-.41 1.84-.41 2.86-.41v-2.86c-1.43 0-2.65.2-3.88 1.02-1.23.62-2.05 1.64-2.66 2.87z"/><path d="m490.05 212.21c-.61-.41-1.22-.82-1.84-.82-.82-.2-1.63-.2-2.25-.2-1.02 0-2.25.2-3.06.82-1.02.41-1.84 1.22-2.25 2.25-.2-1.02-1.02-1.84-1.84-2.25s-1.84-.61-2.86-.61c-2.25 0-4.29 1.02-5.51 2.86v-2.65h-2.65v17.35h2.86v-10.82c0-.41 0-.82.2-1.22.2-.61.41-1.02.82-1.43s.82-.82 1.43-1.22c.61-.41 1.43-.61 2.04-.61s1.02 0 1.63.2c.41.2.82.41 1.02.82s.41.82.61 1.22.2 1.02.2 1.63v11.23h2.86v-10.82c0-1.22.41-2.25 1.22-3.27.82-.82 2.04-1.22 3.27-1.22.61 0 1.22 0 1.63.41.41.2.82.41 1.02.82s.41.82.61 1.22c0 .41.2 1.02.2 1.43v11.23h2.86v-12.66c0-.82-.2-1.63-.41-2.25-1-.42-1.41-1.03-1.81-1.44z"/><path d="m509.64 226.09c0-.41-.2-1.02-.2-1.43v-8.78c0-.82-.2-1.63-.61-2.45-.41-.61-.82-1.02-1.43-1.43s-1.43-.61-2.04-.61c-.82-.2-1.63-.2-2.25-.2-1.02 0-1.84 0-2.65.2-.82.2-1.63.61-2.25 1.02-.61.41-1.22 1.02-1.63 1.84s-.61 1.84-.61 2.65h2.86c0-1.02.41-2.04 1.22-2.65 1.02-.41 2.04-.82 3.06-.61h1.43c.41 0 .82.2 1.22.41s.61.61.82.82c.2.41.41 1.02.41 1.43s-.2.82-.41 1.22c-.41.41-.82.61-1.22.61-.61.2-1.22.2-1.84.41-.61 0-1.43.2-2.25.41-.61.2-1.43.2-2.04.61-.61.2-1.22.41-1.84.82-.61.41-1.02.82-1.22 1.43-.41.82-.61 1.63-.41 2.45 0 .82.2 1.43.41 2.25.2.61.61 1.02 1.22 1.43s1.22.61 1.84.82c1.84.41 3.88.41 5.51-.41 1.02-.41 2.04-1.22 2.65-2.04 0 .82.2 1.43.61 2.04.41.41 1.02.61 1.84.61.61 0 1.43-.2 2.04-.41v-2.04c-.2 0-.61.2-.82.2-1.22-.01-1.42-.21-1.42-.62zm-3.06-3.27c0 .41-.2.82-.2 1.22-.2.41-.61.82-1.02 1.22-.41.41-1.02.82-1.63 1.02-.82.2-1.63.41-2.45.41-.41 0-.82 0-1.22-.2-.41 0-.82-.2-1.02-.41-.41-.2-.61-.41-.82-.82-.2-.41-.2-.82-.2-1.22s0-1.02.2-1.43.41-.61.82-.82c.41-.2.61-.41 1.02-.61s.82-.2 1.22-.41c.41 0 1.02-.2 1.43-.2l1.43-.2c.41 0 .82-.2 1.22-.2s.61-.2 1.02-.41z"/><path d="m517.81 206.29h-2.86v5.1h-2.86v2.45h2.86v11.23c0 .61 0 1.22.2 1.84.2.41.41.82.82 1.22.41.2.82.41 1.22.61.61.2 1.22.2 1.84.2h2.25v-2.45h-1.22c-.41 0-.82 0-1.02 0s-.41 0-.61-.2c-.2 0-.2-.2-.2-.41s-.2-.61-.2-.82v-10.82h3.47v-2.45h-3.47z"/><path d="m524.54 211.39h2.86v17.35h-2.86z"/><path d="m545.36 213.64c-.82-.82-1.63-1.43-2.65-1.84s-2.25-.61-3.47-.61-2.45.2-3.67.61c-1.02.41-1.84 1.02-2.65 1.84-.82.82-1.22 1.84-1.63 2.86-.61 2.25-.61 4.69 0 7.14.41 1.02.82 2.04 1.63 2.86.61.82 1.63 1.63 2.65 2.04 1.22.41 2.45.61 3.67.61s2.45-.2 3.67-.61c1.02-.41 1.84-1.22 2.65-2.04s1.22-1.84 1.63-2.86c.82-2.25.82-4.69 0-7.14-.4-1.03-1.01-2.05-1.83-2.86zm-1.22 9.18c-.2.82-.61 1.43-1.22 2.04-1.43 1.63-3.88 2.04-5.92 1.22-.61-.2-1.22-.61-1.84-1.22-.61-.61-.82-1.22-1.22-2.04-.2-.82-.41-1.84-.41-2.86s.2-1.84.41-2.86c.2-.82.61-1.43 1.22-2.04.41-.61 1.02-1.02 1.84-1.22 1.22-.61 2.86-.61 4.08 0 .61.2 1.22.82 1.63 1.22.61.61.82 1.22 1.22 2.04.2.82.41 1.84.41 2.86.2 1.03 0 2.05-.2 2.86z"/><path d="m563.94 212.82c-.41-.61-1.22-1.02-1.84-1.22-.82-.41-1.84-.41-2.86-.41-1.22 0-2.25.2-3.27.82-1.02.61-1.84 1.43-2.25 2.45v-2.65h-2.65v17.35h2.86v-10.21c0-.82 0-1.43.41-2.25.2-.61.61-1.22 1.02-1.63s1.02-.82 1.63-1.22c.82-.2 1.43-.41 2.25-.41 1.02 0 1.84.2 2.65 1.02.61.61 1.02 1.63 1.02 2.65v11.63h2.86v-11.43c0-.82 0-1.63-.2-2.65-.82-.61-1.02-1.23-1.63-1.84z"/><path d="m595.78 222.41c-.41.82-.82 1.63-1.43 2.25s-1.22 1.02-2.04 1.43-1.84.61-2.86.61c-1.22 0-2.45-.2-3.67-.82-1.02-.41-1.84-1.22-2.45-2.25s-1.22-2.04-1.43-3.27c-.41-1.22-.41-2.65-.41-3.88s.2-2.45.41-3.67c.2-1.02.82-2.25 1.43-3.06s1.43-1.63 2.45-2.25c1.22-.61 2.45-.82 3.67-.82.82 0 1.63.2 2.25.41.82.2 1.43.61 2.04 1.02s1.02 1.02 1.43 1.63.61 1.43.82 2.25h3.27c-.2-1.22-.61-2.25-1.22-3.47-.61-1.02-1.22-1.84-2.25-2.45-.82-.61-1.84-1.22-3.06-1.43-1.22-.41-2.45-.61-3.47-.61-1.63 0-3.27.2-4.9 1.02-1.43.61-2.65 1.63-3.47 2.65-1.02 1.22-1.63 2.65-2.25 4.08-.61 1.63-.82 3.06-.82 4.69s.2 3.27.61 4.9c.41 1.43 1.02 2.86 2.04 3.88 1.02 1.22 2.04 2.04 3.47 2.65s3.27 1.02 4.9 1.02c2.65.2 5.31-.82 7.35-2.45 1.84-1.84 3.06-4.29 3.06-6.94h-3.06c0 1.25-.21 2.07-.41 2.88z"/><path d="m616.39 214.45c-.61-1.02-1.43-1.84-2.45-2.45-1.22-.61-2.45-1.02-3.88-.82-1.02 0-2.25.2-3.27.61s-1.84 1.02-2.65 1.84c-.82.82-1.22 1.84-1.63 2.86-.41 1.22-.61 2.45-.61 3.67s.2 2.45.61 3.67c.41 1.02.82 2.04 1.63 2.86.61.82 1.63 1.43 2.65 1.84 1.22.41 2.45.82 3.67.61 1.84 0 3.47-.41 4.9-1.43s2.25-2.65 2.45-4.29h-2.86c-.2 1.02-.61 1.84-1.63 2.45-.82.61-1.84.82-2.86.82-.82 0-1.63-.2-2.45-.41-1.22-.61-2.25-1.63-2.65-3.06-.2-.61-.2-1.43-.2-2.25h12.86c0-1.02 0-2.25-.2-3.27-.4-1.2-.81-2.23-1.43-3.25zm-11.43 4.09c0-.61.2-1.22.41-1.84.2-.61.61-1.02 1.02-1.63.41-.41 1.02-.82 1.43-1.02.61-.2 1.43-.41 2.04-.41s1.22.2 2.04.41c.61.2 1.02.61 1.63 1.02.41.41.82 1.02 1.02 1.63s.41 1.22.41 1.84z"/><path d="m633.95 212.82c-.41-.61-1.22-1.02-1.84-1.22-.82-.41-1.84-.41-2.86-.41-1.22 0-2.25.2-3.27.82-1.02.61-1.84 1.43-2.25 2.45v-2.65h-2.65v17.35h2.86v-10.21c0-.82 0-1.43.2-2.25.2-.61.61-1.22 1.02-1.63s1.02-.82 1.63-1.22c.61-.2 1.43-.41 2.25-.41 1.02 0 1.84.2 2.65 1.02.61.61 1.02 1.63 1.02 2.65v11.63h2.86v-11.43c0-.82 0-1.63-.2-2.65-.6-.61-1.01-1.23-1.42-1.84z"/><path d="m643.34 206.29h-2.86v5.1h-2.86v2.45h2.86v11.23c0 .61 0 1.22.2 1.84.2.41.41.82.82 1.22.41.2.82.41 1.22.61.61.2 1.22.2 1.84.2h2.25v-2.45h-1.43c-.41 0-.82 0-1.02 0s-.41 0-.61-.2-.2-.41-.2-.61 0-.61 0-.82v-10.61h3.47v-2.45h-3.47v-5.51z"/><path d="m663.34 214.45c-.61-1.02-1.43-1.84-2.45-2.45-1.22-.61-2.45-1.02-3.88-1.02-1.02 0-2.25.2-3.27.61s-1.84 1.02-2.65 1.84c-.82.82-1.22 1.84-1.63 2.86-.41 1.22-.61 2.45-.61 3.67s.2 2.45.61 3.67c.41 1.02.82 2.04 1.63 2.86.61.82 1.63 1.43 2.65 1.84 1.22.41 2.45.82 3.67.61 1.84 0 3.47-.41 4.9-1.43s2.25-2.65 2.45-4.29h-2.86c-.2 1.02-.61 1.84-1.63 2.45-.82.61-1.84.82-2.86.82-.82 0-1.63-.2-2.45-.41-.61-.2-1.22-.61-1.63-1.22s-.82-1.22-1.02-1.84c-.2-.61-.2-1.43-.2-2.25h12.86c0-1.02 0-2.25-.2-3.27-.41-1-.82-2.03-1.43-3.05zm-11.22 4.09c0-.61.2-1.22.41-1.84.2-.61.61-1.02 1.02-1.63.41-.41 1.02-.82 1.43-1.02.61-.2 1.43-.41 2.04-.41s1.22.2 1.84.41 1.02.61 1.63 1.02c.41.41.82 1.02 1.02 1.63s.41 1.22.41 1.84z"/><path d="m670.49 215.07v-3.67h-2.65v17.35h2.86v-7.76c0-1.02 0-2.04.41-2.86.2-.82.61-1.63 1.02-2.25.61-.61 1.22-1.02 2.04-1.43 1.02-.41 1.84-.41 2.86-.41v-2.86c-1.43 0-2.65.2-3.88 1.02-1.03.62-2.05 1.64-2.66 2.87z"/><path d="m323.28 204.86h-2.86v3.47l2.86-1.63z"/><path d="m527.4 204.86h-2.86v3.47l2.86-1.63z"/><path d="m296.34 187.1c1.02-.2 1.63-1.02 2.04-1.84.2.61.61 1.22 1.02 1.63.61.41 1.43.61 2.25.61h28.78v-5.92c.2-2.04-.61-4.29-1.84-5.92-1.43-1.43-3.27-2.25-5.31-2.04-2.04 0-3.88.61-5.51 1.63-1.63 1.22-3.06 2.65-4.08 4.49v-17.15h-3.06v22.04h-8.98c-.61 0-1.02 0-1.43-.2s-.61-.41-1.02-.82c-.2-.41-.41-.82-.41-1.22 0-.61-.2-1.02-.2-1.63v-6.74h-2.86v7.98c0 .41 0 1.02-.2 1.43s-.41.61-.61.82-.61.2-1.02.41c-.41 0-1.02 0-1.43 0h-5.72c-2.86 0-5.72-.61-8.37-1.63v2.86c.82 0 1.43.2 2.45.41.82.2 1.63.61 2.65.82.82.2 1.43.61 2.04 1.02.41.41.82.82.82 1.43 0 .41-.2 1.02-.61 1.22-.61.41-1.22.82-1.84.82-1.22.61-2.04.82-3.06.82-1.02.2-2.25.2-3.27.2-2.45.2-4.69-.41-6.94-1.43-1.43-1.02-2.25-2.65-2.04-4.49v-4.71h-2.86v5.31c0 1.02.2 2.25.61 3.27s1.02 1.84 1.84 2.65c1.02.82 2.25 1.43 3.67 1.84 1.84.41 3.88.61 5.72.61s3.67-.2 5.31-.41c1.22-.2 2.45-.61 3.47-1.22.82-.41 1.63-1.02 2.04-1.84.41-.61.61-1.22.61-2.04 0-.41 0-1.02-.2-1.43s-.41-.82-.61-1.22h5.31c.8-.01 1.83-.21 2.85-.42zm18.57-5.31c.61-1.02 1.22-1.84 2.04-2.65.82-.82 1.63-1.43 2.65-1.84.82-.61 2.04-.82 3.06-.82.82 0 1.63.2 2.25.41s1.22.61 1.63 1.22.61 1.22.82 1.84c.2.82.2 1.43.2 2.25v2.45h-14.08c.41-1.02.82-2.04 1.43-2.86z"/><path d="m357.78 187.51v-24.9h-2.86v22.04h-7.76v-1.63c0-1.22-.2-2.45-.41-3.67-.2-1.02-.61-2.04-1.22-2.86s-1.22-1.43-2.04-1.84c-1.02-.41-2.04-.61-3.06-.61s-2.04.2-2.86.61-1.63 1.02-2.25 1.63c-.61.61-1.02 1.43-1.43 2.45-.41.82-.41 1.84-.41 2.86s.2 2.04.61 2.86c.2.82.82 1.43 1.43 1.84s1.22.82 2.04 1.02 1.63.41 2.65.41h3.88c0 .82-.2 1.63-.61 2.25-.41.61-1.02 1.02-1.63 1.43-.82.41-1.63.61-2.25.61-1.02.2-2.04.2-3.06.2h-1.02v2.86h1.63c1.43 0 2.65 0 3.88-.41 1.02-.2 2.04-.61 3.06-1.22.82-.61 1.63-1.22 2.04-2.25.61-1.02.82-2.25.82-3.47zm-13.48-2.86h-3.67c-1.02 0-2.04-.2-3.06-.82-.82-.61-1.02-1.63-1.02-2.65 0-.61 0-1.02.2-1.63s.41-1.02.82-1.43c.61-1.02 1.84-1.43 2.86-1.43 1.22-.2 2.45.41 3.06 1.63s1.02 2.65.82 4.08c-.01.01-.01 2.25-.01 2.25z"/><path d="m362.67 162.61h2.86v24.7h-2.86z"/><path d="m402.89 184.65h-16.94c-1.02 0-2.04 0-2.65 0s-1.22-.2-1.63-.41-.82-.61-.82-1.02c-.2-.61-.2-1.22-.2-1.63v-4.49h-2.86v5.31c0 .82 0 1.63.41 2.25.2.61.61 1.22 1.22 1.63s1.43.82 2.25.82c1.02.2 2.25.2 3.27.2h21.02v-13.27h-2.86z"/><path d="m427.18 185.47c1.02.82 2.25 1.43 3.47 1.84 1.02.41 2.25.61 3.27.61 1.63.2 3.27-.61 4.49-1.84 1.02-1.43 1.43-3.06 1.43-4.69 0-1.02-.2-2.04-.41-2.86-.2-.82-.82-1.63-1.22-2.25-.61-.61-1.22-1.02-1.84-1.43-.82-.41-1.63-.61-2.45-.61-.61 0-1.22 0-1.84.2s-1.43.61-1.84 1.02c-.61.61-1.22 1.22-1.84 2.04-.61 1.22-1.22 2.25-1.63 3.67-.2.61-.41 1.22-.82 1.63-.2.41-.61.61-.82 1.02-.2.2-.61.41-.82.41-.2.2-.61.2-.82.41h-7.14c-1.02 0-1.63-.2-2.04-.61-.41-.61-.41-1.43-.41-2.04v-19.19h-3.47v20c0 .82 0 1.63.41 2.25.2.61.61 1.02 1.02 1.43s1.02.61 1.63.82 1.43.2 2.04.2h7.35 1.22s.82 0 1.02-.2c.41-.2.61-.41 1.02-.61.42-.4.83-.81 1.04-1.22zm3.67-6.94c.61-.82 1.63-1.22 2.65-1.22.61 0 1.02.2 1.43.41.41.2.82.61 1.02.82.2.41.61.82.61 1.22.2.41.2 1.02.2 1.43 0 1.02-.2 2.04-.82 2.86-.61.61-1.43.82-2.25.82s-1.84-.2-2.65-.61c-.82-.41-1.84-.82-2.65-1.43.62-1.44 1.44-2.87 2.46-4.3z"/><path d="m515.15 162.61v22.04h-5.51c-.82 0-1.43-.2-2.04-.61-.41-.41-.82-1.02-1.02-1.63 0-.2 0-.2 0-.41v-.41c0-1.02-.2-1.84-.41-2.86-.41-.82-.82-1.43-1.22-2.04-.61-.61-1.22-1.02-1.84-1.43-.82-.41-1.63-.61-2.45-.61-.61 0-1.22 0-1.84.2s-1.22.61-1.84 1.02c-.61.61-1.22 1.22-1.84 2.04-.61 1.22-1.22 2.25-1.63 3.67-.2.61-.41 1.22-.82 1.63-.2.41-.61.61-.82 1.02-.2.2-.61.41-.82.41-.2 0-.61 0-.82 0h-6.12c-.61 0-1.22 0-1.84-.2 1.22-.82 2.25-1.84 2.86-3.06.61-1.02 1.02-2.25 1.02-3.67 0-.61-.2-1.02-.41-1.63-.2-.61-.61-1.02-1.02-1.43-.61-.41-1.22-.82-1.84-1.02-.82-.2-1.84-.41-2.65-.41-1.22 0-2.25.2-3.47.61-1.02.41-1.84 1.02-2.65 1.84-.2.2-.2.41-.41.61-.2.2-.2.41-.41.61-.2.2-.2.61-.41.82s-.2.61-.2.82l4.29 4.9c-1.63.41-3.27.82-5.1.61h-1.84c-.82 0-1.63-.41-2.25-1.02-.61-.82-.82-1.84-.82-2.86v-17.76h-2.86v19.39c0 .41 0 1.02-.2 1.43-.2.2-.2.61-.61.82-.2.2-.61.2-.82.41-.41 0-.82 0-1.02 0h-5.31v-1.63c0-1.22-.2-2.45-.41-3.67-.2-1.02-.61-2.04-1.22-2.86-.41-.82-1.22-1.43-2.04-1.84-1.02-.41-2.04-.61-3.06-.61s-2.04.2-2.86.61-1.43 1.02-2.04 1.63-1.02 1.43-1.43 2.45c-.41.82-.41 1.84-.41 2.86s.2 2.04.41 2.86c.41.61.82 1.43 1.43 1.84s1.22.82 2.04 1.02 1.84.41 2.65.41h3.88c0 .82-.2 1.63-.61 2.25-.41.61-1.02 1.02-1.63 1.43-.82.41-1.63.61-2.25.61-1.02.2-2.04.2-3.06.2h-1.02v2.86h1.43c1.43 0 2.65 0 4.08-.41 1.02-.2 2.04-.61 3.06-1.22.82-.61 1.63-1.22 2.04-2.25.61-1.02.82-2.25.82-3.47h4.9c1.22 0 2.45-.2 3.47-.41s1.63-1.02 2.04-1.84c.2.61.61 1.22 1.02 1.63.61.41 1.22.61 2.04.61h2.04c1.22 0 2.45-.2 3.67-.41 1.22-.2 2.25-.61 3.47-1.02.61.61 1.22.82 2.04 1.22.61.2 1.22.2 1.84.2h7.14 1.22s.82 0 1.02-.2c.41-.2.61-.41 1.02-.61.41-.41.61-.61.82-1.02 1.02.82 2.25 1.43 3.47 1.84 1.02.41 2.25.61 3.27.61s2.25-.2 3.27-.82c.82-.41 1.43-1.22 1.84-2.04.41.82.82 1.43 1.63 1.84.61.41 1.43.61 2.25.61h8.37v-25.11h-2.64zm-61.85 22.04h-3.67c-1.02 0-2.04-.2-3.06-.82-.82-.61-1.02-1.63-1.02-2.65 0-.61 0-1.02.2-1.63s.41-1.02.61-1.43c.41-.41.82-.82 1.22-1.02.61-.2 1.22-.41 1.84-.41 1.22-.2 2.45.41 3.06 1.63s1.02 2.65.82 4.08zm25.93-1.83-4.29-4.49c.61-.61 1.22-1.22 2.04-1.43.82-.41 1.63-.61 2.65-.61.82 0 1.84.2 2.65.61.41.41.82.82.82 1.43 0 .82-.41 1.84-1.02 2.45-.81.81-1.83 1.63-2.85 2.04zm23.67 1.42c-.61.61-1.43.82-2.25.82s-1.84-.2-2.65-.61c-.82-.41-1.84-.82-2.65-1.43.41-1.63 1.22-3.27 2.25-4.49.61-.82 1.63-1.22 2.65-1.22.61 0 1.02.2 1.43.41.41.2.82.61 1.02.82.2.41.61.82.61 1.22.2.41.2 1.02.2 1.43.21 1.22.01 2.24-.61 3.05z"/><path d="m522.7 162.61h2.86v24.7h-2.86z"/><path d="m555.98 171.18c-.2.2-.41.41-.41.61-.2.2-.2.61-.41.82-.2.2-.2.61-.2.82 1.22.61 2.45 1.22 3.67 2.04 1.02.82 2.25 1.63 3.06 2.45.82.61 1.63 1.43 2.25 2.45.41.61.82 1.22.82 2.04 0 .61-.2 1.43-.82 1.84-.61.2-1.43.41-2.04.41h-13.47c-.82.2-1.84-.2-2.45-1.02-.41-.82-.61-1.84-.61-2.86v-4.9h-2.86v9.39 3.06s-.2 1.43-.61 2.04-.82 1.02-1.43 1.22c-.82.2-1.84.41-2.65.41v2.86c1.22 0 2.65-.2 3.88-.41.82-.2 1.63-.82 2.25-1.43.61-.82 1.02-1.84 1.02-2.86.2-1.43.41-2.86.41-4.29.2.41.61.82 1.22 1.22s1.22.61 1.84.61h13.27c1.02 0 2.04-.2 3.06-.41.61-.2 1.22-.61 1.84-1.22.41-.41.61-1.02.82-1.63.2-.61.2-1.02.2-1.63 0-.82-.2-1.43-.41-2.25-.41-.82-.82-1.63-1.63-2.45-.82-1.02-1.84-1.84-2.86-2.65-1.22-1.02-2.65-2.04-4.08-2.86l10.21-4.49v-2.86l-12.66 5.51c-.02.22-.22.22-.22.42z"/><path d="m597.82 186.08c1.02-1.43 1.63-3.06 1.43-4.69 0-1.02-.2-2.04-.41-2.86s-.82-1.63-1.22-2.25c-.61-.61-1.22-1.02-2.04-1.43s-1.63-.61-2.45-.61c-.61 0-1.22 0-1.84.2-.61.2-1.43.61-1.84 1.02-.61.61-1.22 1.22-1.84 2.04-.61 1.22-1.22 2.25-1.63 3.67-.2.61-.41 1.22-.82 1.63-.2.41-.61.61-.82 1.02-.2.2-.61.41-1.02.41-.2 0-.61 0-.82 0h-1.43c-.82 0-1.63-.41-2.25-1.02-.41-.82-.61-1.84-.61-2.86v-4.69h-2.86v9.39 3.06c0 .61-.2 1.43-.61 2.04s-.82 1.02-1.43 1.22c-.82.2-1.84.41-2.65.41v2.86c1.22 0 2.45-.2 3.88-.41.82-.2 1.63-.82 2.25-1.43.61-.82 1.02-1.84 1.02-2.86.2-1.43.41-2.86.2-4.29.2.41.61.82 1.22 1.22.61.41 1.02.61 1.63.61h1.63 1.22c.41 0 .82 0 1.02-.2.41-.2.61-.41 1.02-.61.41-.41.61-.61 1.02-1.02 1.02.82 2.25 1.43 3.47 1.84 1.02.41 2.25.61 3.27.61 1.66.02 3.29-.59 4.31-2.02zm-2.25-2.04c-.61.61-1.43.82-2.25.82s-1.84-.2-2.65-.61c-.82-.41-1.84-.82-2.65-1.43.41-1.63 1.22-3.27 2.25-4.49.61-.82 1.63-1.22 2.65-1.22.41 0 1.02.2 1.43.41.41.2.82.41 1.02.82s.61.82.61 1.22c.2.41.2 1.02.2 1.43.42 1.42.01 2.44-.61 3.05z"/><path d="m545.36 167.51h-2.65v3.47l2.65-1.64z"/><path d="m298.58 166.49h-2.86v3.47l2.86-1.64z"/><path d="m395.54 168.53h-2.86v3.47l2.86-1.64z"/><path d="m391.05 168.53h-2.86v3.47l2.86-1.64z"/><path d="m280.41 197.72h-2.85v3.47l2.85-1.64z"/><path d="m276.13 197.72h-2.86v3.47l2.86-1.64z"/></g><path d="m150.6 109.13-26.74 15.51v31.23l26.74 15.51 26.94-15.51v-31.23z" fill="#03b585"/><path d="m153.45 176.08 21.64 12.66-21.64 12.45z" fill="url(#b)"/><path d="m126.3 94.84 21.64 12.45-21.64 12.66z" fill="url(#c)"/><path d="m123.86 155.87 26.74-15.72v31.23z" fill="url(#d)"/><path d="m150.6 109.13 26.94 15.51-26.94 15.51z" fill="url(#e)"/><path d="m98.54 53.61 16.33-9.39v18.57z" fill="url(#f)"/><path d="m156.11 70.55 16.33-9.39v18.78z" fill="url(#g)"/><path d="m212.65 84.02 16.12 9.19-16.12 9.39z" fill="url(#h)"/><path d="m212.65 115.25 16.12 9.39-16.12 9.39z" fill="url(#i)"/><path d="m229.59 140.15 16.12-9.38v18.77z" fill="url(#j)"/><path d="m183.25 190.16 16.13-9.39v18.78z" fill="url(#k)"/><path d="m98.54 208.74 16.33-9.59v18.98z" fill="url(#l)"/><path d="m66.7 155.87 16.33-9.39v18.78z" fill="url(#m)"/><path d="m178.36 96.47 21.63 12.45-21.63 12.46z" fill="url(#n)"/><path d="m180.6 124.64 21.64-12.65v25.1z" fill="url(#o)"/><path d="m180.6 127.7 21.64 12.45-21.64 12.66z" fill="url(#p)"/><path d="m180.6 155.87 21.64-12.45v24.9z" fill="url(#q)"/><path d="m178.36 158.93 21.63 12.66-21.63 12.45z" fill="url(#r)"/><path d="m153.45 173.02 21.64-12.45v24.9z" fill="url(#s)"/><path d="m126.3 188.74 21.64-12.66v25.11z" fill="url(#t)"/><path d="m126.3 160.57 21.64 12.45-21.64 12.45z" fill="url(#u)"/><path d="m101.4 171.59 21.64-12.66v25.11z" fill="url(#v)"/><path d="m120.79 155.87-21.63 12.45v-24.9z" fill="url(#w)"/><path d="m99.16 140.15 21.63-12.45v25.11z" fill="url(#x)"/><path d="m99.16 111.99 21.63 12.65-21.63 12.45z" fill="url(#y)"/><path d="m101.4 108.92 21.64-12.45v24.91z" fill="url(#z)"/><path d="m126.3 91.78 21.64-12.66v25.11z" fill="url(#A)"/><path d="m153.45 79.12 21.64 12.66-21.64 12.45z" fill="url(#B)"/><path d="m153.45 107.29 21.64-12.45v25.11z" fill="url(#C)"/><path d="m150.6 140.15 26.94 15.72-26.94 15.51z" fill="url(#D)"/><path d="m150.6 140.15 26.94-15.51v31.23z" fill="url(#E)"/><path d="m123.86 124.64 26.74 15.51-26.74 15.72z" fill="url(#F)"/><path d="m123.86 124.64 26.74-15.51v31.02z" fill="url(#G)"/><path d="m146.31 75.45-16.33 9.39v-18.78z" fill="url(#H)"/><path d="m123.45 45.44 16.33-9.39v18.78z" fill="url(#I)"/><path d="m158.15 38.91 16.12 9.39-16.12 9.39z" fill="url(#J)"/><path d="m194.07 49.93 16.13 9.39-16.13 9.39z" fill="url(#K)"/><path d="m178.36 87.7 16.32-9.39v18.78z" fill="url(#L)"/><path d="m222.85 107.7 16.13-9.39v18.78z" fill="url(#M)"/><path d="m211.63 166.28v-18.78l16.12 9.39z" fill="url(#N)"/><path d="m212.65 171.59 16.12-9.39v18.78z" fill="url(#O)"/><path d="m227.96 196.29 16.33 9.39-16.33 9.39z" fill="url(#P)"/><path d="m186.52 220.99v-18.78l16.33 9.39z" fill="url(#Q)"/><path d="m156.11 205.27 16.33-9.39v18.78z" fill="url(#R)"/><path d="m119.77 239.36 16.33-9.39v18.78z" fill="url(#S)"/><path d="m130.8 196.9 16.12 9.39-16.12 9.59z" fill="url(#T)"/><path d="m101.81 180.77 16.33 9.39-16.33 9.39z" fill="url(#U)"/><path d="m59.76 203.43 16.33-9.39v18.78z" fill="url(#V)"/><path d="m62.42 128.32 16.12 9.39-16.12 9.18z" fill="url(#W)"/><path d="m73.64 124.64 16.13-9.39v18.78z" fill="url(#X)"/><path d="m52.62 99.54 16.33 9.38-16.33 9.39z" fill="url(#Y)"/><path d="m65.68 87.9 16.33-9.39v18.78z" fill="url(#Z)"/><path d="m101.81 76.47 16.33 9.39-16.33 9.39z" fill="url(#aa)"/><path d="m56.7 168.73 14.08 8.17-14.08 8.16z" fill="url(#ab)"/><path d="m156.11 240.99v-18.78l16.33 9.39z" fill="url(#ac)"/></svg>