<svg xmlns="http://www.w3.org/2000/svg" width="24.67" height="20.957" viewBox="0 0 24.67 20.957">
  <g id="group" transform="translate(-0.5 472.995)">
    <path id="Path_11169" data-name="Path 11169" d="M170.958-472.942a4.889,4.889,0,0,0-1.419.512,5.021,5.021,0,0,0-1.579,1.559,4.277,4.277,0,0,0,.69,5.185,4.122,4.122,0,0,0,3.013,1.246,4.122,4.122,0,0,0,3.013-1.246,4.277,4.277,0,0,0,.69-5.185,5.021,5.021,0,0,0-1.579-1.559A4.456,4.456,0,0,0,170.958-472.942Z" transform="translate(-158.828 0)" fill="#bac1cc"/>
    <path id="Path_11170" data-name="Path 11170" d="M36.28-389.893a3.269,3.269,0,0,0-2.148,1.883,2.811,2.811,0,0,0-.232,1.236,2.987,2.987,0,0,0,.319,1.4,3.256,3.256,0,0,0,2.1,1.695,3.784,3.784,0,0,0,1.545,0,3.464,3.464,0,0,0,1.878-1.323,3.249,3.249,0,0,0,.164-3.3,3.59,3.59,0,0,0-1.3-1.3A3.353,3.353,0,0,0,36.28-389.893Z" transform="translate(-31.788 -78.998)" fill="#354a5f"/>
    <path id="Path_11171" data-name="Path 11171" d="M348.31-389.856a3.359,3.359,0,0,0-2,1.579,3.262,3.262,0,0,0-.15,2.708,3.335,3.335,0,0,0,2.192,1.917,3.785,3.785,0,0,0,1.545,0,3.267,3.267,0,0,0,2.341-2.341,4.06,4.06,0,0,0,.029-1.429,3.272,3.272,0,0,0-2.351-2.438A3.458,3.458,0,0,0,348.31-389.856Z" transform="translate(-328.755 -79.035)" fill="#354a5f"/>
    <path id="Path_11172" data-name="Path 11172" d="M139.934-276.664a3.277,3.277,0,0,0-1.767.985,3.413,3.413,0,0,0-.908,1.444l-.126.372-.014,4.055c-.01,3.988-.01,4.06.087,4.215a.888.888,0,0,0,.251.251c.154.1.256.1,5.4.1s5.243,0,5.4-.1a.888.888,0,0,0,.251-.251c.1-.154.1-.227.087-4.215l-.014-4.055-.126-.372a3.412,3.412,0,0,0-.908-1.444,3.413,3.413,0,0,0-1.444-.908l-.372-.125-2.752-.01A25,25,0,0,0,139.934-276.664Z" transform="translate(-130.02 -186.796)" fill="#bac1cc"/>
    <path id="Path_11173" data-name="Path 11173" d="M3.575-238.947a3.61,3.61,0,0,0-2.964,2.554C.5-236.031.5-236.021.5-233.52v2.51l.111.275a2.3,2.3,0,0,0,1.255,1.255c.266.106.323.111,2.1.125l1.82.014-.058-.159c-.072-.212-.111-7.589-.039-8.246a6.367,6.367,0,0,1,.13-.748c.043-.159.092-.338.1-.4L5.941-239l-1.028,0C4.343-238.99,3.739-238.971,3.575-238.947Z" transform="translate(0 -222.698)" fill="#354a5f"/>
    <path id="Path_11174" data-name="Path 11174" d="M398.824-238.894c.01.063.058.241.1.4a6.37,6.37,0,0,1,.13.748c.072.657.034,8.033-.039,8.246l-.058.159,1.82-.014c1.772-.014,1.83-.019,2.1-.125a2.3,2.3,0,0,0,1.255-1.255l.111-.275v-2.51c0-2.506,0-2.51-.116-2.873a3.578,3.578,0,0,0-2.274-2.39,6.216,6.216,0,0,0-2.09-.217H398.8Z" transform="translate(-379.071 -222.698)" fill="#354a5f"/>
  </g>
</svg>
