<svg xmlns="http://www.w3.org/2000/svg" width="24.5" height="24.5" viewBox="0 0 24.5 24.5">
  <g id="Group_5935" data-name="Group 5935" transform="translate(-1365 -179.5)">
    <g id="Category" transform="translate(1365.915 180.915)">
      <path id="Combined_Shape" data-name="Combined Shape" d="M16.891,24a3.059,3.059,0,0,1-3.047-3.072v-4.1a3.058,3.058,0,0,1,3.047-3.072h4.063A3.058,3.058,0,0,1,24,16.831v4.1A3.059,3.059,0,0,1,20.954,24ZM3.046,24A3.059,3.059,0,0,1,0,20.929v-4.1a3.058,3.058,0,0,1,3.046-3.072H7.109a3.058,3.058,0,0,1,3.047,3.072v4.1A3.059,3.059,0,0,1,7.109,24Zm0-13.759A3.058,3.058,0,0,1,0,7.169v-4.1A3.059,3.059,0,0,1,3.046,0H7.109a3.059,3.059,0,0,1,3.047,3.072v4.1a3.058,3.058,0,0,1-3.047,3.072Z" transform="translate(-0.915 -0.915)" fill="#bac1cc"/>
    </g>
    <path id="Fill_10" data-name="Fill 10" d="M3.046,0H7.109a3.059,3.059,0,0,1,3.046,3.072v4.1a3.06,3.06,0,0,1-3.046,3.072H3.046A3.06,3.06,0,0,1,0,7.17v-4.1A3.059,3.059,0,0,1,3.046,0" transform="translate(1378.845 180)" fill="#566c82" stroke="rgba(0,0,0,0)" stroke-miterlimit="10" stroke-width="1"/>
  </g>
</svg>
