<svg id="Notification" xmlns="http://www.w3.org/2000/svg" width="21.71" height="25.611" viewBox="0 0 21.71 25.611">
  <path id="Fill_1" data-name="Fill 1" d="M20.777,12.36A4.987,4.987,0,0,1,19.42,8.71V8.163a7.122,7.122,0,0,0-1.527-4.8A8.981,8.981,0,0,0,10.912,0H10.8A9.018,9.018,0,0,0,3.93,3.22,7.221,7.221,0,0,0,2.29,8.163V8.71A4.876,4.876,0,0,1,.933,12.36,4.319,4.319,0,0,0,0,15.32a4.633,4.633,0,0,0,1.1,3.047,5.78,5.78,0,0,0,3.7,1.811,53.005,53.005,0,0,0,6.049.316c2.035,0,4.041-.145,6.049-.316a5.78,5.78,0,0,0,3.7-1.811,4.64,4.64,0,0,0,1.1-3.047,4.319,4.319,0,0,0-.933-2.961" transform="translate(0 0)" fill="#bac1cc"/>
  <path id="Fill_4" data-name="Fill 4" d="M6.3.1A32.689,32.689,0,0,0,1.136.1C.59.228,0,.522,0,1.165a1.98,1.98,0,0,0,.888,1.5h0A4.643,4.643,0,0,0,3.077,3.6a4.9,4.9,0,0,0,1.287,0,4.644,4.644,0,0,0,2.188-.935h0a1.98,1.98,0,0,0,.888-1.5C7.439.522,6.849.228,6.3.1" transform="translate(7.117 21.969)" fill="#354a5f"/>
</svg>
