<svg xmlns="http://www.w3.org/2000/svg" width="23.134" height="22.795" viewBox="0 0 23.134 22.795">
  <g id="owner" transform="translate(-5.128 506.551)">
    <path id="Path_11166" data-name="Path 11166" d="M59.291-506.539a6.051,6.051,0,0,0-5.232,4.144,5.8,5.8,0,0,0,.028,3.54,5.975,5.975,0,0,0,5.6,4.084,5.89,5.89,0,0,0,4.831-2.526l.235-.332h.4a1.4,1.4,0,0,0,1.245-.535l.4-.383.438.383c.493.429.581.489.756.489s.267-.06.715-.438c.217-.18.419-.346.452-.364s.184.092.461.383c.378.4.41.42.59.42a.538.538,0,0,0,.323-.1c.332-.258,2.134-1.885,2.217-2.005a1.1,1.1,0,0,0,.207-.705c0-.489-.115-.655-1.129-1.6-1.06-.991-1.056-.987-1.424-1.162a4.079,4.079,0,0,0-1.835-.23c-.493,0-1.535-.014-2.314-.032l-1.415-.028-.226-.35a5.909,5.909,0,0,0-3.725-2.535A6.91,6.91,0,0,0,59.291-506.539Zm-.936,4.264a1.8,1.8,0,0,1,.9.857,1.191,1.191,0,0,1,.152.724,1.24,1.24,0,0,1-.148.724,1.672,1.672,0,0,1-.834.834,1.241,1.241,0,0,1-.724.147,1.191,1.191,0,0,1-.724-.152,1.708,1.708,0,0,1-.954-1.844A1.717,1.717,0,0,1,58.356-502.275Zm9.1,1.5a.234.234,0,0,1,0,.346c-.069.078-.175.083-1.388.083-1.162,0-1.328-.009-1.4-.078a.234.234,0,0,1,0-.346c.069-.078.175-.083,1.388-.083C67.22-500.855,67.386-500.846,67.46-500.777Z" transform="translate(-46.425)" fill="#bac1cc"/>
    <path id="Path_11167" data-name="Path 11167" d="M123.148-243.725c-.254.065-.258.069-1.572.982a11.7,11.7,0,0,1-1.212.793,1.491,1.491,0,0,0-.419-.562c-.387-.3-.724-.309-1.507-.06a3.84,3.84,0,0,1-1.71.143c-.175-.032-.659-.166-1.079-.3a6.3,6.3,0,0,0-2.144-.424,8.691,8.691,0,0,0-4.241.931l-.908.387-.161-.12c-.272-.207-.549-.2-1.1.028a4.063,4.063,0,0,0-.5.235c-.032.032,2.784,6.919,2.877,7.021a3.393,3.393,0,0,0,1.051-.443.885.885,0,0,0,.263-.5c.028-.148.06-.18.258-.267a2.164,2.164,0,0,1,1.254-.134,13.856,13.856,0,0,0,2.6-.069,15.127,15.127,0,0,0,3.923-1.1,39.756,39.756,0,0,0,5.191-3.485c.627-.493.715-.585.885-.908a1.677,1.677,0,0,0,.065-1.226,1.58,1.58,0,0,0-.774-.811A1.8,1.8,0,0,0,123.148-243.725Zm.963.618a1.036,1.036,0,0,1,.277,1.448,36.26,36.26,0,0,1-5.831,4.052,13.813,13.813,0,0,1-5.4,1.116c-1.95-.028-1.858-.037-2.448.207a11.656,11.656,0,0,1-1.093-2.494c-.562-1.392-1.023-2.549-1.023-2.577a17.707,17.707,0,0,1,2.1-.908,8.34,8.34,0,0,1,3.568-.332,10.341,10.341,0,0,1,1.129.3,5.724,5.724,0,0,0,1.71.4,3.7,3.7,0,0,0,1.53-.221c.724-.23.959-.189,1.189.207.263.452.175.807-.3,1.245a3.076,3.076,0,0,1-2.452.71c-.844-.009-.862,0-.862.249,0,.217.12.244,1.014.24a3.673,3.673,0,0,0,2.024-.4c.6-.341,1.2-1.014,1.2-1.355,0-.129.074-.189,1.129-.927,1.438-1,1.54-1.069,1.719-1.1l.217-.041A1.141,1.141,0,0,1,124.112-243.107Z" transform="translate(-96.789 -250.676)" fill="#354a5f"/>
    <path id="Path_11168" data-name="Path 11168" d="M7.782-193.974c-1.554.655-1.729.742-2.033,1.042a2.062,2.062,0,0,0-.618,1.669l.018.447.678,1.627c.373.9.733,1.738.8,1.867a2.257,2.257,0,0,0,2.457,1.074c.212-.055,3.07-1.235,3.121-1.291.014-.014-2.877-7.03-2.909-7.062C9.3-194.606,8.616-194.325,7.782-193.974Z" transform="translate(0 -297.569)" fill="#354a5f"/>
  </g>
</svg>
