<svg id="Layer_1" data-name="Layer 1" xmlns="http://www.w3.org/2000/svg" viewBox="0 0 1265.7 451.4"><defs><style>.cls-1{fill:none;stroke:#000;stroke-miterlimit:10;}</style></defs><path d="M1338,221V591.2a3.4,3.4,0,0,1-3.4,3.4h-86.9a3.4,3.4,0,0,1-3.4-3.4V149.8a3.4,3.4,0,0,1,3.4-3.3h15.7A74.5,74.5,0,0,1,1338,221Z" transform="translate(-72.3 -143.2)"/><path d="M1012.7,386.1V497.5a3.4,3.4,0,0,1-3.3,3.4H873.5a3.4,3.4,0,0,1-3.4-3.4V236.8a90.3,90.3,0,0,0-90.3-90.3h0a3.4,3.4,0,0,0-3.4,3.3V497.5a3.4,3.4,0,0,1-3.3,3.4H661.7a3.4,3.4,0,0,0-3.4,3.4v86.9a3.4,3.4,0,0,0,3.4,3.4h559.5a3.4,3.4,0,0,0,3.4-3.4V471.4a88.7,88.7,0,0,0-88.7-88.7H1016.1A3.4,3.4,0,0,0,1012.7,386.1Zm114.8,114.8h-17.7a3.4,3.4,0,0,1-3.4-3.4V479.8a3.4,3.4,0,0,1,3.4-3.4h17.7a3.4,3.4,0,0,1,3.4,3.4v17.7A3.4,3.4,0,0,1,1127.5,500.9Z" transform="translate(-72.3 -143.2)"/><path d="M638.5,453.5v133a3.4,3.4,0,0,1-3.3,3.4H75.6a3.4,3.4,0,0,1-3.3-3.4V499.6a3.4,3.4,0,0,1,3.3-3.4H541.5a3.3,3.3,0,0,0,3.3-3.3V475.1a3.4,3.4,0,0,0-3.3-3.4H193.8a3.4,3.4,0,0,1-3.4-3.3v-157a51.6,51.6,0,0,1,51.5-51.5H430c82.5-1.5,90.4,40.5,90.4,90.3h0a3.4,3.4,0,0,1-3.4,3.4H287.5a3.4,3.4,0,0,0-3.4,3.4v17.7a3.4,3.4,0,0,0,3.4,3.4H563.1A75.3,75.3,0,0,1,638.5,453.5Z" transform="translate(-72.3 -143.2)"/><path class="cls-1" d="M688.7,164.1q-7.8,14.8-7.8,27.6h2.9c6.8-1.7,10.3-6.8,10.3-15.3A16.5,16.5,0,0,0,688.7,164.1Zm-7.8,31.6V210c.6-.4,4.2-5.2,10.6-14.3Zm0,15.8v27.2q.6,0,10.2-13.8Zm0,28.7v27.1c.4,0,3.8-4.6,10.2-13.7Zm0,28.8v27q.6,0,10.2-13.8Zm0,28.7v27q.6,0,10.2-13.8Zm0,28.7v14.3h10.6C691.3,339.9,687.8,335.1,680.9,326.4Zm11-128.6L682.6,211c0,.5,3.1,4.8,9.3,12.8.5,0,3.6-4.3,9.5-12.8C701.4,210,698.3,205.6,691.9,197.8Zm0,28.7-9.3,13.3q0,.8,9.3,12.6c.5,0,3.6-4.2,9.5-12.6v-.6C701.4,238.7,698.3,234.4,691.9,226.5Zm-9.3,41.4v.6q0,.6,9.3,12.6.8,0,9.9-13.2l-9.9-12.8C691.7,255.1,688.5,259.4,682.6,267.9Zm0,28.7c0,.4,3.2,4.8,9.8,13.2l9.4-13.2-9.9-12.8C691.6,283.8,688.5,288,682.6,296.6Zm0,28.6c0,.5,3.2,4.9,9.8,13.2l9.4-13.2-9.9-12.6Q691.5,312.6,682.6,325.2Zm11.5-156.1v.6a20.2,20.2,0,0,1,1.1,7.2c0,7.1-2.6,12.2-7.7,15.3v.6H703c.6-5.2,1.5-9,2.8-11.5v-.5c0-.5-3.7-4.4-11.3-11.7Zm-3.7-7.1c2.4,3.6,5.3,5.4,8.5,5.4,6.4,0,10.1-5.1,11-15.3,0-3.7-.3-5.6-1.1-5.6C703.5,147.9,697.4,153,690.4,162Zm2,33.7c.2.7,3.7,5.5,10.6,14.3V195.7Zm0,145H703V326.4C702.4,326.7,698.8,331.4,692.4,340.7Zm10.2-129.2q0,1.6-8.1,11.7l-1.3,2.3c0,.4,3.3,4.8,9.8,13.2V211.5Zm-9.4,42.1v.5c0,.5,3.3,4.9,9.8,13.2V240.2C702.7,240.2,699.5,244.7,693.2,253.6Zm0,28.6v.6c0,.5,3.3,4.9,9.8,13.2V269C702.6,269,699.4,273.4,693.2,282.2Zm0,28.7c6.3,8.4,9.4,13,9.4,13.8h.4v-27C702.6,297.7,699.4,302.1,693.2,310.9Zm18-157.3c0,7-3.1,12-9.4,14.9-.3.4-1.3.6-2.9.6h-2c0,.3,3.3,3.6,9.8,9.9,3.9-5.4,6.8-8.2,8.6-8.2,0-.9-1.2-6.7-3.7-17.2Zm-4.1,28.7a51.1,51.1,0,0,0-2.4,10.5h11l.5-2.7-8.3-7.8Zm-2.4,13.4v27.5h16.7v-2.3l-8.2-11.5v-.5l8.2-11.7v-1.5Zm0,29.8v26.9h16.7V225.5Zm0,29.2v27h16.7V280l-8.6-12.1,8.6-12.2v-1Zm0,29.1v27.7h16.7V283.8Zm0,29.8v27.1h16.7V339l-8.6-12.1,8.6-12.2v-1.1Zm3.7-133.4c0,.5,2.8,3.4,8.5,8.8,0-.8.8-1.5,2.5-2.3-2.2-8.8-3.2-13.6-3.2-14.3A19.5,19.5,0,0,0,708.4,180.2Zm2.8-34.8c0,6.2,3.3,10.4,9.8,12.6h1.7c6.2-1.9,9.4-6,9.4-12v-1.2a58.9,58.9,0,0,0-9-1.1h-1.7A37.4,37.4,0,0,0,711.2,145.4Zm12.3,14.3h-3.3c-2.1,0-4.4-1.4-7-4.4v.6c2.2,8.1,3.3,12.6,3.3,13.8a30.2,30.2,0,0,1,5.8-1.2,19.6,19.6,0,0,1,5.2,1.2l3.7-15.5C728.3,157.9,725.8,159.7,723.5,159.7Zm-8.6,49.2v.5c0,.5,2.5,3.8,7.4,10q.5,0,7.8-10.5l-7.8-10C722,198.9,719.5,202.2,714.9,208.9Zm0,59q0,.8,7.8,10.5l7.4-10.5-7.8-9.9C721.9,258,719.5,261.3,714.9,267.9Zm0,59c0,.5,2.5,3.8,7.4,10,.3,0,2.8-3.3,7.3-10,0-.4-2.4-3.7-7.3-9.9C721.9,317,719.5,320.3,714.9,326.9ZM717.3,172c1.8,9.1,3.1,13.7,3.7,13.7h2.8c1.7-8,2.8-12.6,3.3-13.7a22,22,0,0,0-4.8-1.2A24.1,24.1,0,0,0,717.3,172Zm5.8,23.7v1.5l8.5,12.2-8.5,12.1v1.7h16.7V195.7Zm0,29.8v26.9h16.7V225.5Zm0,29.2v1l8.5,12.2L723.1,280v1.7h16.7v-27Zm0,29.1v27.7h16.7V283.8Zm0,29.8v1.1l8.5,12.2L723.1,339v1.7h16.7V313.6ZM728,172.9c-1.9,8.5-2.9,13.1-2.9,13.8s1.4.6,2.4,1.7c5.7-5.4,8.6-8.3,8.7-8.8C732.9,175.2,730.2,172.9,728,172.9Zm.4,17.8q.6,2.1,1.2,2.1h10.2q0-2.9-2.4-11.1h-.8C731.1,186.8,728.4,189.7,728.4,190.7Zm4.1-36.5c0,.7-1.3,6-3.7,16,1.7,0,4.6,2.8,8.6,8.3,5.1-4.8,8.3-7.8,9.8-8.8v-.6q-10.2,0-13.5-9.9a29.9,29.9,0,0,1-.8-5Zm2.4-8.2a26.2,26.2,0,0,0-.7,4.9v1.2c.9,10.2,4.6,15.3,10.9,15.3,3.3,0,6.2-1.8,8.6-5.4v-.6C746.9,152.8,740.7,147.7,734.9,146Zm3.3,34.8q1.6,0,3.3,12h15.1v-.6c-5.4-2.7-8.1-8-8.1-15.8a63.5,63.5,0,0,1,1.1-7.3C742.8,175.4,739,179.2,738.2,180.8Zm3.3,14.9V210c.6-.4,4.1-5.2,10.7-14.3Zm0,15.8v27.2q10.2-13.2,10.2-13.8Zm0,28.7v27.1c.4,0,3.8-4.6,10.2-13.7Zm0,28.8v27q.6,0,10.2-13.8Zm0,28.7v27q.6,0,10.2-13.8Zm0,28.7v14.3h10.7C751.9,339.9,748.3,335.1,741.5,326.4Zm11-128.6L743.1,211c0,.5,3.1,4.8,9.4,12.8.4,0,3.6-4.3,9.5-12.8v-.4C762,210,758.8,205.7,752.5,197.8Zm0,28.7c-6.3,8.1-9.4,12.7-9.4,13.7l9.4,12.2c.3,0,3.5-4.2,9.5-12.6v-.6C762,238.7,758.8,234.4,752.5,226.5Zm-9.4,41.4v.6c0,.3,3.1,4.6,9.4,12.6q.6,0,9.9-13.2l-9.9-12.8C752.1,255.1,749,259.4,743.1,267.9Zm0,28.7c0,.8,3,5,9.1,12.6v.6h.3q.6,0,9.9-13.2l-9.9-12.8C752.1,283.8,749,288,743.1,296.6Zm0,28.6c0,.5,3.3,4.9,9.8,13.2l9.5-13.2-9.9-12.6C752.1,312.6,749,316.8,743.1,325.2Zm7-150v3.3c1.6,8.8,4.8,13.2,9.7,13.2h3.7v-.4c0-9.2-2.7-18.3-8.1-27.2H755C751.7,167.6,750.1,171.2,750.1,175.2Zm2.8,20.5c.3.7,3.8,5.5,10.6,14.3V195.7Zm0,145h10.6V326.4C763,326.7,759.4,331.4,752.9,340.7Zm.8-115.2c0,.2,3.3,4.6,9.8,13.2V212.1C763.2,212.1,759.9,216.6,753.7,225.5Zm9.5,14.7c0,.4-3.1,4.8-9.5,13.4v.5c0,.5,3.3,4.9,9.8,13.2V240.2Zm-9.5,42v.6c0,.2,3.3,4.6,9.8,13.2V269C763.2,269,759.9,273.4,753.7,282.2Zm0,28.7V312c.6,0,3.8,4.1,9.5,12.1v.6h.3v-27C763.2,297.7,759.9,302.1,753.7,310.9Zm-73.4,29.7v14.3c.6-.4,4.2-5.2,10.6-14.3m-10.6,15.9v27.1q.6,0,10.2-13.8Zm0,28.6v27.1c.4,0,3.8-4.6,10.2-13.7Zm0,28.8v27q.6,0,10.2-13.8Zm0,28.7v27q.6,0,10.2-13.8Zm0,28.7v14.3h10.6C690.7,484.8,687.2,480,680.3,471.3Zm11-128.6L682,355.9c0,.6,3.1,4.8,9.3,12.8.5,0,3.6-4.3,9.5-12.8C700.8,354.9,697.7,350.5,691.3,342.7Zm0,28.7L682,384.7q0,.8,9.3,12.6c.5,0,3.6-4.2,9.5-12.6v-.6C700.8,383.6,697.7,379.3,691.3,371.4ZM682,412.8v.6q0,.6,9.3,12.6.8,0,9.9-13.2L691.3,400C691.1,400,687.9,404.3,682,412.8Zm0,28.7c0,.4,3.2,4.8,9.8,13.2l9.4-13.2-9.9-12.8C691,428.7,687.9,433,682,441.5Zm0,28.6c0,.5,3.2,4.9,9.8,13.2l9.4-13.2-9.9-12.6Q690.9,457.5,682,470.1Zm9.8-129.5c.2.7,3.7,5.5,10.6,14.3V340.6m-10.6,145h10.6V471.3C701.8,471.6,698.2,476.3,691.8,485.6ZM702,356.5c0,1-2.7,4.9-8.1,11.6l-1.3,2.3c0,.4,3.3,4.8,9.8,13.2V356.5Zm-9.4,42v.5c0,.5,3.3,4.9,9.8,13.2V385.1C702.1,385.1,698.8,389.6,692.6,398.5Zm0,28.6v.6c0,.5,3.3,4.9,9.8,13.2v-27C702,413.9,698.8,418.3,692.6,427.1Zm0,28.7c6.2,8.4,9.4,13,9.4,13.8h.4v-27C702,442.6,698.8,447,692.6,455.8Zm11.5-115.2v27.5h16.7v-2.3l-8.2-11.5v-.5l8.2-11.7v-1.5m-16.7,29.8v26.9h16.7V370.4Zm0,29.2v27h16.7v-1.7l-8.6-12.1,8.6-12.2v-1Zm0,29.1v27.7h16.7V428.7Zm0,29.8v27.1h16.7v-1.7l-8.6-12.1,8.6-12.2v-1.1Zm10.2-104.7v.5c0,.5,2.4,3.8,7.4,10,.3,0,2.9-3.5,7.7-10.5l-7.7-10C721.4,343.8,718.9,347.1,714.3,353.8Zm0,59q0,.8,7.8,10.5l7.3-10.5-7.7-9.9C721.3,402.9,718.8,406.2,714.3,412.8Zm0,59c0,.5,2.4,3.8,7.4,10,.3,0,2.8-3.3,7.3-10,0-.4-2.4-3.7-7.3-9.9C721.3,461.9,718.8,465.2,714.3,471.8Zm8.2-131.2v1.5l8.5,12.2-8.5,12.1v1.7h16.7V340.6m-16.7,29.8v26.9h16.7V370.4Zm0,29.2v1l8.5,12.2-8.5,12.1v1.7h16.7v-27Zm0,29.1v27.7h16.7V428.7Zm0,29.8v1.1l8.5,12.2-8.5,12.1v1.7h16.7V458.5Zm18.4-117.9v14.3c.6-.4,4.1-5.2,10.7-14.3m-10.7,15.9v27.1q10.2-13.2,10.2-13.8Zm0,28.6v27.1c.4,0,3.8-4.6,10.2-13.7Zm0,28.8v27q.6,0,10.2-13.8Zm0,28.7v27q.6,0,10.2-13.8Zm0,28.7v14.3h10.7C751.3,484.8,747.7,480,740.9,471.3Zm11-128.6-9.4,13.2c0,.6,3.1,4.8,9.4,12.8.4,0,3.5-4.3,9.4-12.8v-.4C761.3,354.9,758.2,350.6,751.9,342.7Zm0,28.7c-6.3,8.1-9.4,12.7-9.4,13.7l9.4,12.2c.3,0,3.5-4.2,9.4-12.6v-.6C761.3,383.6,758.2,379.3,751.9,371.4Zm-9.4,41.4v.6c0,.3,3.1,4.6,9.4,12.6q.6,0,9.9-13.2L751.9,400C751.5,400,748.4,404.3,742.5,412.8Zm0,28.7c0,.8,3,5,9.1,12.6v.6h.3q.6,0,9.9-13.2l-9.9-12.8C751.5,428.7,748.4,433,742.5,441.5Zm0,28.6c0,.5,3.3,4.9,9.8,13.2l9.5-13.2-9.9-12.6C751.5,457.5,748.4,461.7,742.5,470.1Zm9.8-129.5c.3.7,3.8,5.5,10.6,14.3V340.6m-10.6,145h10.6V471.3C762.4,471.6,758.8,476.3,752.3,485.6Zm.8-115.2c0,.2,3.3,4.6,9.8,13.2V357C762.6,357,759.3,361.5,753.1,370.4Zm9.5,14.7c0,.4-3.2,4.8-9.5,13.4v.5c0,.5,3.3,4.9,9.8,13.2V385.1Zm-9.5,42v.6c0,.2,3.3,4.6,9.8,13.2v-27C762.6,413.9,759.3,418.3,753.1,427.1Zm0,28.7v1.1c.6,0,3.8,4.1,9.5,12.1v.6h.3v-27C762.6,442.6,759.3,447,753.1,455.8Z" transform="translate(-72.3 -143.2)"/></svg>