<svg id="Layer_1" data-name="Layer 1" xmlns="http://www.w3.org/2000/svg" viewBox="0 0 886.3 116.3"><defs><style>.cls-1{fill:#fff;}</style></defs><path class="cls-1" d="M1126.4,362.6v79.1a.8.8,0,0,1-.7.7h-18.6a.7.7,0,0,1-.7-.7V347.4a.7.7,0,0,1,.7-.7h3.4A15.9,15.9,0,0,1,1126.4,362.6Z" transform="translate(-240.1 -326.1)"/><path d="M510.4,342.6v79.1a.8.8,0,0,1-.7.7H491.1a.7.7,0,0,1-.7-.7V327.4a.7.7,0,0,1,.7-.7h3.4A15.9,15.9,0,0,1,510.4,342.6Z" transform="translate(-240.1 -326.1)"/><path d="M440.9,377.9v23.8a.7.7,0,0,1-.7.7h-29a.7.7,0,0,1-.7-.7V346a19.3,19.3,0,0,0-19.3-19.3h0a.7.7,0,0,0-.7.7v74.3a.8.8,0,0,1-.7.7H366a.7.7,0,0,0-.7.7v18.6a.7.7,0,0,0,.7.7H485.4a.8.8,0,0,0,.8-.7V396.1a18.9,18.9,0,0,0-19-18.9H441.6A.7.7,0,0,0,440.9,377.9Zm24.5,24.5h-3.8a.7.7,0,0,1-.7-.7v-3.8a.7.7,0,0,1,.7-.7h3.8a.8.8,0,0,1,.8.7v3.8A.8.8,0,0,1,465.4,402.4Z" transform="translate(-240.1 -326.1)"/><path d="M361,392.3v28.4a.7.7,0,0,1-.7.7H240.8a.7.7,0,0,1-.7-.7V402.1a.7.7,0,0,1,.7-.7h99.5a.7.7,0,0,0,.7-.7v-3.8a.7.7,0,0,0-.7-.7H266.1a.8.8,0,0,1-.7-.8V361.9a11,11,0,0,1,10.9-11h40.2c17.6-.3,19.3,8.7,19.3,19.3h0a.7.7,0,0,1-.7.7h-49a.8.8,0,0,0-.7.8v3.7a.8.8,0,0,0,.7.8h58.8A16.1,16.1,0,0,1,361,392.3Z" transform="translate(-240.1 -326.1)"/><path d="M371.7,330.5a12.8,12.8,0,0,0-1.6,5.9h.6c1.5-.4,2.2-1.5,2.2-3.3A3.4,3.4,0,0,0,371.7,330.5Zm-1.6,6.7v3.1a32,32,0,0,0,2.2-3.1Zm0,3.4v5.8a23.4,23.4,0,0,0,2.1-2.9Zm0,6.1v5.8a23.4,23.4,0,0,0,2.1-2.9Zm0,6.2v5.7a16.3,16.3,0,0,0,2.1-2.9Zm0,6.1v5.8a21.1,21.1,0,0,0,2.1-3Zm0,6.1v3.1h2.2A24.8,24.8,0,0,0,370.1,365.1Zm2.3-27.4-2,2.8a32.2,32.2,0,0,0,2,2.7,19.2,19.2,0,0,0,2.1-2.7A15.1,15.1,0,0,0,372.4,337.7Zm0,6.1-2,2.8,2,2.7a19.2,19.2,0,0,0,2.1-2.7h0A24.9,24.9,0,0,0,372.4,343.8Zm-2,8.8v.2l2,2.7a23.4,23.4,0,0,0,2.1-2.9l-2.1-2.7Zm0,6.2,2.1,2.8,2-2.8-2.1-2.8Zm0,6.1a31.8,31.8,0,0,0,2.1,2.8l2-2.8-2.1-2.7Zm2.5-33.3h0a6.1,6.1,0,0,1,.2,1.5,3.6,3.6,0,0,1-1.6,3.3h3.3a5.9,5.9,0,0,1,.6-2.4V334a21.2,21.2,0,0,0-2.4-2.4Zm-.8-1.6a2.1,2.1,0,0,0,1.8,1.2q2.1,0,2.4-3.3,0-1.2-.3-1.2T372.1,330Zm.4,7.2a36.5,36.5,0,0,0,2.3,3.1v-3.1Zm0,31h2.3v-3.1C374.7,365.2,373.9,366.2,372.5,368.2Zm2.2-27.6a11,11,0,0,1-1.7,2.5l-.3.5,2.1,2.8v-5.8Zm-2,9h0a31.8,31.8,0,0,0,2.1,2.8v-5.8A23.4,23.4,0,0,0,372.7,349.6Zm0,6.1h0a20.3,20.3,0,0,0,2.1,2.8v-5.7A17.5,17.5,0,0,0,372.7,355.7Zm0,6.1a18.3,18.3,0,0,1,2,3h.1V359A17.5,17.5,0,0,0,372.7,361.8Zm3.8-33.5a3.1,3.1,0,0,1-2,3.1c0,.1-.2.2-.6.2h-.4l2.1,2.1q1.2-1.8,1.8-1.8a24.5,24.5,0,0,0-.8-3.6Zm-.8,6.1a9.8,9.8,0,0,0-.6,2.2h2.4V336l-1.8-1.6Zm-.6,2.8v5.9h3.6v-.5l-1.7-2.4V340l1.7-2.4v-.4Zm0,6.4v5.7h3.6v-5.7Zm0,6.2v5.8h3.6v-.4l-1.8-2.6,1.8-2.6v-.2Zm0,6.2v5.9h3.6V356Zm0,6.4v5.8h3.6v-.4l-1.8-2.5,1.8-2.7v-.2Zm.8-28.5a13.2,13.2,0,0,0,1.9,1.9c0-.2.1-.3.5-.5-.5-1.9-.7-2.9-.7-3A4.3,4.3,0,0,0,375.9,333.9Zm.6-7.4a2.7,2.7,0,0,0,2.1,2.7h.4a2.6,2.6,0,0,0,2-2.6v-.2l-1.9-.3h-.4A11.5,11.5,0,0,0,376.5,326.5Zm2.7,3.1h-.7a2.2,2.2,0,0,1-1.5-1h0c.4,1.8.7,2.7.7,3l1.2-.3,1.1.3.8-3.3C380.2,329.2,379.7,329.6,379.2,329.6ZM377.3,340v.2c0,.1.6.8,1.6,2.1a24.3,24.3,0,0,0,1.7-2.3l-1.7-2.1A13.7,13.7,0,0,0,377.3,340Zm0,12.6,1.7,2.3,1.6-2.3-1.7-2.1A13.7,13.7,0,0,0,377.3,352.6Zm0,12.7,1.6,2.1a13.7,13.7,0,0,0,1.6-2.1,10.8,10.8,0,0,0-1.6-2.2A12.3,12.3,0,0,0,377.3,365.3Zm.5-33.1a10.9,10.9,0,0,0,.8,2.9h.6c.4-1.7.6-2.7.7-2.9l-1-.3Zm1.3,5v.4l1.8,2.6-1.8,2.5v.4h3.6v-5.9Zm0,6.4v5.7h3.6v-5.7Zm0,6.2v.2l1.8,2.6-1.8,2.6v.4h3.6v-5.8Zm0,6.2v5.9h3.6V356Zm0,6.4v.2l1.8,2.7-1.8,2.5v.4h3.6v-5.8Zm1-30c-.4,1.8-.6,2.8-.6,2.9s.3.1.5.4l1.9-1.9C381.2,332.8,380.6,332.4,380.1,332.4Zm.1,3.8c.1.3.2.4.3.4h2.2a8.5,8.5,0,0,0-.6-2.3H382C380.8,335.3,380.2,336,380.2,336.2Zm.9-7.8c0,.1-.3,1.3-.8,3.4q.6,0,1.8,1.8a18.4,18.4,0,0,1,2.1-1.9h0a2.8,2.8,0,0,1-2.8-2.2,2.4,2.4,0,0,1-.2-1Zm.5-1.8a8.9,8.9,0,0,0-.2,1.1v.2c.3,2.2,1,3.3,2.4,3.3a2.1,2.1,0,0,0,1.8-1.2h0A9.4,9.4,0,0,0,381.6,326.6Zm.7,7.4c.2,0,.5.9.7,2.6h3.2a3.5,3.5,0,0,1-1.7-3.4c0-.2.1-.7.2-1.5A24,24,0,0,0,382.3,334Zm.7,3.2v3.1c.1-.1.9-1.1,2.3-3.1Zm0,3.4v5.8l2.2-2.9Zm0,6.1v5.8a30.4,30.4,0,0,0,2.2-2.9Zm0,6.2v5.7a19.4,19.4,0,0,0,2.2-2.9Zm0,6.1v5.8a26.5,26.5,0,0,0,2.2-3Zm0,6.1v3.1h2.3A36.5,36.5,0,0,0,383,365.1Zm2.4-27.4-2,2.8a17,17,0,0,0,2,2.7l2-2.7h0Zm0,6.1a11.3,11.3,0,0,0-2,2.9l2,2.6,2-2.7h0A32.2,32.2,0,0,0,385.4,343.8Zm-2,8.8v.2l2,2.7,2.1-2.9-2.1-2.7A15.7,15.7,0,0,0,383.4,352.6Zm0,6.2a20,20,0,0,0,1.9,2.7h.1l2.1-2.8-2.1-2.8A14.6,14.6,0,0,0,383.4,358.8Zm0,6.1a20.2,20.2,0,0,0,2,2.8l2.1-2.8-2.1-2.7A15.7,15.7,0,0,0,383.4,364.9Zm1.4-32v.7c.4,1.8,1.1,2.8,2.1,2.8h.8a11.4,11.4,0,0,0-1.7-5.8h-.1A3.4,3.4,0,0,0,384.8,332.9Zm.6,4.3,2.3,3.1v-3.1Zm0,31h2.3v-3.1C387.6,365.2,386.8,366.2,385.4,368.2Zm.2-24.6,2.1,2.8v-5.7A23.4,23.4,0,0,0,385.6,343.6Zm2,3.1a17.3,17.3,0,0,1-2,2.9h0a31.8,31.8,0,0,0,2.1,2.8v-5.8Zm-2,9h0l2.1,2.8v-5.7A17.5,17.5,0,0,0,385.6,355.7Zm0,6.1v.3a13.1,13.1,0,0,1,2,2.5v.2h.1V359A17.5,17.5,0,0,0,385.6,361.8Zm-15.7,6.4v3a27.3,27.3,0,0,0,2.3-3m-2.3,3.4v5.7a13.6,13.6,0,0,0,2.2-2.9Zm0,6.1v5.8a16.8,16.8,0,0,0,2.2-3Zm0,6.1v5.8a16.8,16.8,0,0,0,2.2-3Zm0,6.1v5.8a18.1,18.1,0,0,0,2.2-2.9Zm0,6.2v3h2.3A17.9,17.9,0,0,0,369.9,396.1Zm2.4-27.5-2,2.8a17.3,17.3,0,0,0,2,2.8,14.6,14.6,0,0,0,2-2.8A17.3,17.3,0,0,0,372.3,368.6Zm0,6.1-2,2.9,2,2.7a15.7,15.7,0,0,0,2-2.7h0A17.3,17.3,0,0,0,372.3,374.7Zm-2,8.9h0a32.2,32.2,0,0,0,2,2.7,17.5,17.5,0,0,0,2.1-2.8l-2.1-2.7A27,27,0,0,0,370.3,383.6Zm0,6.1a31.8,31.8,0,0,0,2.1,2.8l2-2.8-2.1-2.7A27,27,0,0,0,370.3,389.7Zm0,6.1a20.3,20.3,0,0,0,2.1,2.8l2-2.8-2.1-2.7A27,27,0,0,0,370.3,395.8Zm2.1-27.6c0,.1.8,1.1,2.3,3v-3m-2.3,30.9h2.3v-3C374.5,396.1,373.8,397.2,372.4,399.1Zm2.2-27.5a10.4,10.4,0,0,1-1.8,2.4l-.2.5a20.3,20.3,0,0,0,2.1,2.8v-5.7Zm-2,8.9h0a24.6,24.6,0,0,0,2.1,2.9v-5.8A17.5,17.5,0,0,0,372.6,380.5Zm0,6.1v.2l2.1,2.8v-5.8A26.8,26.8,0,0,0,372.6,386.6Zm0,6.2a20.7,20.7,0,0,1,2,2.9h.1v-5.8A23.4,23.4,0,0,0,372.6,392.8Zm2.4-24.6V374h3.6v-.4l-1.8-2.5h0l1.8-2.5v-.3m-3.6,6.3v5.8h3.6v-5.8Zm0,6.3v5.7h3.6v-.3l-1.9-2.6,1.9-2.6v-.2Zm0,6.2v5.9h3.6V387Zm0,6.3v5.8h3.6v-.3l-1.9-2.6,1.9-2.6v-.3Zm2.2-22.3h0a12.4,12.4,0,0,0,1.6,2.1,25.3,25.3,0,0,0,1.6-2.2l-1.6-2.1A13.7,13.7,0,0,0,377.2,371Zm0,12.6,1.7,2.2,1.5-2.2-1.6-2.1A13.7,13.7,0,0,0,377.2,383.6Zm0,12.6a12.4,12.4,0,0,0,1.6,2.1,20.9,20.9,0,0,0,1.5-2.1,15.2,15.2,0,0,0-1.5-2.1A13.7,13.7,0,0,0,377.2,396.2Zm1.8-28v.3l1.8,2.6-1.8,2.6v.3h3.5v-5.8m-3.5,6.3v5.8h3.5v-5.8Zm0,6.3v.2l1.8,2.6-1.8,2.6v.3h3.5v-5.7Zm0,6.2v5.9h3.5V387Zm0,6.3v.3l1.8,2.6-1.8,2.6v.3h3.5v-5.8Zm3.9-25.1v3l2.3-3m-2.3,3.4v5.7c1.4-1.8,2.2-2.8,2.2-2.9Zm0,6.1v5.8a26.5,26.5,0,0,0,2.2-3Zm0,6.1v5.8a26.5,26.5,0,0,0,2.2-3Zm0,6.1v5.8a30.4,30.4,0,0,0,2.2-2.9Zm0,6.2v3h2.3Zm2.3-27.5-2,2.8a17.3,17.3,0,0,0,2,2.8,14.6,14.6,0,0,0,2-2.8h0A17,17,0,0,0,385.2,368.6Zm0,6.1a18.3,18.3,0,0,0-2,3l2,2.6a15.7,15.7,0,0,0,2-2.7h0A11.9,11.9,0,0,0,385.2,374.7Zm-2,8.9h0a32.2,32.2,0,0,0,2,2.7,17.5,17.5,0,0,0,2.1-2.8l-2.1-2.7A27,27,0,0,0,383.2,383.6Zm0,6.1a14.7,14.7,0,0,0,2,2.7h0a17.5,17.5,0,0,0,2.1-2.8l-2.1-2.7A27,27,0,0,0,383.2,389.7Zm0,6.1a20.3,20.3,0,0,0,2.1,2.8l2-2.8-2.1-2.7A27,27,0,0,0,383.2,395.8Zm2.1-27.6,2.3,3v-3m-2.3,30.9h2.3v-3A30.4,30.4,0,0,0,385.3,399.1Zm.2-24.6a31.8,31.8,0,0,0,2.1,2.8v-5.6A17.5,17.5,0,0,0,385.5,374.5Zm2,3.2c0,.1-.7,1-2,2.8h0a24.6,24.6,0,0,0,2.1,2.9v-5.8Zm-2,8.9v.2l2.1,2.8v-5.8A26.8,26.8,0,0,0,385.5,386.6Zm0,6.2v.2a17.2,17.2,0,0,1,2,2.6h.1v-5.8A23.4,23.4,0,0,0,385.5,392.8Z" transform="translate(-240.1 -326.1)"/></svg>