<svg xmlns="http://www.w3.org/2000/svg" width="22.811" height="30.424" viewBox="0 0 22.811 30.424">
  <g id="contract" transform="translate(-64.5 512)">
    <path id="Path_11241" data-name="Path 11241" d="M66.165-511.887a2.711,2.711,0,0,0-1.493,1.344l-.172.357v26.826l.172.357a2.9,2.9,0,0,0,1.213,1.225l.4.2H85.5l.4-.2A2.9,2.9,0,0,0,87.108-483l.172-.357.018-11,.012-11-3.319-3.319L80.673-512h-7.1C66.861-511.994,66.445-511.988,66.165-511.887Zm17.386,6.18c-1.594.018-1.773-.006-2.112-.3-.41-.357-.434-.476-.434-2.183v-1.517L83-507.717l1.993,1.993Zm-6.769.161a.626.626,0,0,1,.327.625.723.723,0,0,1-.512.5c-.327.065-7.56.042-7.8-.024a.606.606,0,0,1-.464-.589.534.534,0,0,1,.3-.5c.131-.1.47-.1,4.063-.1A24.447,24.447,0,0,1,76.783-505.546Zm6.364,3.819a.534.534,0,0,1,.3.5.606.606,0,0,1-.464.589c-.3.083-13.877.083-14.18,0a.6.6,0,0,1-.137-1.118c.083-.048,2.171-.065,7.227-.071C82.493-501.829,83.01-501.823,83.147-501.728Zm0,3.807a.534.534,0,0,1,.3.5.607.607,0,0,1-.464.589c-.3.083-13.877.083-14.18,0a.6.6,0,0,1-.137-1.118c.083-.048,2.171-.065,7.227-.071C82.493-498.022,83.01-498.016,83.147-497.921Zm0,3.807a.534.534,0,0,1,.3.5.606.606,0,0,1-.464.589c-.3.083-8.821.083-9.124,0a.609.609,0,0,1-.464-.565.692.692,0,0,1,.381-.565c.065-.03,2.171-.054,4.675-.054C82.647-494.215,83.01-494.209,83.147-494.114Zm-12.384,2.552a1.812,1.812,0,0,1,1.065.91,1.323,1.323,0,0,1,.2.815,4.163,4.163,0,0,1-.916,2.338l-.327.476.19.161c.3.25.44.3.565.178a7.8,7.8,0,0,0,.577-1.005c.636-1.237.785-1.4,1.255-1.41s.678.291,1.088,1.576a8.117,8.117,0,0,0,.3.821,12.11,12.11,0,0,0,1.987-1.642c.767-.708.833-.755,1.059-.755a.573.573,0,0,1,.589.577c0,.214-.042.274-.738.946a15.029,15.029,0,0,1-2.361,1.939c-.851.506-1.41.178-1.814-1.047-.089-.268-.173-.506-.184-.529s-.167.184-.327.476c-.565.987-.946,1.326-1.5,1.326a2.257,2.257,0,0,1-1.243-.529l-.214-.19-.428.357c-.363.309-.464.363-.66.363a.574.574,0,0,1-.583-.589c0-.25.089-.363.684-.856l.172-.149-.155-.232a6.33,6.33,0,0,1-.613-1.261,2.136,2.136,0,0,1-.077-.833,1.9,1.9,0,0,1,.244-.975,2.82,2.82,0,0,1,.541-.791A1.437,1.437,0,0,1,70.763-491.563Z" fill="#fe9935"/>
    <path id="Path_11242" data-name="Path 11242" d="M149.393-149.62a1.675,1.675,0,0,0-.393,1.041,2.117,2.117,0,0,0,.357,1.035l.119.149.119-.149a5.3,5.3,0,0,0,.7-1.5c.042-.369-.071-.63-.315-.732C149.684-149.906,149.625-149.888,149.393-149.62Z" transform="translate(-79.474 -340.604)" fill="#fe9935"/>
  </g>
</svg>
