<svg xmlns="http://www.w3.org/2000/svg" width="30.167" height="30.175" viewBox="0 0 30.167 30.175">
  <g id="Group_6013" data-name="Group 6013" transform="translate(0 0)">
    <g id="bill" transform="translate(0 0)">
      <path id="Path_11179" data-name="Path 11179" d="M12.824-511.945a6.322,6.322,0,0,0-.919,1.2l-.725,1.09-1.108-.737c-1.09-.719-1.108-.731-1.438-.731a.906.906,0,0,0-.813.383A11.964,11.964,0,0,0,7.4-509.31c-.177.707-.324,1.291-.336,1.3s-.43-.265-.943-.6c-.908-.6-.937-.619-1.261-.619a.906.906,0,0,0-.813.383,11.958,11.958,0,0,0-.418,1.426c-.177.707-.324,1.291-.336,1.3s-.43-.265-.943-.6c-.908-.6-.937-.619-1.261-.619a.911.911,0,0,0-.843.424c-.112.177-.118.259-.088.872.035.855.271,2.682.572,4.509,1,5.994,2.593,10.927,4.591,14.233,1.114,1.845,1.9,2.611,3.242,3.165a5.085,5.085,0,0,0,2.134.371,3.175,3.175,0,0,0,2.617-.967,3.055,3.055,0,0,0,.967-2.381,3.267,3.267,0,0,0-2.251-3.112,4.912,4.912,0,0,0-1.008-.141,2.48,2.48,0,0,1-.943-.159.9.9,0,0,1-.012-1.556c.1-.059,1.78-.719,3.742-1.473s3.625-1.409,3.7-1.462a1.186,1.186,0,0,0,.371-.76,5.2,5.2,0,0,0-.3-.972,57.343,57.343,0,0,1-3.177-13.6c-.136-1.185-.189-1.35-.53-1.574A1.108,1.108,0,0,0,12.824-511.945Zm-1.809,8.575a.913.913,0,0,1,0,1.473c-.077.053-1.238.536-2.581,1.073-2.57,1.031-2.711,1.067-3.071.86a.908.908,0,0,1-.077-1.521c.141-.094,4.078-1.691,4.8-1.945A.907.907,0,0,1,11.015-503.37Zm.943,3.772a.913.913,0,0,1,0,1.473c-.077.053-1.232.53-2.564,1.067-2.593,1.037-2.741,1.078-3.118.849a.906.906,0,0,1-.047-1.5c.141-.094,4.078-1.692,4.8-1.945A.907.907,0,0,1,11.958-499.6Z" transform="translate(-0.144 512.067)" fill="#ef2e0f"/>
      <path id="Path_11181" data-name="Path 11181" d="M228.135-238.7c-1.7.654-4.155,1.6-5.452,2.092a23.058,23.058,0,0,0-2.458,1.02.57.57,0,0,0-.106.336c0,.183.047.265.33.536a5.472,5.472,0,0,1,1.5,2.629,4.026,4.026,0,0,1,.094,1.338,4.366,4.366,0,0,1-.548,2.163,5.2,5.2,0,0,1-1.986,2.092c-.407.218-.513.318-.513.472,0,.236.136.283.725.253a3.453,3.453,0,0,0,1.043-.206c.277-.094,2.853-1.149,5.729-2.334s5.257-2.163,5.293-2.163a1.641,1.641,0,0,0,.342-.141c.153-.077.807-.359,1.456-.625s1.226-.519,1.285-.56a5.139,5.139,0,0,0,.937-1.285,4.205,4.205,0,0,0,.46-2.039,4.563,4.563,0,0,0-1.5-3.524,4.291,4.291,0,0,0-3.041-1.249l-.5.006Z" transform="translate(-206.101 255.941)" fill="#ef2e0f"/>
    </g>
  </g>
</svg>
