<svg xmlns="http://www.w3.org/2000/svg" width="30.639" height="29.566" viewBox="0 0 30.639 29.566">
  <g id="Group_6025" data-name="Group 6025" transform="translate(-759.05 -310.331)">
    <g id="Group_5983" data-name="Group 5983" transform="translate(777.197 312.089)">
      <circle id="Ellipse_763" data-name="Ellipse 763" cx="6.246" cy="6.246" r="6.246" transform="translate(0 0.534)" fill="#3598db"/>
      <text id="_" data-name="!" transform="translate(4.511 10)" fill="#fff" font-size="10" font-family="Tahoma" letter-spacing="-0.043em"><tspan x="0" y="0">!</tspan></text>
    </g>
    <g id="bill" transform="translate(759.05 310.331)">
      <path id="Path_11179" data-name="Path 11179" d="M12.568-511.947a6.2,6.2,0,0,0-.9,1.178l-.71,1.068-1.086-.722c-1.068-.7-1.086-.716-1.409-.716a.887.887,0,0,0-.8.375,11.716,11.716,0,0,0-.41,1.4c-.173.693-.318,1.265-.329,1.27s-.422-.26-.924-.589c-.889-.589-.918-.606-1.236-.606a.888.888,0,0,0-.8.375,11.716,11.716,0,0,0-.41,1.4c-.173.693-.318,1.265-.329,1.27s-.422-.26-.924-.589c-.889-.589-.918-.606-1.236-.606a.892.892,0,0,0-.826.416c-.11.173-.115.254-.087.855.035.837.266,2.628.56,4.418.982,5.873,2.541,10.706,4.5,13.946,1.091,1.807,1.859,2.558,3.176,3.1a4.982,4.982,0,0,0,2.09.364,3.111,3.111,0,0,0,2.564-.947,2.994,2.994,0,0,0,.947-2.333,3.2,3.2,0,0,0-2.206-3.049,4.813,4.813,0,0,0-.987-.139,2.429,2.429,0,0,1-.924-.156.881.881,0,0,1-.012-1.525c.1-.058,1.744-.7,3.667-1.444s3.551-1.38,3.621-1.432a1.162,1.162,0,0,0,.364-.745,5.094,5.094,0,0,0-.295-.953,56.188,56.188,0,0,1-3.113-13.322c-.133-1.161-.185-1.322-.52-1.542A1.086,1.086,0,0,0,12.568-511.947Zm-1.773,8.4a.9.9,0,0,1,0,1.444c-.075.052-1.213.526-2.529,1.051-2.518,1.011-2.656,1.045-3.009.843a.89.89,0,0,1-.075-1.49c.139-.092,4-1.657,4.7-1.906A.888.888,0,0,1,10.8-503.545Zm.924,3.7a.9.9,0,0,1,0,1.444c-.075.052-1.207.52-2.512,1.045-2.541,1.016-2.685,1.057-3.055.832A.888.888,0,0,1,6.106-498c.139-.092,4-1.657,4.7-1.906A.888.888,0,0,1,11.719-499.849Z" transform="translate(-0.144 512.066)" fill="#3598db"/>
      <path id="Path_11181" data-name="Path 11181" d="M227.951-238.729c-1.669.641-4.071,1.565-5.342,2.05a22.6,22.6,0,0,0-2.408,1,.558.558,0,0,0-.1.329c0,.179.046.26.323.526a5.361,5.361,0,0,1,1.473,2.576,3.945,3.945,0,0,1,.092,1.311,4.278,4.278,0,0,1-.537,2.119,5.1,5.1,0,0,1-1.946,2.05c-.4.214-.5.312-.5.462,0,.231.133.277.71.248a3.383,3.383,0,0,0,1.022-.2c.271-.092,2.795-1.126,5.613-2.287s5.151-2.119,5.186-2.119a1.607,1.607,0,0,0,.335-.139c.15-.075.791-.352,1.426-.612s1.2-.508,1.259-.549a5.036,5.036,0,0,0,.918-1.259,4.12,4.12,0,0,0,.45-2,4.471,4.471,0,0,0-1.467-3.453,4.2,4.2,0,0,0-2.98-1.224l-.491.006Z" transform="translate(-206.362 255.618)" fill="#3598db"/>
    </g>
  </g>
</svg>
