<svg xmlns="http://www.w3.org/2000/svg" width="27.829" height="27.337" viewBox="0 0 27.829 27.337">
  <g id="Group_6026" data-name="Group 6026" transform="translate(-491.652 -471.396)">
    <g id="bill" transform="translate(491.509 983.463)">
      <path id="Path_11179" data-name="Path 11179" d="M11.631-511.956a5.729,5.729,0,0,0-.833,1.089l-.657.988-1-.667c-.988-.651-1-.662-1.3-.662a.82.82,0,0,0-.737.347,10.834,10.834,0,0,0-.379,1.292c-.16.641-.294,1.169-.3,1.175s-.39-.24-.854-.545c-.822-.545-.849-.561-1.143-.561a.821.821,0,0,0-.737.347,10.831,10.831,0,0,0-.379,1.292c-.16.641-.294,1.169-.3,1.175s-.39-.24-.854-.545c-.822-.545-.849-.561-1.143-.561a.825.825,0,0,0-.764.384c-.1.16-.107.235-.08.79.032.774.246,2.429.518,4.085.908,5.43,2.349,9.9,4.159,12.894a5.821,5.821,0,0,0,2.937,2.867,4.606,4.606,0,0,0,1.933.336,2.876,2.876,0,0,0,2.371-.876,2.768,2.768,0,0,0,.876-2.157,2.96,2.96,0,0,0-2.04-2.819,4.452,4.452,0,0,0-.913-.128,2.246,2.246,0,0,1-.854-.144.814.814,0,0,1-.011-1.41c.091-.053,1.612-.651,3.39-1.335s3.284-1.276,3.348-1.324a1.074,1.074,0,0,0,.336-.689,4.711,4.711,0,0,0-.272-.881,51.951,51.951,0,0,1-2.878-12.318c-.123-1.073-.171-1.223-.481-1.426A1,1,0,0,0,11.631-511.956Zm-1.639,7.769a.827.827,0,0,1,0,1.335c-.069.048-1.121.486-2.339.972-2.328.934-2.456.966-2.782.78a.823.823,0,0,1-.069-1.378c.128-.085,3.695-1.532,4.346-1.762A.821.821,0,0,1,9.992-504.187Zm.854,3.417a.827.827,0,0,1,0,1.335c-.069.048-1.116.481-2.323.966-2.349.94-2.483.977-2.824.769a.821.821,0,0,1-.043-1.361c.128-.085,3.695-1.532,4.346-1.762A.821.821,0,0,1,10.847-500.77Z" transform="translate(0 0)" fill="#fed035"/>
      <path id="Path_11181" data-name="Path 11181" d="M227.276-238.817c-1.543.593-3.764,1.447-4.939,1.9a20.894,20.894,0,0,0-2.226.924.516.516,0,0,0-.1.3c0,.166.043.24.3.486a4.957,4.957,0,0,1,1.362,2.381,3.647,3.647,0,0,1,.085,1.212,3.956,3.956,0,0,1-.5,1.96,4.715,4.715,0,0,1-1.8,1.9c-.368.2-.465.288-.465.427,0,.214.123.256.657.23a3.128,3.128,0,0,0,.945-.187c.251-.085,2.584-1.041,5.19-2.114s4.763-1.96,4.795-1.96a1.486,1.486,0,0,0,.31-.128c.139-.069.731-.326,1.319-.566s1.111-.47,1.164-.507a4.656,4.656,0,0,0,.849-1.164,3.81,3.81,0,0,0,.416-1.847,4.134,4.134,0,0,0-1.356-3.193,3.888,3.888,0,0,0-2.755-1.132l-.454.005Z" transform="translate(-207.171 -257.634)" fill="#fed035"/>
    </g>
    <circle id="Ellipse_763" data-name="Ellipse 763" cx="5.775" cy="5.775" r="5.775" transform="translate(507.932 473.45)" fill="#fed035"/>
    <g id="Time_Square" data-name="Time Square" transform="translate(509.843 475.343)">
      <path id="Stroke_1" data-name="Stroke 1" d="M4.551,0h-2.9A1.6,1.6,0,0,0,0,1.731V4.467A1.6,1.6,0,0,0,1.647,6.2h2.9A1.6,1.6,0,0,0,6.2,4.467V1.731A1.6,1.6,0,0,0,4.551,0Z" transform="translate(0.751 0.75)" fill="none" stroke="#fff" stroke-linecap="round" stroke-linejoin="round" stroke-miterlimit="10" stroke-width="0.58"/>
      <path id="Stroke_3" data-name="Stroke 3" d="M1.136,2.139,0,1.461V0" transform="translate(3.85 2.386)" fill="none" stroke="#fff" stroke-linecap="round" stroke-linejoin="round" stroke-miterlimit="10" stroke-width="0.58"/>
    </g>
  </g>
</svg>
