<svg xmlns="http://www.w3.org/2000/svg" width="29.202" height="28.179" viewBox="0 0 29.202 28.179">
  <g id="Group_6011" data-name="Group 6011" transform="translate(-1027.05 -310.331)">
    <g id="bill" transform="translate(1027.05 310.331)">
      <path id="Path_11179" data-name="Path 11179" d="M11.985-511.953a5.906,5.906,0,0,0-.859,1.123l-.677,1.018L9.415-510.5c-1.018-.671-1.035-.682-1.343-.682a.846.846,0,0,0-.76.358,11.17,11.17,0,0,0-.391,1.332c-.165.66-.3,1.205-.314,1.211s-.4-.248-.881-.561c-.848-.561-.875-.578-1.178-.578a.846.846,0,0,0-.76.358,11.161,11.161,0,0,0-.391,1.332c-.165.661-.3,1.205-.314,1.211s-.4-.248-.881-.561c-.848-.561-.875-.578-1.178-.578a.85.85,0,0,0-.787.4c-.1.165-.11.242-.083.815.033.8.253,2.5.534,4.21.936,5.6,2.422,10.2,4.287,13.291a6,6,0,0,0,3.027,2.955,4.748,4.748,0,0,0,1.992.347,2.965,2.965,0,0,0,2.444-.9,2.853,2.853,0,0,0,.9-2.224,3.051,3.051,0,0,0-2.1-2.906,4.587,4.587,0,0,0-.941-.132,2.315,2.315,0,0,1-.881-.149.839.839,0,0,1-.011-1.453c.094-.055,1.662-.671,3.495-1.376s3.385-1.315,3.451-1.365a1.107,1.107,0,0,0,.347-.71,4.856,4.856,0,0,0-.281-.908,53.551,53.551,0,0,1-2.966-12.7c-.127-1.106-.176-1.26-.5-1.469A1.035,1.035,0,0,0,11.985-511.953Zm-1.69,8.008a.853.853,0,0,1,0,1.376c-.072.05-1.156.5-2.411,1-2.4.963-2.532,1-2.867.8a.848.848,0,0,1-.072-1.42c.132-.088,3.809-1.58,4.48-1.816A.847.847,0,0,1,10.3-503.945Zm.881,3.522a.853.853,0,0,1,0,1.376c-.072.05-1.15.5-2.394,1-2.422.969-2.559,1.007-2.911.792a.846.846,0,0,1-.044-1.4c.132-.088,3.809-1.58,4.48-1.816A.847.847,0,0,1,11.176-500.423Z" transform="translate(-0.144 512.066)" fill="#1c9a4e"/>
      <path id="Path_11181" data-name="Path 11181" d="M227.531-238.784c-1.591.611-3.88,1.492-5.091,1.954a21.535,21.535,0,0,0-2.3.952.532.532,0,0,0-.1.314c0,.171.044.248.308.5a5.11,5.11,0,0,1,1.4,2.455,3.76,3.76,0,0,1,.088,1.249,4.077,4.077,0,0,1-.512,2.02,4.86,4.86,0,0,1-1.855,1.954c-.38.2-.479.3-.479.44,0,.22.127.264.677.237a3.224,3.224,0,0,0,.974-.193c.259-.088,2.664-1.073,5.35-2.179s4.909-2.02,4.942-2.02a1.532,1.532,0,0,0,.319-.132c.143-.072.754-.336,1.359-.583s1.145-.484,1.2-.523a4.8,4.8,0,0,0,.875-1.2,3.927,3.927,0,0,0,.429-1.9,4.261,4.261,0,0,0-1.4-3.291,4.007,4.007,0,0,0-2.84-1.167l-.468.006Z" transform="translate(-206.955 254.88)" fill="#1c9a4e"/>
    </g>
    <path id="Path_11248" data-name="Path 11248" d="M298.761-218.56a6.51,6.51,0,0,0-2.563,1.036,7.285,7.285,0,0,0-1.522,1.543,7.366,7.366,0,0,0-.84,1.876,4.342,4.342,0,0,0-.142,1.434,4.8,4.8,0,0,0,.365,2.182,5.981,5.981,0,0,0,4.625,3.763,7.7,7.7,0,0,0,2.552-.131,6.041,6.041,0,0,0,4.178-4.189,7.616,7.616,0,0,0,.131-2.542,6,6,0,0,0-2.536-3.992,5.83,5.83,0,0,0-2.127-.905A8.943,8.943,0,0,0,298.761-218.56Zm3.91,4.4a1.71,1.71,0,0,1,.2.256c0,.022-4.052,3.741-4.107,3.763-.011.005-.567-.589-1.233-1.325l-1.211-1.336.289-.262c.158-.142.42-.376.584-.513l.289-.256.229.24c.12.136.431.475.687.753l.464.507,1.494-1.363,1.494-1.369.311.344C302.333-214.541,302.562-214.284,302.671-214.164Z" transform="translate(750.652 530.846)" fill="#1c9a4e"/>
  </g>
</svg>
