<svg xmlns="http://www.w3.org/2000/svg" width="20.852" height="22.457" viewBox="0 0 20.852 22.457">
  <g id="pay-day" transform="translate(-48 480.025)">
    <path id="Path_11230" data-name="Path 11230" d="M53.173-479.924c-.3.18-.361.356-.361.962v.541H51.383a5.265,5.265,0,0,0-1.744.105,2.377,2.377,0,0,0-1.534,1.534c-.105.311-.105.341-.105,8.787s0,8.476.105,8.787a2.413,2.413,0,0,0,1.644,1.569c.18.06,1.719.07,8.687.07,8.436,0,8.466,0,8.777-.105a2.308,2.308,0,0,0,1-.637,2.2,2.2,0,0,0,.536-.9c.105-.311.105-.331.105-8.787s0-8.476-.105-8.787a2.308,2.308,0,0,0-.637-1,2.2,2.2,0,0,0-.9-.536,5.265,5.265,0,0,0-1.744-.105H64.04v-.541c0-.607-.065-.782-.361-.962a1.009,1.009,0,0,0-.882,0c-.3.18-.361.356-.361.962v.541H59.228v-.541c0-.607-.065-.782-.361-.962a1.009,1.009,0,0,0-.882,0c-.3.18-.361.356-.361.962v.541H54.416v-.541c0-.446-.015-.561-.1-.7a.76.76,0,0,0-.7-.361A.81.81,0,0,0,53.173-479.924Zm-.361,3.644c0,.612.065.787.361.967a1.009,1.009,0,0,0,.882,0c.3-.18.361-.356.361-.967v-.536h3.208v.536c0,.612.065.787.361.967a1.009,1.009,0,0,0,.882,0c.3-.18.361-.356.361-.967v-.536h3.208v.536c0,.612.065.787.361.967a1.009,1.009,0,0,0,.882,0c.3-.18.361-.356.361-.967v-.541l1.293.015c1.183.015,1.3.025,1.459.115a.822.822,0,0,1,.406.556,12.628,12.628,0,0,1,.05,1.358v1.168H49.6l.015-1.293c.015-1.183.025-1.3.115-1.459a.839.839,0,0,1,.531-.406c.1-.02.707-.04,1.363-.045l1.188-.005Zm5.88,5.7a.991.991,0,0,1,.536.982c0,.165.02.19.281.316a2.347,2.347,0,0,1,1.273,2,.741.741,0,0,1-.752.837.791.791,0,0,1-.782-.782.768.768,0,0,0-.822-.772.738.738,0,0,0-.8.8c0,.506.271.772.847.827a2.351,2.351,0,0,1,1.574.672,2.2,2.2,0,0,1,.737,1.714,2.329,2.329,0,0,1-1.273,2.085c-.261.125-.281.15-.281.316a1,1,0,0,1-.586,1.008.782.782,0,0,1-.962-.612,2.458,2.458,0,0,1-.055-.411c0-.15-.025-.175-.281-.3A2.347,2.347,0,0,1,56.07-463.9a.741.741,0,0,1,.752-.837.791.791,0,0,1,.782.782.768.768,0,0,0,.822.772.738.738,0,0,0,.8-.8c0-.506-.271-.772-.847-.827a2.351,2.351,0,0,1-1.574-.672,2.193,2.193,0,0,1-.737-1.709,2.322,2.322,0,0,1,1.273-2.09c.261-.125.281-.15.281-.316a1.015,1.015,0,0,1,.526-.982A.605.605,0,0,1,58.692-470.58Z" transform="translate(0 0)" fill="#0bd275"/>
  </g>
</svg>
