<svg xmlns="http://www.w3.org/2000/svg" width="24.434" height="24.434" viewBox="0 0 24.434 24.434">
  <g id="visitors" transform="translate(-32 480)">
    <path id="Path_11249" data-name="Path 11249" d="M32.393-479.891a1,1,0,0,0-.284.284c-.1.169-.109.278-.109,1.636v1.462h6.136L39-478.227c.469-.944.856-1.729.856-1.745S38.218-480,36.216-480C32.676-480,32.567-479.995,32.393-479.891Zm1.778.927a.824.824,0,0,1-.425,1.527.824.824,0,0,1-.425-1.527.9.9,0,0,1,.425-.109A.9.9,0,0,1,34.171-478.964Zm2.618,0a.824.824,0,0,1-.425,1.527.9.9,0,0,1-.425-.109.824.824,0,0,1,.425-1.527A.9.9,0,0,1,36.789-478.964Z" transform="translate(0 0)" fill="#1f27fd"/>
    <path id="Path_11250" data-name="Path 11250" d="M160.856-478.282c-.469.944-.856,1.729-.856,1.745a1.817,1.817,0,0,0,.453.027h.447l.862-1.718c.469-.944.856-1.729.856-1.745a1.817,1.817,0,0,0-.453-.027h-.447Z" transform="translate(-121.019 0)" fill="#1f27fd"/>
    <path id="Path_11251" data-name="Path 11251" d="M192.856-478.282c-.469.944-.856,1.729-.856,1.745s3.534.027,7.854.027h7.854v-1.462c0-1.358-.005-1.467-.109-1.636a1,1,0,0,0-.284-.284c-.175-.109-.289-.109-6.888-.109h-6.708Z" transform="translate(-151.274 0)" fill="#1f27fd"/>
    <path id="Path_11252" data-name="Path 11252" d="M32-390.254c0,9.637,0,9.752.109,9.932a1,1,0,0,0,.284.284c.18.109.3.109,11.824.109s11.644,0,11.824-.109a1,1,0,0,0,.284-.284c.109-.18.109-.294.109-9.932V-400H32Zm7.7-6.1c.856.856.971.987.971,1.145a.38.38,0,0,1-.387.393c-.147,0-.262-.087-.736-.556l-.567-.556v1.647c0,1.811-.027,1.991-.295,2.062a.39.39,0,0,1-.5-.224,8.135,8.135,0,0,1-.076-1.838v-1.647l-.567.556c-.474.469-.589.556-.736.556a.38.38,0,0,1-.387-.393c0-.158.115-.289.971-1.145.878-.884.987-.971,1.156-.971S38.823-397.24,39.7-396.357Zm11.344,0c.856.856.971.987.971,1.145a.38.38,0,0,1-.387.393c-.147,0-.262-.087-.736-.556l-.567-.556v1.647a8.135,8.135,0,0,1-.076,1.838.39.39,0,0,1-.5.224c-.267-.071-.295-.251-.295-2.062v-1.647l-.567.556c-.475.469-.589.556-.736.556a.38.38,0,0,1-.387-.393c0-.158.115-.289.971-1.145.878-.884.987-.971,1.156-.971S50.167-397.24,51.045-396.357Zm-11.612,6.19a2.489,2.489,0,0,1,1.064,1.058,1.622,1.622,0,0,1,.147.889,1.622,1.622,0,0,1-.147.889,2.563,2.563,0,0,1-1.064,1.064,1.622,1.622,0,0,1-.889.147,1.622,1.622,0,0,1-.889-.147,2.563,2.563,0,0,1-1.064-1.064,1.622,1.622,0,0,1-.147-.889,1.583,1.583,0,0,1,.142-.873,2.213,2.213,0,0,1,1.265-1.156A2.462,2.462,0,0,1,39.434-390.166Zm11.344,0a2.489,2.489,0,0,1,1.064,1.058,1.622,1.622,0,0,1,.147.889,1.622,1.622,0,0,1-.147.889,2.563,2.563,0,0,1-1.064,1.064,1.622,1.622,0,0,1-.889.147,1.622,1.622,0,0,1-.889-.147,2.563,2.563,0,0,1-1.064-1.064,1.622,1.622,0,0,1-.147-.889,1.583,1.583,0,0,1,.142-.873,2.213,2.213,0,0,1,1.265-1.156A2.462,2.462,0,0,1,50.778-390.166ZM40.639-385.88a2.689,2.689,0,0,1,1.691,1.751,5.677,5.677,0,0,1,.125.938l.033.644H34.6l.033-.644a2.692,2.692,0,0,1,.736-1.985,2.542,2.542,0,0,1,1.565-.807c.18-.027,1.014-.038,1.854-.033A5.363,5.363,0,0,1,40.639-385.88Zm11.344,0a2.689,2.689,0,0,1,1.691,1.751,5.678,5.678,0,0,1,.125.938l.033.644H45.946l.033-.644a2.692,2.692,0,0,1,.736-1.985,2.542,2.542,0,0,1,1.565-.807c.18-.027,1.014-.038,1.854-.033A5.363,5.363,0,0,1,51.984-385.88Z" transform="translate(0 -75.637)" fill="#1f27fd"/>
  </g>
</svg>
